<?xml version="1.0" encoding="utf-8"?>
<!-- Generator: Adobe Illustrator 16.0.0, SVG Export Plug-In . SVG Version: 6.00 Build 0)  -->
<!DOCTYPE svg PUBLIC "-//W3C//DTD SVG 1.1//EN" "http://www.w3.org/Graphics/SVG/1.1/DTD/svg11.dtd">
<svg version="1.1" id="Layer_1" xmlns="http://www.w3.org/2000/svg" xmlns:xlink="http://www.w3.org/1999/xlink" x="0px" y="0px"
	 width="315px" height="349.67px" viewBox="0 0 315 349.67" enable-background="new 0 0 315 349.67" xml:space="preserve">
<path fill="#EF0C0C" d="M150.24,261.104l-0.05,0.051l-0.01-0.04C150.2,261.104,150.22,261.104,150.24,261.104z"/>
<polygon fill="#EF0C0C" points="153.5,265.095 153.5,265.135 153.46,265.095 "/>
<path fill="#EF0C0C" d="M156.05,274.885l-0.05,0.05c0-0.02,0.01-0.029,0.01-0.05H156.05z"/>
<path fill="#EF0C0C" d="M156.4,274.885v0.04l-0.02-0.03C156.39,274.895,156.39,274.885,156.4,274.885z"/>
<path fill="#EF0C0C" d="M164.4,306.085c-0.011,0.01-0.021,0.03-0.03,0.04c-0.01,0-0.01,0-0.021,0L164.4,306.085z"/>
<path fill="#EF0C0C" d="M166.92,285.025v0.06l-0.04-0.04C166.89,285.035,166.91,285.035,166.92,285.025z"/>
<path fill="#EF0C0C" d="M168.74,346.715v0.05l-0.03-0.04C168.72,346.715,168.73,346.715,168.74,346.715z"/>
<path fill="#EF0C0C" d="M177.81,344.235l-0.06-0.061c0.01,0,0.01,0,0.02,0C177.79,344.195,177.8,344.215,177.81,344.235z"/>
<path id="Path_1524-3" fill="#FFFFFF" d="M152.37,344.554c0.067,0.303-0.051,0.615-0.3,0.8c-0.316,0.274-0.653,0.524-0.962,0.808
	c-0.065,0.096-0.089,0.213-0.065,0.326c0.005,0.034,0.187,0.08,0.274,0.061c0.466-0.131,0.885-0.391,1.211-0.748
	c0.17-0.161,0.364-0.294,0.576-0.393c0.071-0.035,0.214,0.058,0.311,0.114c0.025,0.015,0.028,0.134,0,0.167
	c-0.295,0.367-0.621,0.708-0.973,1.02c-0.375,0.293-0.838,0.469-1.238,0.732c-0.12,0.079-0.16,0.279-0.237,0.424l-0.041-0.043
	c0.729,0.127,1.474-0.121,1.98-0.66c0.666-0.611,1.295-1.262,1.885-1.946c0.092-0.101,0.068-0.33,0.057-0.5
	c-0.011-0.171-0.243-0.257-0.1-0.476c0.2-0.301,0.361-0.625,0.528-0.947c0.492-0.705,0.504-1.641,0.029-2.358
	c-0.301-0.587-0.489-1.224-0.555-1.879c-0.299-1.16-0.489-2.346-0.568-3.541c0.098-0.721,0-1.455-0.285-2.124
	c0.026-0.96,0.035-1.921,0.087-2.88c0.026-0.474,0.159-0.942,0.2-1.417c0.094-1.075,0.119-2.146,0.3-3.225
	c0.23-1.553,0.097-3.137-0.39-4.63c-0.025-0.082-0.169-0.159-0.27-0.182c-0.255-0.058-0.29,0.155-0.3,0.321
	c-0.018,0.239-0.007,0.48,0.034,0.718c0.086,0.224,0.158,0.452,0.216,0.684c0.185,1.374,0.136,2.769-0.146,4.125
	c-0.069,0.292-0.107,0.59-0.112,0.89c0.036,1.322-0.084,2.644-0.359,3.938c-0.069,0.417-0.08,0.842-0.031,1.262
	c0,0.459,0.31,0.883,0.161,1.361c0.237,0.808,0.306,1.656,0.2,2.491c0.012,0.481-0.448,0.677-0.735,0.97
	c-0.042,0.04-0.095,0.068-0.152,0.08c-0.064-0.076-0.153-0.164-0.157-0.251c-0.091-0.662,0.042-1.336,0.381-1.912
	c0.381-0.53-0.152-0.522-0.339-0.733c-0.074-0.084-0.072-0.231-0.141-0.323c-0.05-0.066-0.177-0.138-0.239-0.116
	c-0.113,0.041-0.207,0.121-0.266,0.225c-0.082,0.159-0.131,0.334-0.143,0.512c-0.014,0.482-0.01,0.966,0.013,1.447
	c0.108,1.27-0.183,2.541-0.833,3.635c-0.243,0.391-0.209,0.412,0.451,0.593c0.054-0.101-0.066-0.4,0.239-0.2l-0.288,0.151
	c-0.583,1.116-1.405,2.089-2.408,2.849c-0.492,0.344-0.913,0.779-1.241,1.281c-0.178,0.32-0.479,0.555-0.834,0.65
	c-0.119,0.025-0.225,0.093-0.3,0.189c-0.144,0.251-0.228,0.537-0.376,0.785c-0.27,0.451,0.219,0.445,0.369,0.625
	c0.459,0.55,0.458,0.517,0.949,0.242c0.821-0.506,1.559-1.136,2.187-1.867c0.27-0.288,0.516-0.467,0.924-0.244
	c0.16,0.043,0.331,0.017,0.47-0.072c0.419-0.328,0.889-0.586,1.391-0.764c0.058-0.082-0.049-0.374,0.228-0.178l-0.272,0.134
	 M151.313,343.499c-0.018-0.182,0.115-0.344,0.297-0.362c0.024-0.003,0.049-0.002,0.073,0.001c0.221-0.621,0.596-1.175,1.091-1.609
	c0.134-0.119,0.205-0.134,0.257,0.022c0.022,0.054,0.028,0.114,0.018,0.172c-0.104,0.472-0.369,0.892-0.75,1.188
	c-0.209,0.096-0.434,0.157-0.663,0.182c0.02,0.254-0.066,0.41-0.353,0.377c-0.132,0.568-0.602,0.995-1.18,1.072
	c-0.038,0.01-0.106-0.043-0.141-0.082c-0.027-0.035-0.035-0.082-0.02-0.125C150.293,343.886,150.591,343.345,151.313,343.499
	 M153.095,339.364c-0.005-0.313,0.018-0.626,0.068-0.935c0.032-0.13,0.225-0.242,0.369-0.314c0.049-0.024,0.212,0.08,0.252,0.161
	c0.163,0.25,0.274,0.529,0.328,0.823c0.035,0.828,0.177,1.649,0.423,2.44c0.087,0.408,0.087,0.831,0,1.239
	c-0.069,0.224-0.192,0.426-0.359,0.589c-0.088,0.054-0.197,0.059-0.29,0.012c-0.264-0.163-0.505-0.418-0.343-0.726
	c0.252-0.475,0.365-1.011,0.328-1.547c-0.013-0.237-0.056-0.476-0.045-0.712c0.026-0.551-0.435-0.2-0.524-0.293
	c-0.163-0.176-0.151-0.514-0.2-0.738"/>
<path id="Path_1525-3" fill="#FFFFFF" d="M161.077,343.517c-0.007-0.604,0.144-1.199,0.435-1.729
	c0.451-1.38,0.521-2.855,0.206-4.272c-0.2-1.292-0.717-2.537-0.885-3.83c-0.295-1.847-0.255-3.73,0.12-5.562
	c0.277-1.299,0.312-2.637,0.1-3.946c-0.008-0.054-0.064-0.101-0.1-0.149c-0.061,0.077-0.176,0.154-0.174,0.229
	c-0.125,0.755-0.162,1.521-0.112,2.283c0.084,0.354-0.2,0.789-0.293,1.193c-0.622,2.518-0.571,5.155,0.147,7.648
	c0.369,1.629,0.629,3.281,0.778,4.945c-0.006,0.114-0.035,0.227-0.086,0.328c-0.36,1.572-0.974,3.076-1.813,4.453
	c-0.074,0.16-0.111,0.334-0.111,0.509c-0.008,0.052,0.035,0.109,0.059,0.163c0.064,0.148,0.178,0.174,0.276,0.035
	c0.538-0.566,0.937-1.252,1.163-2c0.023-0.135,0.223-0.239,0.341-0.357L161.077,343.517z"/>
<path id="Path_1526-3" fill="#FFFFFF" d="M156.069,330.637c0.035-0.211,0.079-0.566,0.155-0.914c0.188-1.004,0.219-2.03,0.091-3.044
	c-0.006-0.066-0.17-0.163-0.263-0.166c-0.093-0.003-0.27,0.086-0.274,0.145c-0.083,0.775-0.119,1.555-0.111,2.334
	c-0.103,0.763-0.132,1.533-0.086,2.301c0.061,0.719,0.084,1.439,0.071,2.16c0.1,1.436,0.416,2.847,0.937,4.187
	c0.708,1.647,1.142,3.4,1.281,5.188c0.006,0.066,0.155,0.183,0.213,0.17c0.114-0.029,0.214-0.102,0.279-0.2
	c0.261-0.548,0.278-1.181,0.05-1.743c-0.352-1.203-0.713-2.403-1.086-3.6c-0.16-0.514-0.379-1.008-0.538-1.521
	c-0.273-0.857-0.425-1.749-0.452-2.647c-0.021-0.832-0.163-1.66-0.268-2.639"/>
<path id="Path_1527-3" fill="#FFFFFF" d="M162.586,325.985c0.019-0.3,0.017-0.6-0.006-0.9c-0.098-1.316,0.055-2.64,0.449-3.899
	c0.097-0.216,0.174-0.44,0.23-0.67c0.255-2.568,0.377-5.147,0.367-7.728c-0.011-0.168-0.021-0.394-0.243-0.348
	c-0.167,0.057-0.301,0.182-0.368,0.344c-0.07,0.227-0.105,0.463-0.1,0.7c-0.02,0.963-0.025,1.926-0.037,2.89
	c0.08,0.659,0,1.328-0.234,1.95c-0.072,0.167-0.098,0.351-0.069,0.53c0.041,1.492-0.166,2.981-0.613,4.406
	c-0.082,0.471-0.106,0.949-0.071,1.426c0.02,0.35,0.301,0.747,0.201,1.027c-0.085,0.387-0.126,0.781-0.123,1.177
	c-0.08,0.714-0.113,1.433-0.101,2.151c0,0.082,0.156,0.244,0.206,0.232c0.154-0.037,0.413-0.133,0.42-0.221
	c0.073-1.02,0.107-2.044,0.15-3.066h-0.057"/>
<path id="Path_1528-3" fill="#FFFFFF" d="M157.535,345.526c-0.017-0.396-0.08-0.787-0.188-1.166
	c-0.19-0.571-0.278-1.171-0.259-1.771c-0.102-1.371-0.374-2.725-0.81-4.028c-0.103-0.28-0.252-0.542-0.441-0.774
	c-0.093-0.072-0.216-0.092-0.328-0.053c-0.088,0.068-0.142,0.174-0.145,0.285c0.008,0.117,0.042,0.232,0.1,0.335
	c0.509,1.092,0.699,2.306,0.547,3.5c-0.028,0.418,0.024,0.838,0.153,1.236c0.567,1.913-0.413,3.944-2.264,4.692
	c-0.17,0.053-0.343,0.098-0.519,0.131c-0.053,0.017-0.094,0.074-0.141,0.111c0.1,0.053,0.2,0.154,0.3,0.148
	c0.354,0,0.708-0.045,1.051-0.133c0.698-0.226,1.282-0.711,1.632-1.354c0.275-0.494,0.473-0.834,1.046-0.385
	c0.022,0.017,0.206-0.093,0.224-0.166c0.032-0.202,0.047-0.407,0.045-0.612"/>
<path id="Path_1529-3" fill="#FFFFFF" d="M150.568,333.778c0-0.43,0-1.029-0.005-1.63c0-0.046-0.074-0.091-0.114-0.136
	c-0.068,0.068-0.192,0.133-0.2,0.199c-0.032,0.601-0.044,1.201-0.059,1.807c0.049,0.358,0.037,0.723-0.036,1.076
	c-0.35,0.842-0.228,1.768-0.584,2.619c-0.216,0.556-0.461,1.1-0.735,1.63c-0.445,0.978-0.977,1.915-1.587,2.8
	c-1.045,1.288-2.019,2.734-3.8,3.174c-0.172,0.054-0.339,0.121-0.5,0.2c-0.449,0.19-0.791,0.552-0.651,0.688
	c0.312,0.301,0.541-0.025,0.794-0.125c0.391-0.152,0.777-0.316,1.159-0.49c0.609-0.26,1.155-0.648,1.6-1.139
	c0.4-0.453,0.837-0.866,1.252-1.3c0.185-0.155,0.34-0.342,0.461-0.551c0.484-1.172,1.265-2.173,1.851-3.284
	c0.907-1.699,1.304-3.623,1.144-5.543"/>
<path id="Path_1530-3" fill="#FFFFFF" d="M160.148,347.91c0.069,0.109,0.106,0.242,0.182,0.27c0.341,0.128,0.721,0.101,1.04-0.075
	c1.723-0.868,3.146-2.233,4.083-3.919c0.231-0.483,0.414-0.989,0.547-1.508c-0.002-0.099-0.057-0.188-0.143-0.236
	c-0.113-0.021-0.23,0.01-0.318,0.085c-0.305,0.366-0.586,0.75-0.845,1.15c-0.513,0.881-1.188,1.656-1.989,2.287
	c-0.72,0.535-1.466,1.035-2.191,1.563C160.38,347.643,160.258,347.771,160.148,347.91"/>
<path id="Path_1531-3" fill="#FFFFFF" d="M164.721,290.892c0.021-0.239,0.029-0.48,0.022-0.721c-0.006-0.09-0.117-0.178-0.194-0.254
	c-0.012-0.012-0.115,0.043-0.148,0.086c-0.695,0.98-1.208,2.077-1.516,3.238c-0.423,1.368-0.813,2.748-1.182,4.131
	c-0.182,0.684-0.288,1.387-0.42,2.082c-0.005,0.027,0.085,0.105,0.126,0.101c0.108-0.011,0.272-0.019,0.31-0.084
	c0.387-0.877,0.66-1.8,0.813-2.745c0.356-1.331,0.682-2.671,1.147-3.968c0.152-0.425,0.221-0.941,0.709-1.181l-0.043,0.049
	c0.063-0.301,0.008-0.653,0.399-0.774L164.721,290.892z"/>
<path id="Path_1532-3" fill="#FFFFFF" d="M153.082,295.403c0.043,0.354,0.072,0.71,0.141,1.059c0.013,0.065,0.186,0.144,0.28,0.137
	c0.094-0.007,0.256-0.1,0.261-0.172c0.047-0.479,0.06-0.962,0.039-1.443c-0.057-0.856,0.284-1.691,0.925-2.262
	c0.559-0.635,1.239-1.152,2-1.521c0.205-0.113,0.392-0.258,0.555-0.428c0.023-0.042,0.023-0.093,0-0.135
	c-0.032-0.046-0.1-0.105-0.142-0.1c-0.233-0.012-0.466,0.03-0.68,0.125c-0.72,0.543-1.429,1.104-2.1,1.709
	c-0.97,0.684-1.469,1.858-1.288,3.031"/>
<path id="Path_1533-3" fill="#FFFFFF" d="M164.344,333.85c0.045,0.416,0.111,0.83,0.2,1.239c0.292,0.99,0.177,2.057-0.321,2.961
	c-0.104,0.21-0.172,0.437-0.199,0.67c-0.016,0.1,0.088,0.21,0.137,0.316c0.055-0.021,0.105-0.051,0.15-0.088
	c0.956-1.032,1.324-2.479,0.979-3.842c-0.136-0.828-0.204-1.668-0.205-2.508c-0.035-0.095-0.119-0.164-0.219-0.182
	c-0.115,0.033-0.215,0.104-0.285,0.199c-0.078,0.092-0.128,0.203-0.145,0.322c-0.019,0.301-0.006,0.6-0.006,0.9l-0.084,0.008"/>
<path id="Path_1534-3" fill="#FFFFFF" d="M153.508,265.131c-0.132,0.094-0.379,0.188-0.378,0.28
	c-0.111,1.011-0.036,2.032,0.221,3.016c0.235,0.607-0.111,1.326,0.365,1.9c0.057,0.068-0.121,0.306-0.138,0.469
	c-0.041,0.41-0.055,0.824-0.069,1.238c0,0.049,0.054,0.108,0.1,0.146c0.039,0.011,0.08,0.002,0.11-0.024
	c0.356-0.688,0.712-1.375,1.051-2.07c0.024-0.051-0.077-0.231-0.137-0.24c-0.609-0.1-0.77-0.521-0.749-1.039
	c-0.064-1.248-0.205-2.49-0.423-3.72L153.508,265.131z"/>
<path id="Path_1535-3" fill="#FFFFFF" d="M169.095,288.749c-0.1,0.049-0.249,0.069-0.3,0.151c-0.634,1.019-1.253,2.045-1.879,3.068
	c-0.313,0.513-0.63,1.023-0.95,1.532c-0.175,0.321-0.222,0.696-0.134,1.051c0.008,0.054,0.066,0.145,0.1,0.142
	c0.1-0.008,0.258-0.024,0.28-0.083c0.769-1.973,2.212-3.57,3.047-5.5c0.025-0.099,0.022-0.203-0.01-0.3
	c-0.006-0.028-0.101-0.038-0.151-0.056"/>
<path id="Path_1536-3" fill="#FFFFFF" d="M155.92,289.402c-0.273,0.001-0.544,0.052-0.8,0.149c-1.78,1.03-3.204,2.577-4.085,4.436
	c-0.039,0.082,0.04,0.221,0.065,0.334c0.091-0.046,0.215-0.067,0.267-0.14c0.35-0.485,0.685-0.981,1.025-1.474
	c0.9-1.131,1.981-2.104,3.2-2.881c0.13-0.1,0.348-0.071,0.522-0.116c0.054-0.015,0.1-0.069,0.146-0.101l-0.332-0.199"/>
<path id="Path_1537-3" fill="#FFFFFF" d="M161.484,292.131c0.088,0.06,0.18,0.11,0.275,0.155c0.06,0.012,0.121,0,0.174-0.031
	c0.053-0.027,0.094-0.073,0.117-0.129c0.438-1.359,1.098-2.637,1.955-3.779c0.095-0.152,0.169-0.316,0.221-0.488
	c0.014-0.036-0.017-0.128-0.043-0.135c-0.106-0.03-0.283-0.091-0.322-0.045c-0.428,0.5-0.834,1.013-1.248,1.522
	c-0.574,0.828-0.967,1.769-1.153,2.759C161.457,292.019,161.465,292.077,161.484,292.131"/>
<path id="Path_1538-3" fill="#FFFFFF" d="M161.129,343.46c-0.012,0.117-0.007,0.236,0.014,0.354
	c0.027,0.093,0.146,0.248,0.181,0.238c1.5-0.478,2.7-2.346,2.28-3.6c-0.059-0.095-0.158-0.155-0.27-0.164
	c-0.113,0.001-0.222,0.049-0.3,0.131c-0.066,0.096-0.11,0.206-0.13,0.322c-0.047,0.17-0.07,0.349-0.119,0.519
	c-0.063,0.466-0.209,0.916-0.432,1.33c-0.381,0.368-0.813,0.68-1.283,0.927L161.129,343.46z"/>
<path id="Path_1539-3" fill="#FFFFFF" d="M177.826,344.239c-0.719,0.033-1.437-0.063-2.121-0.282
	c-0.137-0.06-0.297,0.003-0.357,0.14c-0.013,0.03-0.02,0.063-0.021,0.096c-0.037,0.25,0.158,0.299,0.33,0.325
	c1.065,0.153,2.094,0.503,3.031,1.032c0.5,0.341,1.098,0.508,1.701,0.473c0.086-0.013,0.16-0.123,0.231-0.199
	c-0.023-0.054-0.062-0.099-0.109-0.131c-0.806-0.386-1.618-0.756-2.419-1.152c-0.137-0.068-0.223-0.24-0.332-0.364l0.068,0.06"/>
<path id="Path_1540-3" fill="#FFFFFF" d="M164.391,291.579c0,0.538,0,1.076,0,1.615c0,0.053,0.072,0.15,0.09,0.146
	c0.108-0.014,0.209-0.058,0.293-0.127c0.123-0.133,0.208-0.296,0.246-0.473c0.141-1.267,0.758-2.433,1.728-3.261
	c0.175-0.165,0.331-0.349,0.466-0.548c0.047-0.105,0.051-0.225,0.01-0.333c-0.053-0.154-0.164-0.152-0.281-0.028
	c-0.74,0.775-1.482,1.549-2.225,2.321l0.031-0.038c-0.085,0.284,0.009,0.662-0.4,0.774L164.391,291.579z"/>
<path id="Path_1541-3" fill="#FFFFFF" d="M156.318,321.721c0-0.772,0-1.544,0-2.316c0-0.049-0.065-0.1-0.1-0.146
	c-0.043,0.035-0.112,0.062-0.124,0.1c-0.177,0.496-0.304,1.008-0.377,1.529c-0.055,1.013-0.007,2.031,0,3.047
	c0.004,0.059,0.032,0.114,0.079,0.15c0.085,0.071,0.19,0.115,0.3,0.127c0.092-0.009,0.25-0.11,0.252-0.174
	c0.017-0.773,0.011-1.548,0.011-2.322h-0.041"/>
<path id="Path_1542-3" fill="#FFFFFF" d="M163.663,335.606c0.027-0.582-0.116-1.16-0.411-1.664
	c-0.078-0.078-0.175-0.136-0.281-0.166c-0.139-0.061-0.339,0.126-0.35,0.323c-0.04,0.176-0.043,0.358-0.01,0.535
	c0.406,0.88,0.387,1.897-0.055,2.761c-0.033,0.116-0.033,0.238,0,0.354c0.008,0.053,0.066,0.135,0.104,0.136
	c0.1,0,0.247,0.007,0.3-0.054c0.523-0.617,0.775-1.419,0.7-2.225"/>
<path id="Path_1543-3" fill="#FFFFFF" d="M153.843,299.905c-0.014,0.113-0.014,0.228,0,0.34c0.287,1.281,0.713,2.527,1.271,3.715
	c0.047,0.101,0.178,0.153,0.279,0.216c0.044,0.022,0.097,0.022,0.141,0c0.051-0.032,0.089-0.083,0.105-0.142
	c0.035-0.115,0.037-0.236,0.008-0.352c-0.608-1.239-0.96-2.573-1.458-3.852c-0.021-0.056-0.157-0.078-0.243-0.086
	c-0.027,0-0.063,0.093-0.107,0.162"/>
<path id="Path_1544-3" fill="#FFFFFF" d="M151.891,330.988c0.062,0.753-0.054,1.511-0.338,2.21c-0.086,0.148-0.153,0.307-0.2,0.473
	c0.007,0.113,0.07,0.217,0.168,0.276c0.086,0.046,0.286,0.04,0.322-0.016c0.208-0.29,0.379-0.604,0.51-0.937
	c0.113-0.334,0.057-0.734,0.195-1.054c0.263-0.606-0.12-1.024-0.328-1.5c-0.009-0.021-0.114-0.008-0.172,0
	c-0.058,0.009-0.148,0.034-0.15,0.058c-0.014,0.162-0.007,0.324-0.007,0.487"/>
<path id="Path_1545-3" fill="#FFFFFF" d="M155.637,314.403c0.037,0.391,0.107,0.778,0.21,1.157c0.153,0.396,0.139,0.838-0.038,1.224
	c-0.013,0.03,0.13,0.145,0.214,0.2c0.044,0.028,0.159,0.029,0.172,0.005c0.167-0.313,0.48-0.65,0.449-0.947
	c-0.11-0.765-0.274-1.52-0.492-2.261c-0.023-0.093-0.176-0.153-0.268-0.228c-0.062,0.076-0.157,0.145-0.178,0.23
	c-0.036,0.206-0.058,0.414-0.068,0.622"/>
<path id="Path_1546-3" fill="#FFFFFF" d="M154.295,280.579c0.098,0.039,0.198,0.07,0.3,0.095c0.058,0.006,0.115-0.015,0.155-0.056
	c0.537-0.781,1.074-1.562,1.594-2.354c0.048-0.073,0-0.221-0.027-0.326s-0.37-0.143-0.471-0.031c-0.726,0.697-1.274,1.559-1.6,2.512
	c-0.012,0.045,0.029,0.105,0.044,0.16"/>
<path id="Path_1547-3" fill="#FFFFFF" d="M150.924,320.186c0.018,0.36,0.029,0.539,0.036,0.718c0.021,0.574,0.2,0.9,0.43,0.795
	c0.362-0.16,0.268-0.483,0.269-0.755c0-0.716-0.017-1.432-0.046-2.147c0-0.067-0.144-0.19-0.2-0.182
	c-0.1,0.017-0.269,0.101-0.283,0.183c-0.094,0.519-0.154,1.044-0.2,1.388"/>
<path id="Path_1548-3" fill="#FFFFFF" d="M150.633,266.145c0.092-0.052,0.224-0.084,0.266-0.163c0.053-0.107,0.062-0.23,0.025-0.344
	c-0.253-0.792-0.638-1.536-1.138-2.2c-0.042-0.036-0.092-0.063-0.146-0.076c-0.061,0.101-0.169,0.212-0.155,0.3
	c0.141,0.879,0.474,1.714,0.976,2.447c0.022,0.033,0.112,0.021,0.171,0.031"/>
<path id="Path_1549-3" fill="#FFFFFF" d="M152.087,326.71c-0.048-0.56-0.086-1.027-0.132-1.495
	c-0.015-0.052-0.046-0.098-0.088-0.132c-0.1,0.052-0.245,0.092-0.29,0.18c-0.107,0.204-0.184,0.422-0.23,0.648
	c-0.039,0.587,0.051,1.176,0.263,1.726c0.072,0.3-0.188,0.7,0.274,0.875c0.285-0.291,0.19-0.659,0.2-1c0.008-0.3,0-0.591,0-0.8"/>
<path id="Path_1550-3" fill="#FFFFFF" d="M161.189,349.534c0.047,0.041,0.099,0.078,0.153,0.107
	c0.055,0.021,0.112,0.031,0.171,0.028c1.004-0.11,1.951-0.515,2.725-1.164c0.042-0.036,0.063-0.092,0.056-0.147
	c-0.032-0.051-0.087-0.084-0.147-0.089c-0.23-0.011-0.463,0.015-0.687,0.077c-0.715,0.295-1.416,0.624-2.116,0.953
	C161.271,349.334,161.244,349.455,161.189,349.534"/>
<path id="Path_1551-3" fill="#FFFFFF" d="M150.243,261.094c-0.005,0.235-0.027,0.473-0.009,0.708
	c0.031,0.11,0.081,0.215,0.148,0.308c0.037-0.041,0.077-0.08,0.111-0.123c0.713-0.778,1.229-1.718,1.505-2.737
	c0.01-0.039-0.043-0.106-0.085-0.139s-0.114-0.025-0.128-0.005c-0.285,0.371-0.545,0.76-0.781,1.164
	c-0.2,0.375-0.365,0.743-0.809,0.877L150.243,261.094z"/>
<path id="Path_1552-3" fill="#FFFFFF" d="M157.564,292.413c-0.061-0.011-0.124-0.011-0.185,0c-0.548,0.246-0.996,0.673-1.267,1.209
	c-0.089,0.279-0.125,0.573-0.106,0.865c0,0.047,0.044,0.106,0.083,0.146c0.034,0.028,0.075,0.049,0.118,0.059
	c0.452-0.761,1.251-1.285,1.489-2.188c0.005-0.021-0.09-0.066-0.131-0.096"/>
<path id="Path_1553-3" fill="#FFFFFF" d="M160.328,304.895l0.227,0.345c0.049-0.032,0.096-0.07,0.137-0.113
	c0.527-0.694,0.393-1.601,0.734-2.353c0.113-0.25-0.055-0.627-0.176-0.558c-0.146,0.084-0.341,0.199-0.378,0.344
	C160.663,303.353,160.495,304.159,160.328,304.895"/>
<path id="Path_1554-3" fill="#FFFFFF" d="M161.809,332.499c0.004,0.188,0.02,0.374,0.049,0.56c0.015,0.083,0.181,0.218,0.24,0.2
	c0.151-0.043,0.4-0.156,0.4-0.245c0.01-0.597-0.02-1.192-0.087-1.785c-0.013-0.113-0.271-0.2-0.416-0.3
	c-0.059,0.104-0.108,0.211-0.147,0.322c-0.024,0.119-0.037,0.238-0.037,0.359c0,0.061,0,0.121,0,0.182v0.699"/>
<path id="Path_1555-3" fill="#FFFFFF" d="M155.331,275.601c-0.078,0.22-0.092,0.542-0.247,0.643c-0.386,0.29-0.685,0.68-0.867,1.127
	c-0.106,0.199,0.008,0.707,0.123,0.656c0.159-0.06,0.3-0.159,0.409-0.289c0.319-0.436,0.606-0.893,0.86-1.369
	c0.128-0.235,0.042-0.53-0.194-0.659c-0.042-0.022-0.089-0.04-0.137-0.05L155.331,275.601z"/>
<path id="Path_1556-3" fill="#FFFFFF" d="M149.111,273.073c0.238,0.018,0.5,0.07,0.649-0.181c0.273-0.467,0.534-0.938,0.781-1.414
	c0.039-0.105,0.027-0.224-0.031-0.319c-0.032-0.047-0.217-0.052-0.285,0c-0.642,0.451-1.038,1.175-1.072,1.959L149.111,273.073z"/>
<path id="Path_1557-3" fill="#FFFFFF" d="M155.278,275.659c-0.037-0.109-0.087-0.215-0.149-0.312
	c-0.226-0.28-0.476-0.558-0.887-0.444c-0.417,0.101-0.711,0.472-0.715,0.9c0.02,0.159,0.068,0.314,0.141,0.457
	c0.098-0.064,0.191-0.137,0.28-0.214c0.091-0.076,0.164-0.173,0.212-0.281c0.12-0.399,0.343-0.363,0.653-0.218
	c0.169,0.045,0.344,0.061,0.518,0.048L155.278,275.659z"/>
<path id="Path_1558-3" fill="#FFFFFF" d="M155.262,298.372c0.04,0.244,0.064,0.416,0.1,0.586c0.009,0.059,0.041,0.111,0.088,0.146
	c0.033,0.016,0.107-0.023,0.148-0.056c0.505-0.4,0.388-1.03,0.578-1.548c0.006-0.016-0.079-0.075-0.129-0.1
	c-0.191-0.094-0.563,0.018-0.611,0.195c-0.075,0.275-0.126,0.559-0.173,0.777"/>
<path id="Path_1559-3" fill="#FFFFFF" d="M149.879,268.421c-0.06,0-0.132-0.03-0.177-0.006c-0.551,0.295-0.785,0.962-0.537,1.535
	c0.022,0.053,0.079,0.09,0.121,0.133c0.285-0.377,0.579-0.746,0.848-1.134c0.055-0.105,0.06-0.229,0.013-0.34
	C150.107,268.523,149.972,268.481,149.879,268.421"/>
<path id="Path_1560-3" fill="#FFFFFF" d="M177.3,279.411c-0.051,0-0.12-0.021-0.147,0c-0.258,0.241-0.52,0.479-0.754,0.742
	c-0.055,0.063-0.037,0.223,0,0.322c0.053,0.161,0.15,0.152,0.281,0.044c0.317-0.267,0.663-0.509,0.706-0.97
	c0-0.045-0.055-0.101-0.081-0.142"/>
<path id="Path_1561-3" fill="#FFFFFF" d="M152.449,264.091c0.139,0.139,0.244,0.275,0.268,0.264
	c0.141-0.067,0.265-0.165,0.362-0.287c0.039-0.056-0.045-0.199-0.074-0.3L152.449,264.091"/>
<path id="Path_1562-3" fill="#FFFFFF" d="M166.926,285.085c-0.279,0.022-0.355,0.199-0.339,0.447
	c0.013,0.05,0.041,0.095,0.081,0.127c0.073-0.028,0.188-0.066,0.2-0.119c0.021-0.162,0.028-0.326,0.024-0.489L166.926,285.085z"/>
<path id="Path_1563-3" fill="#FFFFFF" d="M156.04,274.887l0.234,0.3l0.1-0.289l0.023,0.025l-0.4,0.014l0.042-0.047"/>
<path id="Path_1564-3" fill="#FFFFFF" d="M164.352,306.135l-0.131-0.265c-0.174,0.254,0.066,0.187,0.172,0.223L164.352,306.135"/>
<path id="Path_1565-3" fill="#FFFFFF" d="M185.952,346.316l0.1-0.1c-0.038-0.03-0.077-0.087-0.112-0.083s-0.073,0.061-0.11,0.095
	l0.125,0.093"/>
<path id="Path_1566-3" fill="#FFFFFF" d="M168.743,346.771l-0.284,0.135l0.1,0.123l0.15-0.293L168.743,346.771"/>
<path id="Path_1567-3" fill="#FFFFFF" d="M150.968,347.86l-0.276,0.12c0.256,0.2,0.184-0.069,0.235-0.163L150.968,347.86"/>
<path id="Path_1729-3" fill="#FFFFFF" d="M124.524,72.83c1.251,0.19,2.446-0.59,2.775-1.812c0.03-0.08-0.068-0.209-0.107-0.315
	c-0.056,0.018-0.109,0.042-0.159,0.073c-0.096,0.067-0.182,0.148-0.256,0.239c-0.592,0.914-1.62,1.45-2.708,1.413
	c-0.1,0-0.192,0.117-0.288,0.18c0.086,0.075,0.185,0.136,0.29,0.18c0.15,0.027,0.301,0.042,0.453,0.044"/>
<path id="Path_1730-3" fill="#FFFFFF" d="M117.921,69.359c-0.047,0.9,0.309,1.775,0.971,2.387c0.083,0.082,0.183,0.192,0.284,0.2
	c0.16,0.013,0.321-0.017,0.466-0.086c0.053-0.097,0.055-0.214,0.007-0.314c-0.64-0.619-1.114-1.389-1.378-2.239
	c-0.037-0.121,0.006-0.367-0.244-0.268c-0.067,0.027-0.073,0.207-0.106,0.318"/>
<path id="Path_1731-3" fill="#FFFFFF" d="M117.582,66.605c0.105,0.207,0.223,0.407,0.352,0.6c0.082,0.037,0.176,0.037,0.258,0
	c0.156-0.438,0.294-0.883,0.427-1.329c0.012-0.041-0.033-0.138-0.064-0.144c-0.094-0.017-0.24-0.043-0.283,0.007
	c-0.259,0.3-0.495,0.62-0.739,0.934L117.582,66.605z"/>
<path id="Path_1732-3" fill="#FFFFFF" d="M149.145,257.143c0.405-0.06,0.548-0.372,0.642-0.706c0.024-0.085-0.065-0.2-0.1-0.3
	c-0.05,0.026-0.098,0.056-0.143,0.09c-0.294,0.196-0.458,0.536-0.429,0.889L149.145,257.143z"/>
<path id="Path_1733-3" fill="#FFFFFF" d="M151.641,253.169c0.453-0.1,0.391-0.469,0.417-0.793
	C151.651,252.499,151.663,252.844,151.641,253.169"/>
<path id="Path_1734-3" fill="#FFFFFF" d="M148.429,251.344l-0.269,0.118c0.267,0.207,0.176-0.074,0.224-0.164L148.429,251.344z"/>
<path id="Path_1735-3" fill="#FFFFFF" d="M152.01,255.655l0.271-0.107l-0.131-0.144l-0.1,0.291L152.01,255.655z"/>
<path id="Path_1760-3" fill="#FFFFFF" d="M299.01,192.884c-0.234-0.01-0.326-0.161-0.363-0.367
	c-0.109-0.049-0.222-0.091-0.336-0.124c-0.1-0.021-0.201-0.021-0.301,0c-0.025,0-0.06,0.112-0.044,0.157
	c0.075,0.225,0.164,0.443,0.267,0.656c0.553,1.022,0.521,2.262-0.082,3.256c-0.297,0.584-0.689,1.114-1.164,1.567
	c-0.139,0.13-0.131,0.211,0.056,0.245c0.112,0.021,0.271,0.063,0.34,0.007c0.298-0.198,0.564-0.441,0.789-0.721
	c0.833-0.961,1.247-2.216,1.149-3.483c-0.067-0.408-0.45-0.731-0.314-1.191"/>
<path id="Path_1839-3" fill="#FFFFFF" d="M291.337,188.887c0.065,0.091,0.111,0.227,0.2,0.264c0.486,0.188,1.026,0.19,1.515,0.006
	c0.077-0.024,0.113-0.178,0.169-0.271h-1.882"/>
<path fill="#FFFFFF" d="M314.52,163.875c-0.869,2.82-3.069,5.03-5.89,5.91c-1.51,0.34-3.09,0.319-4.59-0.07
	c-0.51-0.16-0.521-0.14-0.72,0.44c-0.12,0.34-0.24,0.67-0.351,1.02c-0.05,0.24,0.101,0.48,0.34,0.54c0.65,0.09,1.29,0.24,1.921,0.45
	c0.579,0.32,1.119,0.7,1.619,1.13c0.851,0.67,1.771,1.25,2.75,1.73c0.2,0.119,0.391,0.279,0.54,0.47
	c0.021,0.03,0.03,0.06,0.051,0.09c0.069,0.2-0.03,0.41-0.23,0.48c-0.1,0.039-0.25,0.039-0.33,0.119c-0.38,0.37-0.75-0.09-1.18,0.03
	c-1.38,0.45-2.82,0.65-4.26,0.601c-0.061-0.011-0.141-0.03-0.181,0c-0.08,0.06-0.2,0.18-0.18,0.229c0.28,0.73,0.59,1.44,0.88,2.17
	c0.33,0.64,0.57,1.32,0.73,2.021c0.09,0.77,0.369,1.51,0.81,2.159c0.22,0.29,0.38,0.61,0.5,0.95c0.19,0.75,0.73,1.41,0.59,2.24
	c-0.01,0.07-0.17,0.2-0.2,0.2c-0.85-0.49-1.81-0.71-2.779-0.641c-0.63-0.39-1.45-0.149-2.061-0.63c-0.609-0.47-1.319-0.85-1.88-1.37
	c-0.55-0.569-1.31-0.859-2.09-0.819c-0.36-0.03-0.71-0.141-1.01-0.33c-0.75-0.38-1.471-0.82-2.2-1.23
	c-0.42-0.239-0.47-0.199-0.48,0.34c-0.01,0.311-0.01,0.61,0,0.91c0.021,1.57-0.79,2.86-1.42,4.221c-0.37,0.81-1.2,0.949-1.819,1.399
	c-0.19,0.141-0.391,0.28-0.591,0.42c-0.25,0.16-0.609,0.25-0.75,0.471c-0.239,0.42,0.301,0.56,0.46,0.85
	c0.16,0.25,0.341,0.5,0.551,0.72c0.16,0.19,0.55,0.141,0.569-0.09c0.021-0.43,0.23-0.82,0.57-1.08c0.61-0.49,1.2-1.01,1.8-1.51
	c0.561-0.46,1.26-0.71,1.99-0.72c1.14-0.04,2.27,0.06,3.39,0.29c1.011,0.17,1.94,0.659,2.66,1.38c1.17,1.3,2.271,2.66,3.28,4.09
	c0.06,0.08,0.1,0.17,0.12,0.27c0.05,0.341-0.181,0.66-0.51,0.71c-1.131,0.19-2.261,0.33-3.381,0.53
	c-0.229,0.04-0.439,0.17-0.59,0.351c-0.239,0.38,0.221,0.289,0.351,0.42c0.25,0.26,0.56,0.479,0.779,0.75
	c1.58,2.06,2.61,4.479,3.021,7.04v0.04c0.01,0.229-0.17,0.439-0.41,0.449c-0.24,0.011-0.479-0.01-0.72-0.06
	c-1.86-0.54-3.51-1.66-4.7-3.2c-0.58-0.689-0.95-1.55-1.06-2.45c-0.07-0.72-0.211-1.42-0.421-2.109
	c-0.079-0.49-0.449-0.87-0.939-0.96c-0.64-0.16-1.25-0.391-1.84-0.69c-0.261-0.15-0.511-0.31-0.761-0.49
	c-0.069-0.04-0.18-0.01-0.279-0.01c-0.021,0.12-0.01,0.23,0.01,0.34c0.46,0.98,0.69,2.061,0.66,3.15
	c-0.021,0.84-0.15,1.67-0.42,2.47c-0.33,1.21-0.84,2.38-1.49,3.45c-0.5,0.689-0.75,1.53-0.71,2.38c0,0.24-0.05,0.48-0.14,0.7
	c-0.091,0.27-0.561,0.43-0.75,0.25c-0.601-0.59-1.17-1.21-1.801-1.78c-0.84-0.78-1.51-1.729-1.979-2.78
	c-0.271-0.529-0.41-1.13-0.4-1.729c0.04-0.97,0.11-1.94,0.09-2.9c0.021-0.649,0.091-1.3,0.221-1.95
	c0.14-0.699,0.489-1.35,0.989-1.859c0.19-0.23,0.29-0.53,0.461-0.78c0.17-0.24,0.359-0.46,0.56-0.67c0.25-0.26,0.66-0.44,0.76-0.74
	c0.141-0.439-0.49-0.38-0.649-0.68c-0.051-0.1-0.12-0.2-0.19-0.3c-0.67-1.24-1.86-2.101-3.24-2.351c-1-0.18-1.989-0.39-2.979-0.58
	c-0.07-0.01-0.13-0.01-0.19,0c-0.47,0.011-0.72,0.25-0.83,0.771c-0.1,0.53-0.069,0.59,0.61,0.83c1.53,0.53,2.57,1.939,2.64,3.55
	c0.05,0.66,0.03,1.33-0.06,1.99c-0.141,1.68-0.73,3.3-1.72,4.67c-0.19,0.229-0.391,0.439-0.62,0.63
	c-0.351,0.36-0.931,0.38-1.32,0.05c-0.47-0.359-0.95-0.72-1.43-1.09c-0.141-0.1-0.21-0.07-0.24,0.11
	c-0.22,0.659,0.06,1.38,0.68,1.71c0.65,0.31,1.23,0.779,1.67,1.35c1.86,2.1,2.83,4.83,2.71,7.63c-0.029,0.44-0.229,0.67-0.67,0.67
	c-0.66,0.011-1.33-0.02-1.989-0.01c-0.061,0-0.181,0.18-0.16,0.23c0.689,2.05,0.06,4.05-0.24,6.06c-0.061,0.23-0.15,0.46-0.271,0.67
	c-0.01,0.021-0.02,0.03-0.029,0.05c-0.11,0.2-0.36,0.271-0.57,0.16c-0.31-0.18-0.59-0.41-0.91-0.58c-0.91-0.58-1.87-1.08-2.87-1.49
	c-1.55-0.529-2.91-1.489-3.93-2.76c-0.61-0.74-1.15-1.54-1.59-2.399c-0.44-0.65-0.641-1.44-0.58-2.221
	c0.03-0.199,0.38-0.42,0.03-0.59c-0.221-0.08-0.471-0.1-0.7-0.04c-0.41,0.08-0.8,0.22-1.2,0.34c-0.04,0.011-0.07,0.021-0.1,0.04
	c-0.24,0.13-0.33,0.431-0.2,0.66c0.39,0.54,0.71,1.12,0.95,1.73c0.39,1.199,0.529,2.47,0.43,3.739c-0.23,1.79-0.74,3.41-2.48,4.351
	c-0.319,0.17-0.609,0.39-0.909,0.59c-0.32-0.25-0.641-0.51-0.971-0.76c-0.27-0.23-0.569-0.44-0.89-0.601
	c-0.67-0.29-1.2-0.83-1.49-1.5c-0.319-0.58-0.52-1.22-0.59-1.88c-0.11-0.81-0.17-1.63-0.17-2.45c0.12-1.01,0.29-2.01,0.52-3
	c0.131-0.899,0.601-1.72,1.311-2.29c0.14-0.109,0.229-0.279,0.04-0.439c-0.641-0.54-1.271-1.09-1.92-1.62
	c-0.3-0.26-0.58-0.2-0.7,0.12c-0.14,0.33-0.26,0.67-0.36,1.02c-0.41,1.591-1.34,2.99-2.64,3.99c-0.36,0.32-0.84,0.46-1.1,0.91
	c-0.271,0.45-0.86,0.37-1.2-0.05c-0.07-0.09-0.09-0.2-0.061-0.3c0.19-0.24,0.2-0.58,0.04-0.841c-0.42-0.729-0.779-1.489-1.2-2.22
	c-0.5-0.75-0.77-1.63-0.779-2.54c0.02-0.54-0.021-1.08-0.03-1.62c-0.01-0.29-0.18-0.42-0.46-0.43c-0.29-0.05-0.59-0.06-0.89-0.04
	c-0.66,0.09-1.301,0.21-1.94,0.38c-1.36,0.26-2.66,0.76-3.85,1.47c-0.391,0.271-0.84,0.46-1.261,0.69
	c-1.159,0.65-2.319,1.29-3.46,1.96c-0.51,0.31-1,0.66-1.47,1.05c-1.32,1.05-2.59,2.16-3.8,3.351c-0.7,0.75-1.6,1.3-2.59,1.58
	c-1.45,0.35-2.91,0.649-4.36,1.04c-0.75,0.199-1.49,0.42-2.22,0.68c-2.37,0.85-4.74,1.79-7.34,1.6c-0.24-0.029-0.48-0.01-0.721,0.05
	c-1.199,0.391-2.479,0.36-3.68,0.73c-0.74,0.22-1.53,0.31-2.31,0.27c-1.021,0.03-2.03,0.19-3,0.5c-0.67,0.07-1.261,0.471-1.58,1.061
	c-0.17,0.32-0.45,0.58-0.78,0.74c-0.9,0.59-1.84,1.1-2.83,1.54c-0.65,0.18-1.189,0.619-1.51,1.22c-0.891,1.43-1.99,2.729-3.271,3.84
	c-0.29,0.3-0.6,0.59-0.92,0.87c-0.479,0.45-0.88,1-1.16,1.6c-0.46,0.98-0.859,1.98-1.199,3.011c-0.44,1.359-0.99,2.699-1.63,3.989
	c-0.5,1.09-0.9,2.221-1.211,3.38c-0.529,1.341-0.779,2.78-0.729,4.221c0.09,1.21-0.2,2.42-0.82,3.46c-0.62,1.1-1.3,2.17-2,3.22
	c-0.43,0.74-1.06,1.34-1.81,1.75c-0.7,0.34-1.28,0.91-1.641,1.61c-0.289,0.529-0.619,1.029-1,1.5c-0.71,0.899-1.35,1.85-1.909,2.85
	c-1,1.64-2.091,3.24-3.11,4.87c-0.3,0.45-0.67,0.85-1.08,1.2c-1.16,1.06-2.29,2.149-3.42,3.229c-0.21,0.141-0.28,0.41-0.18,0.65
	c0.17,0.33,0.09,0.74-0.19,1c-0.97,1.52-1.59,3.229-1.82,5.02c-0.239,1.051-0.329,2.12-0.56,3.181c-0.3,1.04-0.46,2.12-0.5,3.199
	c0.04,1.391,0.04,2.78,0.06,4.171c-0.02,0.3,0.011,0.6,0.11,0.89c0.16,0.51,0.23,1.06,0.19,1.6c0.029,0.601,0.02,1.21,0.06,1.811
	c0.07,0.96,0.25,1.899,0.54,2.81s0.74,1.771,1.07,2.67c0.71,1.91,1.67,3.74,1.71,5.84c0,0.11,0.109,0.221,0.13,0.33
	c0.14,1.07,0.41,2.12,0.81,3.13c0.051,0.11,0.051,0.24,0.011,0.351c-0.21,0.57-0.08,1.2,0.329,1.64c0.65,0.95,1.261,1.9,1.98,2.8
	c0.59,0.75,1.27,1.431,2.02,2.021c1.131,0.729,2.021,1.77,2.561,3c0.5,1.25,1.56,2.18,2.86,2.54c0.229,0.05,0.47,0.09,0.71,0.11
	c0.449,0.109,0.6,0.42,0.47,0.979c-0.07,0.31-0.3,0.41-0.71,0.25c-0.51-0.19-1-0.39-1.5-0.61c-0.5-0.21-0.98-0.449-1.48-0.659
	c-0.229-0.101-0.449,0.029-0.569,0.3c-0.36,0.88-0.36,0.88-0.98,0.37c-0.27-0.25-0.55-0.471-0.85-0.67
	c-0.8-0.44-1.431-1.141-1.78-1.98c-0.12-0.27-0.28-0.52-0.46-0.76c-0.08-0.05-0.18-0.05-0.26-0.021c-0.15,0.2-0.25,0.42-0.311,0.65
	c-0.02,0.14,0.101,0.32,0.2,0.45c0.23,0.3,0.42,0.58,0.2,0.979c-0.03,0.11,0,0.221,0.07,0.3c0.649,0.96,1.649,1.62,2.79,1.83
	c0.119,0.011,0.27,0.03,0.329,0.11c0.091,0.13,0.19,0.33,0.15,0.45c-0.13,0.359-0.52,0.55-0.87,0.43c-1.63-0.51-2.43-1.89-3.34-3.16
	c-0.06-0.54-0.29-1.05-0.67-1.45c-0.23-0.409-0.521-0.789-0.87-1.109c-0.39-0.36-0.729-0.76-1.02-1.2
	c-0.061-0.07-0.24-0.15-0.28-0.11c-0.24,0.181-0.45,0.4-0.63,0.631c-0.17,0.239,0.13,0.26,0.239,0.359
	c0.601,0.59,1.23,1.16,1.801,1.78c0.25,0.33,0.47,0.68,0.63,1.07c0.03,0.06-0.04,0.25-0.12,0.3s-0.28,0.05-0.32,0
	c-0.54-0.721-1.399-1.13-1.85-1.95c-0.32-0.521-0.82-0.91-1.4-1.1c-0.09,0.01-0.18,0.05-0.22,0.13c-0.1,0.43-0.29,0.489-0.57,0.16
	c-0.38-0.471-0.88-0.83-1.45-1.051c-0.35-0.09-0.699-0.12-1.06-0.09c-0.07,0-0.17,0.16-0.19,0.26c0.011,0.11,0.051,0.21,0.12,0.301
	c0.03,0.04,0.091,0.069,0.15,0.069c1.1,0.08,2.11,0.62,2.79,1.49c0.53,0.58,1.1,1.12,1.65,1.68c0.479,0.551,1.159,0.891,1.89,0.94
	c0.36,0.06,0.7,0.17,1.02,0.32c0.28,0.1,0.32,0.33,0.28,0.59c-0.04,0.27-0.15,0.5-0.439,0.47c-0.82-0.1-1.65-0.24-2.461-0.37
	c-0.359-0.66-0.89-1.21-1.529-1.609c-0.04-0.03-0.09-0.04-0.13-0.021c-0.051,0.04-0.08,0.09-0.101,0.15
	c-0.08,0.37-0.25,0.47-0.63,0.31c-0.67-0.29-0.66-0.26-0.91,0.42c-0.16,0.44-0.39,0.87-0.59,1.3c0.4,0.32,0.82,0.641,1.22,0.971
	c0.04,0.05,0.07,0.1,0.101,0.149c-0.101,0.04-0.22,0.12-0.311,0.101c-0.17-0.051-0.33-0.12-0.489-0.21
	c-1.49-0.7-3.261-0.551-4.61,0.399c-0.34,0.21-0.7,0.391-1.05,0.58l-0.04-0.64c-0.48,0.2-0.95,0.42-1.44,0.609
	c-0.069,0.03-0.18-0.08-0.29-0.119c0.021-0.051,0.05-0.11,0.09-0.16c0.2-0.221,0.41-0.44,0.641-0.63
	c0.59-0.431,0.99-1.07,1.109-1.79c0.061-0.33,0.36-0.641,0.171-1.011c-0.11-0.21-0.28,0.011-0.58,0.88
	c-0.03,0.11-0.011,0.25-0.04,0.36c-0.091,0.311-0.21,0.33-0.511,0.09c-0.449-0.34-0.47-0.35-0.64,0.07
	c-0.43,1.14-1.17,2.13-2.13,2.86c-0.2,0.13-0.42,0.21-0.65,0.239c-0.12,0-0.229-0.06-0.3-0.149c-0.06-0.09-0.11-0.271-0.07-0.33
	c0.2-0.3,0.431-0.59,0.69-0.84c1.18-0.95,1.95-2.32,2.17-3.82c0.08-0.22,0.17-0.44,0.28-0.65c0.03-0.09-0.061-0.21-0.09-0.31
	c-0.051,0.02-0.101,0.04-0.15,0.08c-0.17,0.17-0.35,0.32-0.55,0.46c-0.15,0.05-0.32,0.03-0.46-0.04
	c-0.061-0.021-0.09-0.23-0.061-0.32c0.141-0.34,0.32-0.649,0.46-0.979c0.08-0.16,0.131-0.34,0.141-0.51
	c-0.01-0.171-0.05-0.341-0.12-0.5c-0.09,0.079-0.22,0.13-0.271,0.229c-0.31,0.51-0.59,1.04-0.899,1.56
	c-0.11,0.221-0.37,0.33-0.61,0.271c-0.18-0.04-0.22-0.41-0.01-0.62c0.86-0.84,1.02-2,1.47-3.03c0.101-0.22,0.07-0.479-0.08-0.67
	c-0.13-0.22,0.021-0.34,0.13-0.47c0.2-0.23,0.4-0.43,0.2-0.78c-0.069-0.17-0.1-0.35-0.09-0.529c0.03-1.311-0.3-2.601-0.95-3.74
	c-0.22-0.37-0.26-0.82-0.1-1.21c0.28-0.4,0.31-0.92,0.08-1.36c-0.11-0.21-0.13-0.46-0.05-0.68c0.39-0.641,0.359-1.44-0.091-2.04
	c-0.239-0.48-0.38-1.01-0.399-1.561c-0.04-0.3,0.08-0.6,0.31-0.8c0.55-0.51,0.65-1.35,0.24-1.979c-0.29-0.59-0.49-1.23-0.56-1.88
	c-0.011-0.061-0.131-0.11-0.19-0.16c-0.04,0.05-0.09,0.1-0.09,0.149c-0.08,1.32-0.391,2.61-0.37,3.95c0.04,1.75-0.021,3.5-0.06,5.25
	c-0.03,0.351-0.11,0.7-0.23,1.03c-0.06,0.109-0.16,0.18-0.28,0.2c-0.05,0.01-0.189-0.141-0.189-0.221
	c-0.011-1.56-0.011-3.13-0.011-4.689c0.011-0.67,0.08-1.34,0.04-2c0.011-0.47,0.101-0.95,0.261-1.4c-0.42-0.58,0.01-1.14,0.06-1.71
	c0.021-0.359,0-0.72,0.021-1.08c0.01-0.24,0.04-0.47,0.109-0.7c0.46-1.18,0.67-2.439,0.641-3.71c-0.04-0.239-0.03-0.479,0.05-0.71
	c0.38-0.62,0.04-1.159-0.11-1.72c-0.12-0.46-0.26-0.92-0.43-1.36c-0.15-0.399-0.351-0.77-0.521-1.149
	c0.271-0.43,0.17-0.95,0.311-1.4c0.2-0.689,0.33-1.39,0.38-2.109c0.07-0.221,0.16-0.42,0.29-0.61c0.439,0.03,0.51,0.42,0.72,0.7
	c0.101,0.13,0.22,0.24,0.351,0.33c0.18,0.12,0.329-0.07,0.34-0.49c0.02-0.59,0-1.19-0.011-1.79c0-0.13-0.35-0.25-0.439-0.16
	c-0.07,0.101-0.13,0.2-0.19,0.3c-0.069,0.101-0.13,0.19-0.199,0.29c-0.08-0.12-0.23-0.25-0.221-0.37c0-0.42,0.061-0.83,0.181-1.229
	c0.09-0.29,0.029-0.601-0.16-0.83c-0.061-0.09-0.13-0.18-0.21-0.26c-0.04,0.05-0.07,0.1-0.101,0.149
	c-0.399,1.13-0.76,2.28-1.199,3.391c-0.811,1.75-1.181,3.67-1.07,5.6c0.05,0.6,0.07,1.2,0.04,1.811
	c0.02,0.479-0.021,0.96-0.141,1.43c-0.449,1.37-0.649,2.82-0.579,4.26c0.039,0.84-0.051,1.69-0.04,2.54
	c0.02,0.48-0.091,0.96-0.311,1.39c-0.07,0.101-0.14,0.19-0.21,0.28c-0.06-0.1-0.16-0.189-0.16-0.29c-0.01-1.57-0.04-3.14-0.01-4.71
	c0.01-0.6,0.1-1.189,0.26-1.77c0.33-1.091,0.5-2.221,0.49-3.36c0.02-0.91-0.03-1.81-0.12-2.71c-0.12-0.71,0-1.43,0.33-2.06
	c0.19-0.37,0.34-0.761,0.44-1.16c0.199-0.94,0.52-1.851,0.97-2.7c0.47-0.97,0.76-2.021,0.86-3.09c0.229-1.181,0.38-2.37,0.46-3.57
	c0.069-0.47,0.229-0.92,0.479-1.33c0.05-0.12,0.271-0.149,0.41-0.22c0.03,0.17,0.13,0.37,0.08,0.51c-0.271,0.67-0.38,1.4-0.33,2.12
	c0.05,0.79-0.12,1.57-0.51,2.25c-0.03,0.06-0.09,0.14-0.07,0.16c0.13,0.2,0.29,0.37,0.48,0.5c0.159,0.03,0.319-0.04,0.42-0.16
	c0.18-0.38,0.319-0.78,0.42-1.18c0.08-0.71,0.26-1.4,0.529-2.061c0.75-1.24,1.07-2.7,0.9-4.14c-0.02-0.18,0-0.36,0.04-0.54
	s0.1-0.34,0.18-0.5c0.061-0.11,0.15-0.19,0.271-0.23c0.27-0.05,0.2,0.19,0.22,0.33c0.03,0.181,0.01,0.37,0.04,0.54
	c0.03,0.12,0.07,0.23,0.13,0.33c0.08-0.09,0.15-0.18,0.21-0.29c0.38-0.88,0.61-1.819,0.68-2.77c0.021-0.16,0.141-0.45,0.221-0.45
	c0.71-0.03,0.76-0.69,1.12-1.061c0.81-0.979,1.76-1.829,2.81-2.529c0.26-0.13,0.62-0.15,0.561-0.57c-0.04-0.24-0.391-0.17-0.9,0.18
	c-0.1,0.07-0.2,0.19-0.3,0.19c-0.16,0.01-0.41-0.01-0.471-0.11c-0.18-0.34-0.31-0.43-0.609-0.109c-0.26,0.239-0.55,0.46-0.84,0.66
	c-0.66-0.171-1.13,0.34-1.71,0.46c-0.061,0-0.12-0.011-0.181-0.04c-0.05-0.021-0.1-0.051-0.149-0.091
	c-0.03-0.04-0.051-0.079-0.061-0.119c0.48-0.23,0.811-0.891,1.36-0.771c0.46,0.11,0.61,0.021,0.77-0.36
	c0.15-0.319,0.33-0.64,0.53-0.93c0.22-0.37,0.521-0.32,0.79,0.09c0.06,0.101,0.12,0.271,0.19,0.271
	c0.119-0.01,0.229-0.08,0.29-0.181c0.229-0.42,0.42-0.869,0.67-1.27c0.1-0.14,0.26-0.21,0.43-0.2c0.11,0.03,0.17,0.26,0.24,0.41
	c0.02,0.05-0.011,0.12,0,0.18c0.05,0.23,0.1,0.45,0.149,0.681c0.141-0.2,0.261-0.41,0.36-0.62c0.11-0.271,0.16-0.57,0.27-0.851
	c0.11-0.359,0.431-0.609,0.801-0.63c0.239-0.02,0.489-0.01,0.59-0.3c0.25-0.56,0.7-0.99,1.26-1.24c0.73-0.43,1.32-1.06,1.7-1.819
	c0.43-0.79,0.8-1.61,1.13-2.45c0.729-1.931,2.24-3.48,4.15-4.271c0.06-0.02,0.119-0.02,0.18-0.01c0.01,0,0.01,0,0.02,0
	c0.181,0.021,0.311,0.18,0.29,0.35c0,0.091,0.011,0.19,0.021,0.28c0.08-0.06,0.16-0.109,0.229-0.18c0.65-0.74,0.301-1.74,0.67-2.57
	c0.03-0.069-0.18-0.29-0.319-0.399c-0.101-0.051-0.221-0.061-0.32,0c-0.33,0.26-0.65,0.529-0.95,0.819
	c-0.479,0.46-0.939,0.94-1.42,1.41c-0.22,0.21-0.54,0.29-0.84,0.19c-0.1-0.03-0.27-0.12-0.27-0.181
	c0.02-0.149,0.109-0.409,0.189-0.409c0.42-0.011,0.83-0.2,1.1-0.54c0.311-0.36,0.681-0.681,1.021-1.021
	c0.7-0.62,1.26-1.38,1.62-2.24c0.28-0.72,0.5-1.47,0.649-2.229c0.03-0.24,0.011-0.48-0.04-0.71c-0.02-0.04-0.06-0.07-0.1-0.08
	c-0.06,0.01-0.12,0.05-0.16,0.09c-0.149,0.18-0.27,0.37-0.37,0.58c-0.159,0.83-0.46,1.62-0.87,2.35
	c-0.739,1.11-1.77,2.011-2.979,2.58c-0.4,0.13-0.73,0.42-0.89,0.811c-0.16,0.39-0.42,0.729-0.601,1.109
	c-0.24,0.48-0.46,0.971-0.67,1.471c0,0.1,0.04,0.189,0.11,0.26c0.12,0,0.229-0.04,0.319-0.12c0.11-0.14,0.16-0.33,0.271-0.46
	c0.16-0.18,0.33-0.35,0.5-0.51c0.189-0.19,0.39-0.2,0.41-0.03c0.02,0.12,0.069,0.27,0.02,0.35c-0.72,1.181-1.43,2.37-2.189,3.521
	c-0.221,0.28-0.49,0.53-0.78,0.74c-0.04,0.02-0.09,0.01-0.13-0.011c-0.05-0.04-0.08-0.1-0.09-0.159c-0.08-0.301,0.04-0.62,0.3-0.801
	c0.5-0.34,0.87-0.83,1.07-1.39c0.04-0.18,0.029-0.36-0.011-0.53c0-0.05-0.06-0.09-0.1-0.14c-0.09,0.14-0.18,0.29-0.29,0.42
	c-0.51,0.67-1.021,1.35-1.56,1.99c-0.311,0.37-0.671,0.71-1.051,1c-0.66,0.529-1.35,1.01-2.08,1.439
	c-1.17,0.84-2.52,1.41-3.939,1.681c-0.36,0.05-0.7,0.159-1.021,0.33c-0.159,0.069-0.279,0.189-0.34,0.35
	c-0.08,0.24,0.15,0.28,0.32,0.29c0.36,0.02,0.72,0.01,1.09,0.05c0.08,0,0.15,0.12,0.23,0.18c-0.04,0.04-0.08,0.101-0.131,0.12
	c-0.479,0.271-1.01,0.41-1.55,0.431c-0.609-0.08-1.21,0.25-1.46,0.81c-0.06,0.11-0.24,0.16-0.38,0.23c0-0.16,0.01-0.32,0-0.48
	c-0.01-0.08-0.03-0.16-0.06-0.229c-0.15-0.311-0.521-0.44-0.83-0.28c-0.15,0.09-0.29,0.21-0.4,0.35c-0.6,0.83-1.08,1.73-1.439,2.69
	c-0.021,0.069-0.21,0.14-0.301,0.109c-0.09-0.05-0.149-0.149-0.149-0.26c0.12-0.399,0.29-0.78,0.42-1.18
	c0.03-0.09,0.03-0.271-0.03-0.311c-0.18-0.14-0.399-0.239-0.62-0.3c-0.18-0.02-0.35,0.03-0.479,0.16c-0.19,0.3-0.36,0.62-0.5,0.95
	c-0.33,0.7-0.641,1.41-0.98,2.109c-0.04,0.091-0.18,0.141-0.27,0.2c-0.04-0.109-0.13-0.239-0.101-0.319
	c0.37-1.011,0.74-2.021,1.141-3.021c0.109-0.27,0.13-0.41-0.181-0.55c-0.26-0.15-0.51-0.311-0.75-0.49
	c-0.1-0.02-0.199,0.01-0.26,0.09c-0.189,0.351-0.54,0.69-0.24,1.15c0.04,0.1,0.03,0.21-0.029,0.3c-0.271,0.3-0.9,0.32-1.051,0.01
	c-0.25-0.52-0.529-0.949-1.149-1.029c-0.03,0-0.061,0-0.09-0.011c-0.21-0.05-0.351-0.26-0.301-0.47c0.03-0.6-0.13-1.2-0.45-1.72
	c-0.05-0.08-0.17-0.18-0.23-0.16c-0.11,0.04-0.21,0.12-0.27,0.22c-0.11,0.21-0.19,0.44-0.22,0.67c-0.05,0.79,0.25,1.57,0.83,2.11
	c0.37,0.39,0.75,0.78,1.11,1.19c0.37,0.43,0.44,1.04,0.18,1.54c-0.26,0.619-0.77,1.1-1.4,1.329c-0.08,0.021-0.21-0.069-0.3-0.13
	c-0.02-0.01-0.02-0.109,0-0.16c0.07-0.159,0.16-0.31,0.27-0.449c0.28-0.32,0.58-0.61,0.86-0.931c0.22-0.239,0.17-0.39-0.15-0.479
	c-0.17-0.07-0.32-0.17-0.45-0.29c-0.15-0.11-0.27-0.32-0.42-0.32c-0.14,0-0.29,0.181-0.43,0.3c-0.3,0.25-0.46,0.75-1,0.601
	c-0.39-0.62,0.23-0.851,0.5-1.17c0.39-0.32,0.47-0.87,0.2-1.29c-0.19-0.311-0.3-0.66-0.51-0.94c-0.16-0.16-0.22-0.399-0.15-0.62
	c0.14-0.52,0.38-1.01,0.7-1.449c0.1-0.211,0.16-0.44,0.17-0.671c0.01-0.04-0.06-0.119-0.09-0.149s-0.1-0.061-0.12-0.04
	c-0.16,0.09-0.3,0.2-0.42,0.33c-0.39,0.46-0.74,0.95-1.13,1.41c-0.06,0.069-0.18,0.1-0.28,0.14c-0.04-0.16-0.15-0.35-0.11-0.49
	c0.06-0.229,0.19-0.45,0.36-0.609c1.07-0.92,0.99-2.431,1.8-3.471c0.06-0.08,0.04-0.239,0.04-0.359c-0.01-0.48-0.02-0.96-0.06-1.44
	c0-0.07-0.13-0.12-0.21-0.17c-0.01,0-0.07,0.08-0.11,0.13c-0.06,0.101-0.11,0.23-0.2,0.29c-0.1,0.061-0.22,0.07-0.33,0.03
	c-0.07-0.04-0.15-0.23-0.12-0.29c0.28-0.53,0.59-1.04,0.95-1.521c0.3-0.529,0.82-0.909,1.43-1.02h0.061
	c0.229-0.04,0.39-0.26,0.35-0.49c-0.02-0.42-0.07-0.83-0.16-1.24c-0.08-0.22-0.189-0.439-0.319-0.64
	c-0.141,0.16-0.261,0.33-0.351,0.521c-0.3,0.85-0.73,1.64-1.27,2.35c-0.09,0.11-0.27,0.16-0.42,0.22
	c-0.01-0.22-0.03-0.43-0.04-0.649c-0.32,0.1-0.3,0.39-0.35,0.649c-0.11-0.01-0.21-0.01-0.32-0.03c-0.2-0.039-0.35-0.149-0.28-0.369
	c0.16-0.511,0.43-0.98,0.79-1.381c0.16-0.18,0.31-0.369,0.44-0.569c0-0.01-0.06-0.101-0.1-0.13c-0.05-0.03-0.13-0.061-0.16-0.04
	c-0.35,0.21-0.68,0.43-1.04,0.63c-0.06,0.03-0.2-0.07-0.3-0.12c-0.02-0.021-0.03-0.12-0.01-0.17c0.03-0.11,0.08-0.22,0.15-0.311
	c0.11-0.14,0.25-0.26,0.4-0.35c0.38-0.19,0.46-0.34,0.24-0.8c-0.7-1.45-0.42-3.16-1.18-4.61c-0.15-0.29-0.03-0.72-0.05-1.069
	c-0.03-0.351-0.16-0.45-0.59-0.471h-0.5c0-0.29,0.03-0.56,0.38-0.689c0.47-0.15,0.77-0.62,0.72-1.12c-0.02-0.41-0.04-0.83-0.07-1.24
	c-0.01-0.04-0.11-0.1-0.11-0.1c-0.28,0.229-0.55,0.47-0.83,0.68c-0.14,0.11-0.3,0.2-0.47,0.25c-0.11,0.01-0.22-0.03-0.29-0.12
	c-0.05-0.1-0.04-0.22,0.02-0.32c0.35-0.33,0.73-0.619,1.07-0.939c0.12-0.12,0.26-0.37,0.21-0.46c-0.19-0.37-0.34,0.069-0.53,0.069
	c-0.43-0.02-0.82,0.24-0.96,0.641c-0.19,0.51-0.52,0.96-0.95,1.28c-0.14,0.1-0.36,0.22-0.48,0.17c-0.29-0.13-0.02-0.311,0.06-0.391
	c0.5-0.52,0.9-1.12,1.18-1.79c0.2-0.5,0.45-0.97,0.7-1.449c0.03-0.07,0.2-0.15,0.25-0.131c0.28,0.17,0.43,0.12,0.37-0.22
	c-0.06-0.35-0.22-0.67-0.26-1.02c-0.03-0.17,0.14-0.29,0.35-0.181c0.26,0.15,0.3-0.05,0.3-0.22v-0.09
	c-0.03-0.15-0.18-0.25-0.33-0.23c-0.64,0.141-1.26,0.38-1.82,0.73c-0.27,0.12-0.54,0.229-0.82,0.33c-0.21,0.05-0.31-0.34-0.62-0.19
	c-0.34,0.23-0.74,0.36-1.15,0.38c-0.46-0.09-0.5-0.71-0.75-1.06c-0.29-0.39-0.66-0.71-0.97-1.07c-0.25-0.3-0.69-0.439-0.77-0.88
	l-0.79-0.25c-0.04-0.01-0.14-0.04-0.14-0.03c-0.05,0.101-0.13,0.21-0.11,0.301c0.04,0.17,0.16,0.319,0.2,0.489
	c0.1,0.46,0.38,0.86,0.77,1.11c0.99,0.68,1.78,1.61,2.3,2.7c0.17,0.359,0.33,0.83,0.89,0.46l0.13,0.62c-0.04,0-0.08,0.01-0.12,0.02
	c-0.27,0.09-0.6,0.34-0.79,0.26c-0.21-0.1-0.29-0.489-0.43-0.75c-0.05-0.1-0.09-0.22-0.15-0.319c-0.03-0.05-0.07-0.101-0.11-0.141
	c-0.08,0.08-0.15,0.16-0.2,0.261c-0.12,0.26-0.29,0.5-0.09,0.819c0.24,0.4,0.43,0.84,0.64,1.271c0.23,0.47,0.36,0.89-0.28,1.17
	c-0.25,0.1-0.07,0.3,0,0.43c0.32,0.57,0.65,1.13,0.96,1.7c0.04,0.08,0,0.2,0,0.29c-0.15,0-0.31-0.021-0.46-0.08
	c-0.35-0.2-0.3-0.75-0.73-0.89v3.689c-0.04,0.36-0.02,0.721,0.08,1.061c0.19,0.569,0.27,1.17,0.23,1.76
	c0.01,0.36,0.04,0.72,0.1,1.07c0.02,0.119,0.16,0.229,0.27,0.34c0.03,0.71,0.04,1.42,0.07,2.13c0.03,0.11,0.07,0.22,0.12,0.33
	c0.15-0.09,0.29-0.2,0.41-0.32c0.13-0.189,0.18-0.439,0.3-0.64c0.24-0.41,0.49-0.811,0.76-1.19c0.13-0.12,0.27-0.21,0.43-0.28
	c0.06-0.02,0.12-0.02,0.18,0.021c0.06,0.06,0.15,0.18,0.13,0.22c-0.25,0.38-0.71,0.65-0.54,1.21h0.01
	c0.14,0.101,0.32,0.181,0.32,0.271c0.19,1.55,0.58,3.06,1.16,4.5c0.07,0.37,0.38,0.649,0.75,0.68c0.18,0.03,0.35,0.07,0.52,0.13
	c-0.09,0.15-0.17,0.29-0.26,0.431c-0.12,0.199-0.35,0.39-0.35,0.579c0.01,0.41,0.07,0.82,0.18,1.23c0.01,0.07,0.18,0.11,0.29,0.16
	c0.22,0.06,0.44,0.14,0.66,0.24c0.09,0.04,0.14,0.18,0.21,0.279c-0.1,0.061-0.2,0.11-0.3,0.15c-0.66,0.21-0.66,0.21-0.66,0.64
	c0,0.311,0.02,0.61,0.02,0.91c-0.01,0.67,0.21,0.78,0.73,0.53c0.22-0.09,0.45-0.15,0.68-0.17c0.05-0.011,0.15,0.029,0.15,0.06
	c0.02,0.09,0.04,0.23-0.01,0.28c-0.2,0.14-0.4,0.26-0.6,0.38c-0.68,0.31-1.12,0.97-1.14,1.71c0,0.11-0.04,0.271,0,0.29
	c0.1,0.05,0.22,0.06,0.32,0.03c0.33-0.15,0.64-0.351,0.97-0.49c0.16-0.08,0.34-0.1,0.52-0.09c0.17,0.03,0.32,0.12,0.41,0.26
	c0.1,0.19-0.08,0.32-0.26,0.35c-1.38,0.11-2.47,1.2-2.57,2.57c-0.03,0.12-0.09,0.23-0.17,0.311c-0.02,0.029-0.12,0.029-0.17,0.02
	c-0.31-0.08-0.64-0.34-0.81,0.24c-0.11,0.34-0.29,0.66-0.53,0.93c-0.32,0.37-0.48,0.851-0.45,1.33c0.02,1.39-0.02,2.78,0.08,4.16
	c0,0.33-0.02,0.66-0.07,0.979c0.04,0.42,0.14,0.82,0.31,1.2c0.33,1.09,0.73,2.16,0.96,3.26c0.19,1.07,0.63,2.07,1.29,2.931
	c0.11,0.14,0.17,0.17,0.24,0.04c0.03-0.061,0.07-0.12,0.06-0.17c-0.41-1.561-0.61-3.17-1.12-4.7c-0.56-1.391-0.75-2.91-0.58-4.4
	c0.01-0.08,0.15-0.149,0.24-0.21c0.15-0.09,0.34,0.12,0.3,0.33c-0.08,0.41-0.32,0.76-0.18,1.22c0.14,0.46,0.17,0.95,0.31,1.4
	c0.37,1.14,0.77,2.26,1.16,3.39c0.47,0.4,0.41,0.851,0.25,1.4c-0.02,0.42,0.04,0.84,0.18,1.229c0.1,0.28,0.16,0.58,0.19,0.87
	c-0.06,0.91,0.17,1.811,0.65,2.58c0.05,0.09,0.02,0.23,0,0.34c-0.01,0.04-0.08,0.11-0.11,0.11c-0.59-0.29-0.6,0.15-0.57,0.5
	c0.14,1.74-0.01,3.49-0.44,5.19c-0.25,0.859-0.25,1.77,0,2.63c0.09,0.41,0.13,0.83,0.11,1.26c0.01,0.08-0.11,0.17-0.17,0.25
	c-0.11-0.06-0.2-0.13-0.28-0.22c-0.1-0.141-0.18-0.311-0.21-0.49c-0.17-1.43-0.13-2.88,0.12-4.31c0.13-0.83,0.2-1.671,0.21-2.511
	c0.01-0.239-0.07-0.47-0.23-0.66c-0.5-0.52-0.92-1.1-1.27-1.729c-0.03-0.05-0.14-0.1-0.16-0.08c-0.07,0.07-0.18,0.15-0.19,0.24
	c-0.07,0.479-0.03,0.97,0.15,1.42c0.17,0.38,0.27,0.79,0.43,1.18c0.09,0.23,0.19,0.48-0.06,0.63c-0.12,0.061-0.36-0.02-0.5-0.1
	c-0.25-0.14-0.31,0.01-0.33,0.18c-0.02,0.181-0.01,0.36,0.04,0.54c0.35,1.4,0.43,2.86,0.24,4.3c-0.01,0.051-0.14,0.12-0.23,0.15
	c-0.03,0.01-0.11-0.05-0.15-0.09c-0.22-0.22-0.28-0.54-0.16-0.83c0.23-0.49,0.24-1.07,0.03-1.57c-0.12-0.34-0.17-0.689-0.17-1.05
	c-0.03-1.03-0.04-2.05-0.04-3.08c0.04-0.479-0.03-0.96-0.21-1.41c-0.03-0.05-0.05-0.09-0.07-0.14c-0.13-0.37,0.06-0.78,0.43-0.91
	c0.38-0.2,0.31-0.63,0.2-0.979c-0.36-0.82-0.62-1.69-0.75-2.58c0-0.061-0.05-0.11-0.08-0.16c-0.08,0.06-0.15,0.13-0.2,0.22
	c-0.14,0.19-0.25,0.41-0.3,0.64c-0.1,1.131-0.21,2.25-0.22,3.4c-0.01,1.14,0.14,2.28,0.14,3.42c0.1,1.15,0.02,2.3-0.25,3.41
	c-0.12,0.59-0.1,1.2,0.07,1.78c0.24,1.18,0.25,2.399,0.02,3.58c-0.26,0.989-0.21,2.04,0.14,3.01c0.31,0.84,0.45,1.74,0.42,2.649
	c0,1.261-0.03,2.53-0.07,3.801c0,0.22-0.05,0.569-0.2,0.649c-0.79,0.44-0.45,1.311-0.76,1.92c-0.03,0.07,0.06,0.23,0.13,0.32
	c0.18,0.24,0.25,0.55,0.19,0.85c-0.08,0.841-0.34,1.65-0.77,2.38c-0.13,0.19-0.29,0.36-0.49,0.49c-0.73,0.57-0.73,0.57-0.65,1.76
	c0.02,0.12,0.02,0.24,0,0.36c-0.31,1.36-1.06,2.58-2.13,3.47c-0.19,0.15-0.34,0.051-0.46-0.09c-0.1-0.14-0.19-0.29-0.26-0.45h-0.01
	c-0.24-0.079-0.49,0.011-0.62,0.23c-0.63,1.26-1.86,1.85-2.9,2.65c-0.04,0.029-0.12,0.02-0.18,0.029c-0.24,0.04-0.49-0.06-0.62-0.27
	c-0.11-0.22-0.05-0.49,0.13-0.65c0.44-0.189,0.92-0.3,1.12-0.81c1.39-1.09,2.23-2.65,3.43-3.9c0.14-0.13,0.24-0.28,0.31-0.45
	c0.37-1.069,1.19-1.939,1.24-3.159c0.07-0.48,0.26-0.931,0.56-1.301c0.31-0.449,0.47-0.989,0.46-1.529c0-0.24,0.02-0.48,0.06-0.721
	c0.45-2.3,0.44-2.3-0.02-4.96c-0.05-0.42-0.04-0.84,0.03-1.26c0.05-0.22,0.07-0.45,0.07-0.68c-0.12-1.021-0.16-2.04-0.13-3.07
	c0.07-1.06-0.68-2.09-0.1-3.17c0.05-0.08,0-0.24-0.04-0.35c-0.51-1.49-0.03-3.11-0.57-4.61c-0.15-0.41,0.2-0.87,0.03-1.38
	c-0.1-0.53-0.12-1.08-0.05-1.62c0-0.66,0.03-1.33,0-1.99c0.08-0.7,0.09-1.41,0.03-2.12c0-0.29,0.06-0.59,0.18-0.859
	c0.06-0.23,0.1-0.46,0.13-0.7c-0.06-0.48-0.05-0.96,0.04-1.43c0.24-0.57-0.06-1.051-0.02-1.57c-0.05-0.48,0.01-0.96,0.18-1.41
	c0.06-0.11,0.08-0.23,0.06-0.34c-0.41-1.24-0.14-2.521-0.26-3.771c0.07-0.659-0.05-1.33-0.34-1.93c-0.28-1.35-0.42-2.729-0.44-4.11
	c0.1-0.96,0.04-1.939,0.08-2.89c0.03-0.96,0.4-1.88,0.35-2.84c0.31-0.79,0.44-1.64,0.37-2.48c0.02-1.859-0.14-3.72-0.48-5.56
	c-0.26-2.29-0.71-4.55-1.35-6.771c-0.26-0.8-0.39-1.64-0.37-2.479c0.05-0.48,0-0.97-0.14-1.43c-0.18-0.57-0.26-1.17-0.24-1.78
	c-0.02-0.97-0.03-1.93,0.03-2.9c0.1-1.2-0.02-2.41-0.36-3.56c-0.26-1.05-0.65-2.061-1.16-3c-0.95-1.54-2.22-2.84-3.04-4.46
	c-0.05-0.101-0.17-0.17-0.25-0.26c-1.66-1.98-3.13-4.101-4.42-6.341c-0.57-0.979-1.4-1.81-2.4-2.369c-1.35-0.69-2.4-1.87-2.92-3.301
	c-0.22-0.689-0.66-1.29-1.26-1.699c-0.26-0.16-0.48-0.36-0.67-0.601c-0.6-0.83-1.33-1.55-2.16-2.149
	c-0.18-0.16-0.35-0.341-0.5-0.521c-0.31-0.29-0.63-0.57-0.96-0.83c-1.19-0.8-2.31-1.71-3.35-2.71c-0.49-0.54-1.07-0.979-1.71-1.32
	c-0.22-0.09-0.43-0.22-0.61-0.369c-0.58-0.61-1.2-1.19-1.84-1.74c-0.67-0.49-1.52-0.74-2.19-1.221c-0.68-0.51-1.51-0.77-2.36-0.75
	c-0.72,0.051-1.45-0.079-2.11-0.369c-0.37-0.19-0.78-0.32-1.14-0.521c-0.36-0.2-0.61-0.54-1.07-0.63c-0.42-0.04-0.81-0.21-1.14-0.49
	c-1-1.06-2.36-1.58-3.48-2.45c-1.22-0.859-2.34-1.869-3.32-3c-0.91-1.149-1.89-2.399-3.61-2.449c-0.11,0-0.22-0.11-0.32-0.17
	c-1.15-0.681-2.48-0.971-3.81-0.841c-0.72,0.051-1.45,0-2.18,0c-0.24-0.01-0.48,0.011-0.72,0.04c-0.14,0.021-0.27,0.061-0.4,0.12
	c-0.73,0.351-1.04,1.21-0.7,1.94c0.07,0.17,0.19,0.31,0.27,0.47c0.6,1.12,0.85,2.4,0.72,3.67c-0.03,1.4-0.65,2.73-1.71,3.65
	c-1.7,1.479-3.91,2.24-6.16,2.13c-0.3-0.021-0.37-0.13-0.26-0.47c0.21-0.431,0.35-0.891,0.43-1.36c0.01-0.91,0.27-1.79,0.76-2.56
	c0.08-1.08,1.09-1.711,1.28-2.74c0.37-0.21,0.64-0.561,0.76-0.971c0.18-0.52,0.77-0.569,0.99-0.979c0.36-0.67,1.13-0.9,1.52-1.51
	c0.05-0.101,0.05-0.21,0-0.3c-0.12-0.11-0.33-0.271-0.42-0.23c-1.01,0.38-1.98,0.85-2.9,1.41c-0.66,0.52-1.45,0.859-2.29,0.96H81.5
	c-0.59,0.06-1.02,0.58-0.97,1.17c0.01,0.18-0.02,0.35-0.09,0.52c-0.42,0.87-0.65,1.82-0.65,2.79c-0.03,0.17-0.07,0.351-0.13,0.521
	c-0.3,1.05-0.27,2.16,0.09,3.189c0.2,0.44,0.33,0.9,0.38,1.381c0.05,0.72,0.3,1.409,0.72,2c-0.08,0.829,0.48,1.31,0.97,1.85
	c0.1,0.15,0.12,0.34,0.06,0.5c-0.11,0.15-0.27,0.229-0.45,0.24c-0.78,0.13-1.58,0.02-2.3-0.3c-1.55-0.12-2.88-1.12-3.42-2.57
	c-0.14-0.271-0.3-0.53-0.47-0.771c-0.18-0.279-0.36-0.29-0.49-0.04c-0.25,0.49-0.46,0.99-0.74,1.45c-0.44,0.931-1.09,1.75-1.9,2.391
	c-1.22,0.77-2.61,1.229-4.05,1.329c-1.65,0.15-3.19-0.479-4.81-0.579c-0.55,0-1.08-0.2-1.49-0.57c-0.18-0.16-0.4-0.271-0.63-0.33
	c-1.69-0.54-2.95-1.98-3.27-3.73c-0.13-0.649-0.3-1.29-0.43-1.93c-0.04-0.11-0.03-0.24,0.01-0.35c0.25-0.74,0.33-1.53,0.23-2.311
	c-0.03-0.3,0.02-0.6,0.13-0.88c0.55-0.99,0.6-2.24,1.59-2.979c0.56-1,1.41-1.811,2.44-2.32c0.81-0.48,1.77-0.64,2.69-0.44
	c0.17,0.04,0.35,0.061,0.54,0.051c0.84-0.141,1.7,0.09,2.36,0.649c0.06,0.061,0.36,0,0.46-0.1c0.34-0.351,0.64-0.73,0.94-1.101
	c0-0.01,0.01-0.01,0.01-0.01c0.14-0.2,0.09-0.479-0.11-0.62c-1.26-0.819-2.52-1.64-3.79-2.439c-0.36-0.221-0.76-0.36-1.18-0.42
	c-0.71-0.101-1.41-0.221-2.12-0.32c-0.76-0.17-1.51-0.4-2.23-0.69c-0.06-0.01-0.12-0.01-0.18,0c-0.16,0.04-0.38,0.03-0.27,0.311
	c0.06,0.109,0.1,0.22,0.12,0.34c-0.05,1.26,0.09,2.53,0.41,3.75c0.13,0.37-0.09,0.55-0.56,0.78c-0.62,0.3-1.27-0.05-1.91,0.17
	c-0.36,0.06-0.72,0.02-1.05-0.11c-1.21-0.37-2.26-1.12-3-2.14c-0.54-0.7-0.57-0.71-1.27-0.24c-0.15,0.1-0.28,0.23-0.44,0.32
	c-0.31,0.18-0.75,0.26-0.93,0.529c-0.22,0.341,0.02,0.851,0.18,1.15c0.39,0.74-0.02,1.4-0.03,2.1c-0.04,0.851-0.32,1.671-0.81,2.36
	c-0.77,1.3-1.78,2.43-2.97,3.34c-0.24,0.181-0.46,0.391-0.66,0.62c-0.44,0.49-0.48,0.561-0.98,0.04c-0.72-0.65-1.15-1.57-1.2-2.54
	c-0.01-0.24-0.09-0.47-0.21-0.68c-0.34-0.561-0.4-1.25-0.16-1.86c0.19-0.55-0.05-1.24,0.15-1.79c0.21-0.67,0.3-1.38,0.26-2.08
	c-0.1,0.03-0.22,0.061-0.26,0.13c-0.24,0.48-0.44,0.99-0.7,1.46c-0.6,1.131-1.56,2.03-2.73,2.54c-1.4,0.57-2.93,0.761-4.43,0.551
	c-0.64-0.131-1.26-0.36-1.84-0.67c-0.29-0.12-0.46-0.431-0.38-0.74c0.49-1.78,0.8-3.63,2.28-4.98c0.5-0.52,0.96-1.069,1.39-1.649
	c-0.29-0.71-0.6-1.41-0.85-2.13c-0.45-1.04-0.81-2.12-1.07-3.221c-0.11-1.14-0.14-2.29-0.08-3.43c0-0.43-0.01-0.85,0.02-1.271
	c-0.01-0.239,0.03-0.479,0.13-0.689c0.6-0.98,0.77-2.16,1.48-3.08c0.25-0.32,0.1-0.59-0.29-0.59c-0.48-0.07-0.96-0.05-1.43,0.06
	c-0.39,0.181-0.64,0.69-0.95,1.05c-0.04,0.04-0.08,0.091-0.12,0.131c-0.33,0.369-0.43,0.899-0.24,1.359
	c0.12,0.46,0.35,0.891,0.48,1.351c0.32,0.84,0.49,1.729,0.5,2.63c-0.05,0.529-0.24,1.05-0.28,1.59c-0.21,1.93-1.13,3.72-2.58,5.01
	c-0.33,0.33-0.72,0.29-1.12-0.07c-0.19-0.17-0.37-0.38-0.27-0.619c0.14-0.261,0.14-0.57-0.01-0.83c-0.26-0.48-0.46-0.99-0.75-1.44
	c-0.32-0.51-0.48-1.11-0.45-1.72c0.01-0.48,0.03-0.96,0.04-1.45c0.01-0.66,0.17-1.31,0.48-1.9c0.26-0.59,0.47-1.21,0.61-1.85
	c0-0.12-0.05-0.23-0.15-0.3c-0.09-0.08-0.21-0.101-0.32-0.07c-1.05,0.72-2.29,1.101-3.57,1.08c-0.22,0-0.44,0.21-0.67,0.23
	c-0.95,0.239-1.94,0.159-2.83-0.25c-0.76-0.471-1.55-0.9-2.31-1.391c-0.26-0.149-0.46-0.39-0.55-0.68c-0.14-0.78-0.53-1.46-0.74-2.2
	c-0.17-0.7-0.31-1.41-0.41-2.12c0-0.18,0.08-0.34,0.22-0.45c0.11-0.06,0.33,0.03,0.47,0.101c0.38,0.29,0.79,0.53,1.22,0.75
	c1.83,0.75,3.79,1.17,5.77,1.22c0.66-0.01,1.32,0.061,1.96,0.2c0.72,0.1,1.41,0.31,2.06,0.63c0.58,0.34,1.32,0.28,1.84-0.17
	c0.08-0.07,0.13-0.18,0.12-0.3c0-0.09-0.11-0.261-0.17-0.261c-0.8,0.011-1.56-0.329-2.09-0.92c-0.82-0.89-1.8-1.569-2.68-2.369
	c-0.19-0.23-0.47-0.36-0.76-0.381c-0.42,0.011-0.84-0.02-1.27-0.01c-1.21,0.021-2.4-0.31-3.43-0.939
	c-0.72-0.431-1.41-0.91-2.06-1.431c-0.08-0.149-0.08-0.33,0-0.47c0.6-0.84,1.38-1.52,2.29-2.01c0.2-0.12,0.44-0.16,0.67-0.13
	c0.96,0.31,2.06,0.109,2.9,0.83c0.06,0.05,0.42-0.091,0.42-0.15c0.18-1.55,0.57-3.06,1.14-4.5c0.1-0.3,0.15-0.59,0.51-0.66
	c0.44-0.09,0.65,0.21,0.88,0.5c0.39,0.53,0.81,1.04,1.26,1.521c1.01,1.05,1.82,2.26,2.4,3.59c0.6,1.05,0.77,2.29,0.48,3.46
	c-0.1,0.41-0.12,0.84-0.06,1.26c0.01,0.23,0.11,0.46,0.26,0.64c0.88,0.99,1.91,1.71,3.32,1.28c0.45-0.149,0.94-0.09,1.35,0.15
	c0.21,0.12,0.39,0.239,0.62,0.06c0.24-0.18,0.52-0.3,0.77-0.47c0.61-0.44,0.71-0.68,0.41-1.37c-0.34-0.7-0.53-1.47-0.55-2.26
	c0.03-0.29-0.02-0.59-0.14-0.87c-0.21-0.36-0.65-0.16-1-0.22c-0.17-0.021-0.35-0.051-0.52-0.11c-1.62-0.521-2.99-1.6-3.88-3.05
	c-0.26-0.48-0.53-0.94-1.18-0.95c-0.06-0.021-0.11-0.05-0.15-0.1c-0.09-0.08-0.16-0.181-0.2-0.29c-0.01-0.061,0.11-0.2,0.19-0.21
	c0.55-0.04,1.07-0.681,1.68-0.11c0.07,0.07,0.34-0.04,0.5-0.12c0.54-0.26,1.08-0.53,1.61-0.81c0.46-0.24,0.48-0.261,0.2-0.601
	c-0.37-0.45-0.57-1.06-1.15-1.35c-0.14-0.11-0.24-0.271-0.28-0.44c-0.15-0.45-0.25-0.92-0.41-1.37c-0.18-0.51-0.39-1-0.61-1.479
	c-0.02-0.04-0.04-0.08-0.07-0.11c-0.11-0.09-0.27-0.09-0.37,0.021c-0.37,0.3-0.81,0.52-1.16,0.85c-0.44,0.41-0.8,0.89-1.2,1.34
	c-0.68-0.2-0.87-1-1.49-1.24c-0.51-0.229-0.84-0.729-0.83-1.289c-0.08-0.591-0.03-1.2,0.14-1.78c0.26-0.92,0.68-1.79,1.23-2.58
	c0.54-0.86,1.03-1.75,1.46-2.67c0.31-0.56,0.43-1.21,0.35-1.84c-0.49,0.24-0.58,0.81-0.98,1.15c-0.41,0.35-0.76,0.78-1.13,1.16
	c-1.14,1.12-2.77,1.58-4.33,1.22c-0.28-0.04-0.37-0.26-0.5-0.47c-0.07-0.08-0.17-0.14-0.27-0.18c-0.05-0.02-0.15-0.03-0.18,0
	c-0.06,0.09-0.17,0.22-0.15,0.29c0.07,0.29,0.18,0.57,0.34,0.82c0.89,1.3,1.25,2.89,1.03,4.45c-0.01,0.12-0.01,0.24,0,0.36
	c0.06,0.85-0.21,1.689-0.76,2.34c-1.12,1.41-2.23,2.83-3.35,4.24c0,0,0,0-0.01,0c-0.19,0.149-0.47,0.109-0.62-0.09
	c-0.21-0.431-0.38-0.87-0.6-1.301c-0.35-0.55-0.67-1.13-0.95-1.72c-0.24-0.61-0.28-1.28-0.47-1.91c-0.28-0.88-0.45-1.8-0.49-2.729
	c-0.11,0.09-0.27,0.17-0.3,0.29c-0.14,0.649-0.44,1.26-0.88,1.75c-0.91,1.06-2,1.939-3.22,2.6c-0.78,0.45-1.66,0.71-2.56,0.75
	c-0.45,0.07-0.86-0.24-0.93-0.68c-0.22-0.811-0.37-1.63-0.44-2.47c0.02-0.381-0.17-0.54-0.56-0.521c-1.44,0.06-2.88-0.17-4.24-0.68
	c-0.72-0.29-1.38-0.71-1.94-1.24c-0.17-0.26-0.18-0.58-0.03-0.84c0.87-0.82,1.86-1.49,2.94-2c1.43-0.62,2.97-0.96,4.53-1.01
	c0.6-0.05,1.2,0.05,1.76,0.28c0.58-0.31,1.15-0.64,1.74-0.91c0.37-0.17,0.98-0.1,1.07-0.54c0.13-0.6-0.61-0.58-0.92-0.88
	c-0.38-0.46-0.85-0.85-1.37-1.13c-0.6-0.12-1.2-0.13-1.8-0.05c-0.24,0-0.49-0.03-0.73-0.01c-1.15,0.02-2.28-0.38-3.15-1.15
	c-1.27-1.11-2.32-2.44-3.11-3.92c-0.05-0.18-0.01-0.36,0.1-0.5c0.09-0.11,0.36-0.22,0.45-0.16c0.48,0.27,1.07,0.25,1.53-0.05
	c1.61-0.79,3.37-1.19,5.15-1.18c-0.12-0.53,0.13-1.08,0.61-1.35c0.15-0.1,0.28-0.21,0.4-0.34c0.03-0.06,0.04-0.12,0.02-0.18
	c-0.05-0.17-0.12-0.15-0.26-0.06c-0.32,0.21-0.73,0.18-1.02-0.05c-0.18-0.13-0.41-0.25-0.22-0.56c0.33-0.71,0.57-1.45,0.7-2.22
	c0-0.01,0-0.03,0.01-0.04c0.04-0.24-0.12-0.46-0.36-0.5c-0.23-0.05-0.47-0.08-0.71-0.07c-0.02-0.01-0.05-0.01-0.07-0.01
	c-0.29-0.01-0.53,0.22-0.54,0.51c-0.03,0.23-0.12,0.45-0.26,0.65c-0.64,0.79-1.29,1.58-1.98,2.34c-0.74,0.81-1.86,1.15-2.92,0.9
	c-1.61-0.24-3.15-0.76-4.57-1.54c-0.1-0.06-0.2-0.13-0.29-0.21c-0.21-0.16-0.13-0.74,0.13-0.76c0.74-0.07,1.36-0.58,1.57-1.3
	c0.02-0.05,0.05-0.1,0.08-0.16c0.39-0.83,1.07-1.49,1.92-1.85c0.54-0.26,1.08-0.52,1.63-0.77c0.08-0.02,0.15-0.06,0.21-0.12
	c0.21-0.21,0.21-0.54,0.01-0.75c-0.34-0.33-0.58-0.74-0.69-1.2c-0.1-0.29-0.05-0.38,0.21-0.52c1.14-0.54,2.36-0.9,3.61-1.06
	c1.44-0.31,2.94,0,4.13,0.86c0.14,0.11,0.3,0.2,0.44,0.32c0.34,0.27,0.79,0.36,1.2,0.24c0.41-0.08,0.82-0.19,1.21-0.33
	c0.89-0.4,1.89-0.45,2.82-0.15c0.2,0.07,0.38-0.25,0.3-0.49c-0.27-0.87-0.87-1.6-1.67-2.05c-0.29-0.19-0.65-0.29-1.01-0.26
	c-0.93,0.12-1.83,0.64-2.8,0.14c-0.15-0.08-0.44,0.17-0.68,0.18c-0.41,0.09-0.83,0.08-1.24-0.02c-1.72-0.58-3.27-1.58-4.5-2.92
	c-0.37-0.68-0.84-1.31-1.38-1.87c-0.29-0.22-0.34-0.75-0.49-1.14c-0.19-0.54-0.05-0.72,0.49-0.82c0.66-0.01,1.32-0.12,1.95-0.31
	c0.24-0.08,0.48-0.08,0.72-0.02c0.71,0.13,1.41,0.28,2.11,0.43c0.23,0.05,0.61,0.19,0.65,0.12c0.22-0.35-0.19-0.47-0.36-0.63
	c-1.38-1.27-2.78-2.51-4.18-3.74c-0.18-0.16-0.43-0.23-0.62-0.37c-0.75-0.51-1.36-1.21-1.75-2.04c-0.43-0.98-0.83-1.98-1.25-2.98
	c-0.01-0.06-0.01-0.12-0.01-0.18c-0.01-0.03-0.01-0.06,0-0.09c0.03-0.22,0.22-0.37,0.43-0.34l3.99,1.05
	c0.18,0.03,0.35,0.07,0.52,0.14c2.11,1.11,3.63,3.09,4.14,5.42c0.22,0.87,0.36,1.77,0.42,2.66c-0.1,1.05,0.45,2.06,1.38,2.55
	c0.25,0.16,0.48,0.36,0.69,0.58c0.59,0.51,1.2,1.01,1.8,1.5c0.1,0.06,0.2,0.1,0.3,0.12c0.01-0.17,0.08-0.36,0.02-0.49
	c-0.18-0.38-0.39-0.75-0.61-1.1c-0.33-0.5-0.71-0.97-1-1.5c-0.22-0.35-0.36-0.76-0.4-1.18c-0.04-1.2,0.01-2.41,0.02-3.62
	c0.01-0.06,0.03-0.11,0.08-0.15c0.09-0.07,0.22-0.17,0.3-0.14c0.17,0.05,0.32,0.14,0.44,0.27c0.59,0.76,1.16,1.54,1.75,2.3
	c0.08,0.04,0.18,0.04,0.26,0c0.49-0.75,1.07-1.45,1.72-2.06c0.07-0.15,0.05-0.33-0.05-0.46c-0.98-0.5-0.86-1.51-1.13-2.33
	c-0.09-0.26,0.11-0.29,0.25-0.39c0.34-0.24,0.76-0.37,1.19-0.35c0.54,0.01,1.09,0.03,1.63,0c0.96-0.02,1.92,0.23,2.74,0.74
	c0.41,0.24,0.86,0.4,1.3,0.61c0.01,0.01,0.02,0.02,0.04,0.02c0.16,0.07,0.34-0.01,0.41-0.17c0.06-0.15,0.07-0.32,0.03-0.47
	c-0.11-0.51-0.67-0.9-0.33-1.52c0.04-0.07-0.12-0.31-0.24-0.41c-0.31-0.18-0.57-0.44-0.74-0.76c0-0.01-0.01-0.02-0.01-0.03
	c-0.13-0.21-0.41-0.27-0.61-0.14c-0.38,0.18-0.74,0.42-1.12,0.58c-1.66,0.8-3.62,0.7-5.19-0.27c-0.56-0.33-1.11-0.71-1.66-1.07
	c-1.04-0.82-1.88-1.86-2.46-3.04c-0.02-0.06-0.03-0.12-0.03-0.18c0-0.02-0.01-0.04-0.01-0.05c0.01-0.17,0.14-0.31,0.31-0.31
	c0.1-0.02,0.19-0.03,0.29-0.04c-0.29-0.66-0.23-0.84,0.28-1.08c0.48-0.25,1.02-0.38,1.56-0.38h2.54c0.24,0,0.49,0.02,0.73,0
	c0.09,0,0.18-0.1,0.25-0.16c-0.01-0.06-0.04-0.11-0.08-0.15c-0.82-0.82-1.36-1.87-1.54-3c-0.15-0.9-0.17-1.81-0.06-2.71
	c0.12-0.88,0.3-1.76,0.52-2.62c0.35-1.09,0.88-2.11,1.56-3.02c0.05-0.11,0.14-0.2,0.25-0.25c0.24-0.1,0.52,0,0.62,0.24
	c0.78,1.49,1.65,2.95,2.28,4.5c0.64,1.38,0.73,2.95,0.27,4.39c-0.26,1.11-0.6,2.19-1.01,3.25c-0.02,0.03-0.04,0.06-0.05,0.09
	c-0.1,0.26,0.02,0.56,0.29,0.66c0.29,0.21,0.61,0.38,0.94,0.53c0.16,0.02,0.32-0.05,0.42-0.18c0.11-0.21,0.08-0.48,0.17-0.69
	c0.89-1.51,2.14-2.77,3.64-3.66c0.03-0.01,0.06-0.02,0.09-0.03c0.21-0.04,0.42,0.1,0.46,0.31c0.05,0.84,0.19,1.67,0.43,2.48
	c0.28,0.92,0.42,1.88,0.41,2.84c-0.01,0.3,0.18,0.48,0.44,0.44c0.4-0.07,0.62,0.25,0.94,0.34c0.19-0.99-0.25-1.96-0.04-2.94
	c-0.2-0.76-0.08-1.56,0.32-2.23c0.34-0.71,0.89-1.31,1.57-1.7c0.42-0.24,0.81-0.5,1.2-0.79c0.01-0.01,0.03-0.02,0.04-0.03
	c0.18-0.15,0.21-0.42,0.06-0.6c-0.22-0.36-0.46-0.7-0.72-1.03c-0.19-0.23-0.51-0.3-0.79-0.18c-1.17,0.34-2.43,0.19-3.48-0.42
	c-0.29-0.21-0.61-0.38-0.95-0.52c-1.41-0.47-2.41-1.73-2.55-3.21c-0.14-0.83-0.15-1.69-0.03-2.52c0.11-0.47,0.31-0.91,0.58-1.3
	c0.13-0.22,0.41-0.3,0.64-0.18c0.8,0.41,1.65,0.71,2.53,0.91c0.47,0.09,0.92,0.29,1.3,0.59c0.13,0.11,0.22,0.12,0.27-0.04
	c0.03-0.05,0.03-0.12,0-0.17c-0.38-0.55-0.75-1.09-1.14-1.62c-0.21-0.29-0.45-0.56-0.63-0.87c-0.87-1.46-1.23-3.16-1.04-4.85
	c0.14-1.32,0.73-2.55,1.67-3.49c0.18-0.19,0.38-0.28,0.61-0.08c0.2,0.23,0.43,0.43,0.67,0.6c1.64,0.87,2.26,2.42,2.75,4.06
	c0.09,0.35,0.14,0.7,0.18,1.06c0.48-0.01,0.62-0.48,0.94-0.7c0.34-0.25,0.63-0.57,0.95-0.84c0.5-0.44,1.1-0.73,1.75-0.86
	c1.69-0.42,3.42-0.63,5.15-0.63c0.12,0.01,0.25,0,0.36-0.02c0.25-0.05,0.5-0.16,0.47-0.45c0.03-0.48,0.17-0.94,0.41-1.36
	c0.03-0.07-0.07-0.2-0.13-0.29c-0.04-0.03-0.1-0.05-0.16-0.03c-0.56,0.23-1.11,0.45-1.66,0.69c-1.25,0.44-2.61,0.53-3.91,0.24
	c-0.41-0.09-0.79-0.29-1.1-0.59c-1.67-1.3-2.98-3.02-3.81-4.97c-0.03-0.11-0.01-0.23,0.06-0.33c0.08-0.08,0.19-0.12,0.31-0.11
	c0.25,0.06,0.48,0.41,0.75,0.03c1.2-0.52,2.44-0.96,3.7-1.32c0.56-0.2,1.17-0.21,1.74-0.01c0.22,0.08,0.46,0.11,0.7,0.08
	c0.61-0.01,1.21,0.11,1.75,0.36c0.66,0.29,1.36,0.49,2.04,0.7c0.09,0.03,0.22-0.05,0.33-0.09c-0.02-0.05-0.05-0.1-0.07-0.14
	c-0.67-0.87-1.5-1.58-2.46-2.1c-0.32-0.17-0.65-0.3-0.99-0.4c-0.44,0.35-0.89-0.18-1.37,0.03c-0.46,0.13-0.93,0.23-1.4,0.3
	c-0.64,0.21-1.34,0.02-1.79-0.48c-0.43-0.42-0.87-0.84-1.27-1.29c-0.56-0.55-1.04-1.17-1.44-1.84c-0.39-0.79-0.57-1.69-0.96-2.5
	c-0.05-0.11-0.05-0.24-0.01-0.35c0.32-1.01,0.21-2.16,1-3.03c0.44-0.49,0.78-1.07,1.18-1.6c0.03-0.04,0.07-0.08,0.12-0.1
	c0.22-0.13,0.5-0.05,0.63,0.18c0.36,0.47,0.37,1.11,0.84,1.57c0.6,0.59,1.13,1.25,1.6,1.95c1.26,1.69,2.26,3.55,2.97,5.53
	c0.05,0.24,0.15,0.45,0.3,0.64c0.47,0.48,1.08,0.79,1.74,0.89c0.16-0.02,0.3-0.13,0.36-0.28c0.03-0.24-0.01-0.48-0.1-0.7
	c-0.23-0.55-0.5-1.09-0.8-1.62c-0.33-0.57-0.5-1.23-0.5-1.89c0.08-0.66-0.01-1.33-0.25-1.95c-0.14-0.41-0.11-0.85,0.08-1.23
	c0.24-0.62,0.35-1.28,0.58-1.89c0.28-0.86,0.78-1.63,1.45-2.24c0.02-0.02,0.05-0.04,0.08-0.06c0.31-0.16,0.68-0.05,0.85,0.25
	c0.17,0.45,0.39,0.88,0.63,1.29c1.15,1.52,1.56,3.37,2.29,5.08c0.09,0.22,0.08,0.47-0.01,0.69c-1.11,2.37-0.27,2.1-2.51,4.07
	c-0.09,0.07-0.15,0.19-0.24,0.27c-0.3,0.31-0.4,0.76-0.25,1.16c0.51,1.74,1.46,3.31,2.75,4.58c0.04,0.05,0.09,0.08,0.14,0.1
	c0.05,0.02,0.1,0.02,0.14,0c0.05-0.03,0.11-0.1,0.1-0.14c-0.17-0.87-0.36-1.74-0.54-2.61c-0.03-0.16-0.14-0.39-0.07-0.5
	c0.37-0.62,0.01-1.36,0.31-1.94c0.37-0.55,0.76-1.08,1.19-1.58c0.27-0.39,0.42-0.88,0.72-1.24c0.42-0.37,0.48-1,0.13-1.43
	c-0.74-1.32-1.15-2.79-1.19-4.3c-0.03-0.83,0.04-1.66,0.21-2.48c0.01-0.06,0.02-0.12,0.05-0.18c0.13-0.27,0.46-0.38,0.72-0.25
	c0.55,0.26,1.07,0.56,1.56,0.91c0.51,0.41,1.07,0.77,1.65,1.08c0.88,0.41,1.62,1.06,2.15,1.87c0.42,0.51,0.7,1.11,0.82,1.76
	c0.07,0.41,0.19,0.81,0.36,1.19c0.02,0.05,0.08,0.08,0.12,0.11c0.03-0.05,0.08-0.1,0.09-0.15c0.05-0.48,0.13-0.95,0.23-1.42
	c0.3-1.35,0.13-2.76-0.49-4c-0.13-0.4-0.34-0.77-0.62-1.09c-1.13-1.07-2.1-2.3-2.85-3.67c-0.73-0.74-1.07-1.78-0.9-2.81
	c0.01-0.48-0.04-0.97,0.02-1.45c0.11-1.32,0.52-2.6,1.19-3.74c0.02-0.03,0.04-0.06,0.06-0.08c0.2-0.28,0.59-0.35,0.87-0.15
	c2.25,1.56,4.04,3.44,4.43,6.3c0.02,0.22,0.17,0.28,0.37,0.18c0.22-0.09,0.44-0.2,0.63-0.34c0.92-0.69,1.95-1.2,3.06-1.5
	c0.8-0.29,1.26,0.06,1.3,0.94c0.02,0.55-0.04,1.1,0.03,1.63c0.15,1.27-0.1,2.55-0.73,3.66c-0.59,1.38-1.56,2.57-2.8,3.43
	c-0.46,0.27-0.86,0.65-1.14,1.11c-0.3,0.52-0.57,0.7-1.11,0.47c-0.07-0.03-0.26,0.07-0.28,0.15c-0.09,0.23-0.13,0.46-0.12,0.7
	c0.05,0.85-0.14,1.69-0.54,2.44c-0.22,0.49-0.4,1-0.53,1.52c-0.01,0.12,0.04,0.24,0.12,0.32c0.06,0.04,0.22,0,0.3-0.04
	c0.75-0.4,1.25-1.13,1.36-1.97c0.03-0.21,0.14-0.53,0.3-0.6c0.9-0.47,1.85-0.84,2.84-1.1c1.19-0.24,2.43-0.06,3.5,0.53
	c0.26,0.14,0.54,0.27,0.81,0.4s0.55,0.24,0.83,0.34c0.11,0.03,0.23,0,0.31-0.08c0.06-0.1,0.08-0.22,0.04-0.33
	c-0.37-0.68-0.59-1.45-0.62-2.23c0.11-0.85-0.15-1.7-0.72-2.34c-0.13-0.13,0.05-0.57,0.23-0.61c0.23-0.06,0.46-0.1,0.7-0.12
	c1.08,0.04,2.15,0.24,3.17,0.59c0.91,0.32,1.75,0.79,2.5,1.4c0.04,0.02,0.09,0.04,0.14,0.05c0.04-0.1,0.13-0.24,0.1-0.31
	c-0.49-0.76-0.74-1.65-0.74-2.55c-0.32-0.6-0.34-1.31-0.05-1.92c0.04-0.17,0.01-0.35-0.07-0.51c-0.12-0.34-0.13-0.71-0.02-1.05
	c0.33-1.16,0.82-2.26,1.45-3.29c0.29-0.53,0.72-0.97,1.23-1.28c0.47-0.27,0.99-0.46,1.41-0.76c0.74-0.53,1.69-0.69,2.57-0.43
	c0.16,0.05,0.27,0.14,0.46,0.04c0.69-0.37,1.43-0.1,2.14-0.16c0.92-0.08,1.82,0.22,2.51,0.82c0.41,0.35,0.84,0.67,1.29,0.97
	c0.07,0.05,0.34-0.07,0.43-0.18c0.07-0.16,0.13-0.33,0.15-0.5c0.17-0.57,0.34-1.14,0.53-1.7c0.09-0.23,0.34-0.34,0.56-0.25
	c0.28,0.1,0.55,0.25,0.78,0.43c0.73,0.73,1.42,1.49,2.1,2.25c0.24,0.26,0.43,0.58,0.66,0.86c0.09,0.07,0.19,0.13,0.3,0.17
	c0.06-0.11,0.11-0.21,0.15-0.32c0.12-0.9,0.45-1.75,0.94-2.51c0.8-0.95,1.39-2.14,2.69-2.59c0.11-0.04,0.21-0.12,0.27-0.23
	c0.19-0.39,0.56-0.66,0.99-0.71c0.52,0.01,0.36,0.74,0.6,0.97c0.44,0.47,0.72,1.06,0.81,1.7c0.27,0.86,0.24,1.79-0.08,2.64
	c-0.19,0.51-0.33,1.03-0.43,1.57c-0.16,0.77-0.56,1.47-1.14,2.01c-0.43,0.41-0.87,0.83-1.3,1.25c-0.03,0.03-0.03,0.1-0.04,0.15
	c0.1,0.03,0.24,0.11,0.31,0.07c0.39-0.16,0.76-0.36,1.11-0.6c1.46-0.97,3.18-1.5,4.94-1.51c1.07-0.05,2.15,0.07,3.2,0.34
	c0.08,0.01,0.16,0.04,0.23,0.09c0.29,0.18,0.37,0.57,0.18,0.86c-1.36,1.87-3.27,3.26-5.46,3.99c-0.17,0.05-0.34,0.09-0.52,0.1
	c-1.15,0.15-2.31-0.03-3.35-0.53c-0.27-0.13-0.54-0.26-0.8-0.4c-0.22-0.13-0.5-0.07-0.65,0.12c-0.68,0.62-1.07,1.49-1.08,2.41
	c-0.01,0.18,0.03,0.35,0.13,0.5c0.6,0.6,1.07,1.31,1.39,2.09c0.07,0.16,0.15,0.16,0.29,0.05c0.51-0.42,1.04-0.82,1.54-1.25
	c0.41-0.35,0.77-0.78,1.21-1.09c1.23-0.98,2.75-1.51,4.32-1.5c0.78,0.1,1.58,0,2.32-0.27c0.29-0.07,0.59-0.03,0.85,0.11
	c0.32,0.19,0.71,0.17,1.02-0.03c0.3-0.2,0.63-0.36,0.97-0.48c0.17-0.04,0.35,0,0.49,0.11c0.4,0.28,0.68,0.7,0.78,1.18
	c0.07,0.35,0.17,0.7,0.29,1.04c0.12,0.42,0.13,0.42,0.6,0.17c0.27-0.13,0.53-0.28,0.78-0.45c0.52-0.37,0.53-0.59,0.05-0.95
	c-0.24-0.17-0.53-0.3-0.75-0.5c-0.52-0.42-1-0.87-1.46-1.35c-0.06-0.06-0.11-0.12-0.16-0.19c-0.53-0.74-0.35-1.77,0.39-2.29
	c0.96-0.52,2.02-0.81,3.1-0.86c0.54,0.02,1.08-0.03,1.62-0.05c0.04,0,0.1-0.07,0.1-0.1c-0.01-0.06-0.04-0.11-0.09-0.15
	c-0.2-0.13-0.41-0.34-0.61-0.33c-1.08-0.05-2.15-0.2-3.2-0.46c-1.88-0.26-3.5-1.46-4.32-3.17c-0.18-0.38-0.36-0.77-0.56-1.13
	c-0.66-1.48-1.07-3.06-1.22-4.68c-0.01-0.42,0.1-0.84,0.34-1.2c0.08-0.2,0.21-0.18,0.35,0c0.1,0.14,0.22,0.31,0.37,0.35
	c1.2,0.4,2.35,0.93,3.43,1.59c1.28,0.56,2.38,1.46,3.19,2.6c0.08,0.09,0.19,0.13,0.3,0.13c0.11-0.03,0.2-0.1,0.23-0.2
	c0.09-1.15,0.57-2.24,1.37-3.07l0.05-0.05c0.13-0.19,0.09-0.44-0.09-0.58c-0.47-0.47-0.93-0.94-1.41-1.4
	c-0.78-0.76-1.37-1.7-1.71-2.74c-0.57-1.2-0.77-2.54-0.59-3.85c0-0.05,0.01-0.09,0.02-0.14c0.11-0.38,0.51-0.61,0.89-0.5
	c0.56,0.23,1.16,0.33,1.76,0.31c0.93-0.12,1.77,0.36,2.67,0.33c0.89,0.12,1.75,0.43,2.51,0.92c0.05,0.02,0.13,0.08,0.16,0.07
	c0.16-0.06,0.3-0.15,0.41-0.27c0.11-0.14,0.17-0.32,0.17-0.5c0.02-0.97,0.37-1.91,0.98-2.67c0.55-0.87,1.26-1.62,2.09-2.21
	c1.98-1.14,4.2-1.78,6.48-1.86c1.45,0.06,2.86,0.53,4.05,1.36c0.95,0.53,1.68,1.38,2.07,2.4c0.11,0.35,0.42,0.61,0.78,0.67
	c0.23,0.06,0.46,0.15,0.67,0.27c0.78,0.29,1.53,0.65,2.25,1.07c0.75,0.61,1.41,1.32,1.94,2.13c0.32,0.58,0.59,1.17,0.81,1.79
	c0.12,0.22,0.16,0.39,0.49,0.31c0.88-0.2,1.77-0.35,2.66-0.49c0.23-0.03,0.48-0.01,0.71,0.05c0.98,0.25,1.91,0.73,2.9,0.91
	c1.02,0.11,2.05,0.16,3.07,0.13c0.17,0.01,0.34,0.14,0.51,0.17c0.06,0.01,0.16-0.11,0.21-0.19c0.03-0.05,0.03-0.12-0.01-0.17
	c-0.27-0.22-0.56-0.43-0.84-0.65c-1.42-1.23-3.28-1.86-5.16-1.73c-0.97,0.03-1.92-0.25-2.72-0.81c-0.25-0.16-0.49-0.35-0.71-0.56
	c-0.87-0.75-1.57-1.68-2.04-2.73c-0.49-1.08-0.89-2.25-2.05-2.87c-0.04-0.03-0.08-0.08-0.11-0.14c-0.03-0.05-0.05-0.1-0.07-0.16
	c-0.01-0.06-0.05-0.14-0.02-0.17c0.06-0.09,0.16-0.22,0.24-0.22c0.66-0.07,1.32-0.02,1.97,0.14c0.67,0.29,1.3-0.1,1.91,0.14
	c0.26,0.1,0.49,0.04,0.5-0.29c0.03-0.66,0.04-1.33,0.03-1.99c-0.01-0.61,0.14-1.21,0.45-1.73c0.92-1.62,1.96-3.18,3.09-4.66
	c0.05-0.04,0.11-0.08,0.17-0.1c0.23-0.07,0.47,0.05,0.55,0.27c0.21,0.88,0.35,1.77,0.61,2.62c0.29,1.05,0.31,2.15,0.06,3.2
	c-0.28,1.04-0.63,2.06-1.07,3.05c-0.23,0.56-0.28,1.18-0.13,1.77c0.36,1.15,0.78,2.27,1.26,3.36c0.24,0.58,0.75,0.99,1.37,1.09
	c0.11,0.01,0.23,0,0.35-0.03c0.16-0.04,0.15-0.13,0.07-0.28c-0.27-0.47-0.52-0.95-0.73-1.45c-0.2-0.49-0.32-1.02-0.47-1.53
	c0.23-0.99,0.31-2.02,0.24-3.04c0.03-0.42,0.18-0.82,0.44-1.15c0.51-0.66,0.94-1.38,1.43-2.06c0.14-0.19,0.34-0.43,0.55-0.46
	c0.63-0.09,1.04-0.57,1.57-0.84c0.21-0.11,0.43-0.21,0.66-0.3c0.34-0.13,0.88,0.37,0.8,0.75c-0.03,0.18-0.08,0.35-0.15,0.51
	c-0.3,0.59-0.62,1.17-0.93,1.76c-0.77,1.29-1.43,2.64-1.96,4.05c-0.4,1.09-0.35,2.29,0.12,3.34c0.2,0.44,0.3,0.91,0.52,1.34
	c0.16,0.24,0.36,0.46,0.6,0.65c0.09,0.03,0.18,0.01,0.26-0.04c0.18-0.5,0.33-1.02,0.45-1.55c0.11-0.65,0.37-1.27,0.76-1.81
	c0.89-1.14,1.9-2.19,2.99-3.14c0.05-0.04,0.3,0.1,0.42,0.2c0.09,0.08,0.14,0.2,0.15,0.32c0.13,1.55,0.46,3.09,0.99,4.55
	c0.28,0.79,0.46,1.61,0.54,2.44c0.06,1.21-0.12,2.41-0.52,3.54c-0.65,1.78-0.24,2.76,1.38,3.78c0.21,0.13,0.38,0.32,0.58,0.44
	c0.14,0.1,0.31,0.16,0.49,0.17c0.17,0.01,0.35-0.05,0.48-0.17c0.07-0.15,0.05-0.33-0.04-0.47c-0.58-0.53-0.99-1.23-1.17-1.99
	c-0.11-0.42,0-0.74,0.39-0.86c1.22-0.5,2.46-0.94,3.73-1.31c0.1-0.02,0.2-0.08,0.25-0.17c0.11-0.18,0.05-0.4-0.12-0.5
	c-0.85-0.57-1.49-1.41-1.81-2.39c-0.01-0.17,0.069-0.33,0.2-0.43c0.729-0.27,1.51-0.41,2.29-0.42c0.3,0.03,0.6,0.03,0.899,0
	c0.47-0.02,0.58-0.16,0.561-0.71c-0.011-0.18-0.03-0.36-0.051-0.54c-0.029-0.26-0.14-0.46-0.43-0.46c-0.49-0.02-0.97-0.04-1.46-0.03
	c-0.61,0-1.2-0.21-1.67-0.6c-1.33-0.96-2.27-2.38-2.63-3.99c-0.15-0.76-0.24-1.54-0.27-2.31c-0.03-0.54-0.11-1.08-0.24-1.6
	c-0.16-0.83-0.35-1.64-0.5-2.46c-0.01-0.07,0.11-0.18,0.19-0.25c0.01-0.02,0.13,0.03,0.15,0.07c0.16,0.25,0.31,0.51,0.44,0.77
	c0.15,0.34,0.49,0.55,0.86,0.54c0.66,0.04,1.31,0.13,1.96,0.25c0.97,0.12,1.81,0.74,2.22,1.63c0.431,0.79,0.811,1.61,1.221,2.41
	c0.17,0.32,0.359,0.63,0.56,0.92c0.08,0.05,0.17,0.07,0.26,0.04c0.29-0.53,0.54-1.08,0.851-1.6c0.409-0.95,1.239-1.66,2.25-1.92
	c0.25-0.03,0.3-0.34,0.13-0.57c-0.23-0.42-0.53-0.79-0.9-1.09c-0.32-0.18-0.82-0.04-1.25-0.04c-0.18,0-0.36-0.01-0.54,0
	c-1.34,0.22-2.689-0.24-3.62-1.23c-0.14-0.11-0.29-0.21-0.45-0.3c-0.539-0.28-1.029-0.61-1.49-1.01c-0.36-0.47-0.67-0.98-0.92-1.53
	c-0.03-0.05-0.09-0.09-0.1-0.14c-0.03-0.17-0.08-0.37,0.13-0.47c0.37-0.19,0.75-0.37,1.129-0.56c1.57-0.87,3.5-0.72,4.921,0.38
	c0.149,0.1,0.29,0.23,0.43,0.34c0.14,0.11,0.29,0.22,0.43,0.32c0.101-0.18,0.17-0.39,0.2-0.6c0.08-0.77,0.29-1.53,0.6-2.24
	c0.4-1.07,1.021-2.03,1.83-2.84c0.09-0.08,0.19-0.15,0.301-0.2c0.229-0.08,0.489,0,0.63,0.2c0.069,0.1,0.18,0.2,0.199,0.3
	c0.381,1.52,0.921,2.99,1.601,4.39c0.64,1.22,1.01,2.58,1.06,3.96c0.011,0.06,0.021,0.12,0.03,0.17c0.03,0.18,0.11,0.2,0.27,0.1
	c0.25-0.15,0.53-0.28,0.78-0.44c0.5-0.33,0.97-0.71,1.49-1.01c0.36-0.24,0.83-0.24,1.19-0.01c0.35,0.25,0.199,0.67,0.14,1.01
	c-0.03,0.18-0.2,0.33-0.21,0.5c-0.07,1.38-0.22,2.75-0.43,4.11c-0.021,0.08,0.09,0.18,0.14,0.27c0.05-0.04,0.09-0.09,0.12-0.14
	c0.25-0.48,0.52-0.95,0.729-1.45c0.15-0.32,0.38-0.38,0.7-0.42c0.65-0.09,1.29-0.26,1.93-0.39c0.29-0.06,0.65-0.03,0.851-0.19
	c0.3-0.23-0.07-0.54-0.07-0.82c0.01-0.87,0.05-1.73,0.101-2.6c0.029-0.12,0.069-0.23,0.13-0.34c0.149-0.38,0.34-0.5,0.68-0.32
	c0.58,0.42,1.34,0.54,2.03,0.33c0.71,0.1,1.399,0.29,2.06,0.57c0.45,0.31,0.84,0.69,1.26,1.04c0.46-0.44,0.471-1.08,0.69-1.62
	c0.06-0.11,0.13-0.2,0.21-0.3c0.68-1.07,1.6-1.96,2.69-2.62c0.22-0.12,0.5-0.06,0.63,0.16c0.949,1.24,1.56,2.72,1.75,4.27
	c0.02,0.3-0.011,0.6-0.091,0.89c-0.05,0.37,0.061,0.5,0.41,0.44c0.34-0.06,0.63-0.42,1.021-0.22c0.569,0.2,1.18,0.26,1.78,0.17
	c1.51-0.03,2.989,0.38,4.27,1.18c0.66,0.44,0.7,0.41,1.04-0.43c0.41-1.08,1.2-1.98,2.22-2.52c0.95-0.52,1.88-1.08,2.811-1.62
	c0.149-0.09,0.229-0.1,0.3,0.05c0.16,0.32,0.29,0.66,0.399,1c0.37,1.65,0.521,3.34,0.431,5.03c-0.03,0.6-0.181,1.19-0.44,1.73
	c-0.51,1.09-1.13,2.13-1.84,3.1c-0.229,0.28-0.36,0.63-0.36,0.99c-0.02,0.36-0.119,0.71-0.159,1.06c-0.07,0.6-0.131,1.2-0.181,1.8
	c-0.01,0.16,0.25,0.33,0.38,0.25c0.46-0.28,0.92-0.56,1.36-0.86c0.33-0.19,0.51-0.55,0.46-0.92c-0.03-0.73,0.09-1.45,0.36-2.12
	c0.58-1.77,1.54-3.4,2.819-4.75c0.891-1.01,2.19-1.57,3.54-1.52c0.61,0.03,1.21,0.03,1.811,0c0.5-0.01,0.96,0.22,1.26,0.61
	c0.37,0.45,0.4,0.71,0.01,1.1c-1.42,1.31-2.66,2.8-3.7,4.43c-0.27,0.46-0.6,0.9-0.899,1.35c-0.14,0.2-0.25,0.41-0.37,0.62
	c-0.02,0.03-0.04,0.06-0.05,0.1c-0.08,0.19,0.02,0.41,0.22,0.49c0.42,0.09,0.8,0.28,1.11,0.57c0.84,0.7,1.55,1.54,2.09,2.48
	c0.13,0.26,0.229,0.56,0.56,0.68c0.23,0.07,0.19,0.26,0.101,0.42c-0.141,0.25-0.2,0.52-0.53,0.68c-1.32,0.74-2.81,1.11-4.32,1.08
	c-2.12-0.11-4.04-0.58-5.3-2.5c-0.03-0.05-0.07-0.09-0.12-0.13c-0.31-0.27-0.63-0.64-1.05-0.5c-0.21,0.07-0.29,0.49-0.43,0.74
	c-0.21,0.37-0.42,0.73-0.65,1.08c-0.229,0.35-0.64,0.67-0.68,1.04c-0.061,0.47,0.59,0.48,0.859,0.77c0.181,0.16,0.33,0.35,0.45,0.56
	c0.391,0.81,0.78,1.62,1.11,2.46c0.21,0.55,0.3,1.16,0.47,1.73c0.141,0.46,0.45,0.55,0.75,0.25c0.34-0.34,0.67-0.69,1.03-1.02
	c0.84-0.76,0.93-0.74,1.59,0.2c0.03,0.05,0.06,0.12,0.11,0.14c0.08,0.04,0.17,0.07,0.26,0.07c0.36-0.48,0.62-1.02,0.77-1.6
	c0.141-0.84,0.57-1.6,1.21-2.15c0.28-0.33,0.54-0.32,0.96-0.13c0.431,0.2,0.811,0.53,1.07,0.94c0.51,0.74,1.01,1.5,1.48,2.27
	c0.189,0.31,0.33,0.64,0.42,0.99c0.35,1.58,0.95,3.12,0.729,4.78c-0.02,0.06-0.01,0.13,0.011,0.18c0.06,0.08,0.14,0.15,0.22,0.21
	c0.04-0.04,0.109-0.09,0.109-0.13c0.021-0.66-0.02-1.33,0.04-1.98c0.061-0.65,0.271-1.29,0.32-1.94c0.13-1.73,1.03-3.17,1.6-4.74
	c0.841-0.69,0.631-1.43,0.181-2.24c-0.25-0.41-0.42-0.87-0.49-1.34c-0.16-0.89-0.19-1.8-0.1-2.7c0.09-0.63,0.27-1.28,0.34-1.93
	c0.04-0.24,0.1-0.47,0.189-0.69c0.37-1.08,0.811-2.13,1.33-3.15c0.431-0.8,1-1.51,1.7-2.1c0.01-0.01,0.021-0.02,0.04-0.03
	c0.14-0.09,0.33-0.05,0.42,0.09c0.15,0.19,0.271,0.4,0.36,0.62c0.39,1,0.79,2,1.14,3.02c0.67,1.94,1.25,3.88,0.63,5.97
	c-0.12,0.38,0.03,0.49,0.431,0.45c0.35-0.08,0.71-0.09,1.06-0.03c0.58,0.17,1.18,0.27,1.79,0.29c0.229,0.02,0.47,0.08,0.69,0.16
	c1.859,0.8,1.689,0.73,0.949,2.3c-0.56,1.42-1.68,2.55-3.109,3.12c-0.78,0.31-1.57,0.58-2.38,0.8c-1.061,0.32-2.221,0.06-3.04-0.68
	c-0.141-0.13-0.271-0.25-0.391-0.38c-0.25-0.26-0.47-0.07-0.59,0.1c-0.31,0.36-0.56,0.77-0.75,1.22c-0.34,0.95-0.61,1.94-0.78,2.94
	c-0.08,0.91-0.08,1.81,0,2.71c0.03,0.31,0.141,0.59,0.33,0.83c0.17,0.16,0.391,0.25,0.61,0.28c0.25,0.05,0.5-0.1,0.58-0.34
	c0.13-0.33,0.24-0.68,0.33-1.03c0.2-0.76,0.609-1.44,1.189-1.98c0.221-0.2,0.44-0.41,0.65-0.62c0.95-0.95,2.229-1.5,3.57-1.51
	c0.909-0.01,1.819-0.03,2.72,0c0.3,0.02,0.59,0.11,0.85,0.25c0.21,0.12,0.391,0.29,0.521,0.48c0.2,0.26-0.09,0.43-0.181,0.63
	c-0.369,0.82-0.739,1.65-1.14,2.45c-0.49,0.98-1.229,1.81-2.14,2.41c-0.351,0.24-0.71,0.47-1.05,0.71
	c-0.07,0.06-0.131,0.14-0.181,0.22c0.11,0.03,0.23,0.08,0.34,0.1c0.24,0.02,0.48,0.07,0.7,0.16c0.771,0.47,1.53,0.95,2.271,1.47
	c0.18,0.16,0.449,0.14,0.609-0.04c0.7-0.45,1.29-1.05,1.73-1.77c0.6-1.04,1.6-1.81,2.76-2.14c0.89-0.3,0.87-0.32,0.271-1.07
	c-0.311-0.37-0.58-0.77-0.811-1.19c-0.3-0.66-0.7-1.27-1.189-1.8c-0.24-0.28-0.37-0.64-0.36-1c-0.16-1.8,0-3.62,0.45-5.37
	c0.1-0.42,0.41-0.6,0.77-0.43c0.54,0.27,1.11,0.46,1.7,0.58c0.65,0.14,1.27,0.38,1.84,0.7c0.39,0.16,0.71,0.46,0.9,0.83
	c0.42,0.87,0.569,1.85,0.43,2.8c-0.2,0.7-0.29,1.42-0.28,2.14c0,0.48-0.1,0.96-0.29,1.4c-0.01,0.06,0,0.11,0.03,0.16
	c0.09,0.02,0.18,0.01,0.271-0.02c0.39-0.15,0.77-0.32,1.14-0.51c0.46-0.26,0.46-0.82,0.77-1.19c0.311-0.37,0.61-0.76,0.94-1.11
	c0.26-0.25,0.43-0.58,0.46-0.94c0.07-0.41,0.16-0.82,0.28-1.23c0.51-2.19,1.92-4.08,3.88-5.2c0.6-0.28,1.21-0.53,1.83-0.74
	c0.05-0.01,0.09-0.02,0.13-0.01c0.21,0.02,0.35,0.21,0.32,0.41c-0.091,0.53-0.23,1.05-0.28,1.58c-0.021,1.32-0.38,2.62-1.061,3.75
	c-0.06,0.08,0.061,0.37,0.17,0.44c0.2,0.12,0.431,0.18,0.671,0.18c0.409-0.03,0.819-0.17,1.229-0.2c0.66-0.05,0.93,0.31,0.67,0.87
	c-0.33,0.7-0.68,1.41-1.07,2.08c-0.18,0.32-0.43,0.59-0.739,0.78c-1.03,0.58-1.931,1.46-3.271,1.36c-0.42,0.04-0.819,0.17-1.17,0.39
	c-0.81,0.45-1.8,0.44-2.59-0.03c-0.26-0.15-0.54-0.27-0.82-0.36c-0.17-0.05-0.359-0.04-0.52,0.05c-0.391,0.29-0.74,0.62-1.101,0.94
	c-0.04,0.04-0.09,0.13-0.069,0.16c0.05,0.07,0.13,0.17,0.21,0.18c0.359,0.06,0.72,0.08,1.09,0.07c1.56-0.03,3.11,0.32,4.52,1.02
	c0.551,0.22,1.12,0.42,1.69,0.61c0.16,0.07,0.34,0.09,0.51,0.05c0.7-0.19,1.431-0.27,2.15-0.24c1.33-0.14,1.37-0.02,1.31,1.4
	c-0.02,0.37-0.16,0.72-0.399,0.99c-0.271,0.24-0.511,0.51-0.7,0.81c-0.72,1.53-2.23,1.92-3.58,2.53c-0.23,0.07-0.48,0.08-0.71,0.05
	c-0.55,0-1.1-0.07-1.63-0.02c-0.9,0.07-1.8-0.16-2.57-0.63c-1.25-0.61-2.229-1.67-2.74-2.96c-0.22-0.62-0.489-1.23-0.75-1.84
	c-0.01-0.04-0.04-0.08-0.069-0.12c-0.19-0.25-0.551-0.3-0.801-0.11c-1.14,0.81-2.14,1.79-2.979,2.9c-0.43,0.45-0.53,1.12-0.23,1.67
	c0.131,0.47,0.16,0.95,0.101,1.43v0.09c0.04,0.21,0.229,0.36,0.45,0.33c0.18,0.01,0.359,0,0.54-0.04c0.93-0.26,1.89-0.35,2.859-0.27
	c0.9-0.03,1.8,0.2,2.58,0.66c0.84,0.47,1.65,1,2.46,1.5c0.181,0.11,0.2,0.56,0.021,0.63c-0.84,0.33-1.46,1.07-2.4,1.23
	c-0.28,0.1-0.54,0.25-0.77,0.44c-0.07,0.04-0.131,0.09-0.17,0.16c-0.131,0.19-0.07,0.45,0.13,0.57c0.489,0.45,0.87,1.01,1.12,1.62
	c0.149,0.36,0.42,0.37,0.71,0.44c0.119,0.01,0.239,0.09,0.3,0.19c0.12,0.2,0.06,0.45-0.13,0.57c-1.221,0.9-2.7,1.38-4.221,1.37
	c-0.359,0-0.729,0.01-1.09,0.05c-0.41,0.04-0.55,0.17-0.569,0.54c-0.011,0.42,0.02,0.85-0.021,1.27c-0.11,1.13-0.25,2.26-0.4,3.39
	c-0.06,0.23-0.14,0.46-0.239,0.67c-0.15,0.43,0.13,0.69,0.41,0.9c0.1,0.07,0.42,0.03,0.46-0.04c0.189-0.38,0.279-0.79,0.449-1.17
	c0.261-0.67,0.58-1.32,0.96-1.93c0.521-0.74,1.11-1.43,1.761-2.06c0.409-0.35,0.87-0.64,1.359-0.85c0.12-0.07,0.25-0.1,0.38-0.09
	c0.36,0.03,0.631,0.35,0.601,0.71c0.05,0.3,0.03,0.61-0.04,0.9c-0.24,0.69-0.32,1.42-0.24,2.14c-0.04,1.54-0.02,1.55,1.39,1.02
	c0.44-0.17,0.87-0.4,1.301-0.62c0.88-0.43,0.85-0.42,0.229-1.28c-0.32-0.43-0.58-0.91-0.74-1.42c-0.239-0.68-0.35-1.4-0.319-2.11
	c0.149-0.65,0.41-1.26,0.779-1.82c0.54-1,1.101-2,1.71-2.96c0.44-0.57,0.811-1.2,1.091-1.87c0.029-0.06,0.069-0.11,0.13-0.16
	c0.2-0.14,0.47-0.09,0.609,0.1c0.66,0.94,1.471,1.75,2.2,2.63c0.69,0.78,1.07,1.78,1.08,2.82c0.07,0.78-0.05,1.57-0.36,2.29
	c-0.029,0.06-0.029,0.12-0.01,0.17c0.061,0.17,0.141,0.15,0.28,0.06c0.2-0.13,0.45-0.19,0.64-0.33c0.49-0.35,0.95-0.73,1.42-1.1
	c-0.199-0.44-0.27-0.92-0.22-1.4c0.04-0.36,0.01-0.72-0.1-1.07c-0.33-0.85-0.3-1.8,0.1-2.62c0.51-1.83,1.65-3.4,3.22-4.45
	c0.771-0.36,1.4-0.94,1.811-1.67c0.1-0.15,0.27-0.23,0.45-0.22c0.21,0.03,0.52,0.14,0.59,0.3c0.24,0.86,0.42,1.74,0.55,2.63
	c0.23,1.24,0.33,2.51,0.28,3.77c0.02,0.24-0.011,0.49-0.09,0.71c-0.431,1.27-1.181,2.4-2.19,3.27c-0.74,0.69-1.58,1.26-2.5,1.7
	c-0.05,0.02-0.09,0.08-0.14,0.12c0.08,0.06,0.14,0.17,0.229,0.2c0.391,0.14,0.8,0.25,1.21,0.33c0.96,0.09,1.87,0.51,2.57,1.17
	c0.27,0.25,0.63,0.37,0.99,0.33c0.35,0.01,0.699,0.07,1.04,0.18c0.02,0.01,0.04,0.02,0.05,0.03c0.25,0.16,0.31,0.5,0.14,0.74
	c-0.07,0.09-0.13,0.22-0.229,0.28c-1.341,0.91-2.88,1.48-4.5,1.66c-0.48,0-0.96,0.04-1.431,0.12c-1.43,0.23-2.88,0.32-4.319,0.26
	c-0.181-0.02-0.36-0.06-0.521-0.14c-0.5-0.19-1-0.39-1.49-0.59c-0.22-0.1-0.199,0.02-0.979,0.18c-1.561,0.47-3.03,1.18-4.36,2.1
	c-0.85,0.45-1.76,0.77-2.7,0.95c-0.869,0.16-0.949,0.32-0.34,0.95c0.7,0.84,1.261,1.77,1.67,2.78c0.101,0.19,0.221,0.37,0.351,0.54
	c0.05-0.17,0.1-0.34,0.16-0.51c0.35-1.09,0.79-2.14,1.33-3.15c0.319-0.58,0.75-1.1,1.25-1.53c0.17-0.15,0.55-0.09,0.619,0.11
	c0.19,0.44,0.32,0.91,0.4,1.38c0.02,1.14,0.34,2.26,0.94,3.24c0.069,0.16,0.119,0.33,0.14,0.51c0.09,0.53,0.24,1.05,0.45,1.55
	c0.26,0.54,0.38,1.15,0.33,1.75c-0.011,0.48-0.021,0.96-0.03,1.45c-0.021,0.24-0.021,0.48,0,0.72c0.01,0.12,0.07,0.22,0.17,0.29
	c0.1,0.05,0.23,0.05,0.33-0.01c0.53-0.49,1.06-0.98,1.55-1.51c0.41-0.44,0.75-0.94,1.14-1.4c0.45-0.54,0.521-0.6,0.051-1.25
	c-0.561-0.72-0.83-1.62-0.771-2.53c0.03-0.24,0-0.48-0.09-0.71c-0.2-0.45-0.11-0.98,0.23-1.35c0.26-0.41,0.59-0.76,0.979-1.05
	c0.76-0.59,1.58-1.1,2.34-1.69c0.8-0.56,1.76-0.83,2.721-0.77c0.239,0.04,0.449,0.16,0.59,0.35c0.42,0.73,0.72,1.52,0.87,2.34
	c0.22,0.62,0.26,1.29,0.1,1.93c-0.08,0.42-0.11,0.84-0.08,1.26c-0.01,0.5,0.19,0.65,0.64,0.55c0.45-0.16,0.931-0.25,1.41-0.26
	c1.08,0.1,2.17-0.09,3.16-0.53c0.28-0.1,0.58-0.15,0.88-0.14c0.141,0,0.4,0.16,0.41,0.26c0.19,1.14,0.03,2.3-0.47,3.34
	c-0.53,0.81-1.141,1.55-1.83,2.23c-0.95,1.01-2.16,1.74-3.5,2.12c-0.351,0.08-0.69,0.19-1.03,0.33c-1.28,0.53-2.71,0.6-4.05,0.2
	c-0.6-0.06-1.16-0.36-1.55-0.84c-0.271-0.38-0.71-0.41-1.11-0.53c-0.2-0.1-0.45-0.04-0.59,0.13c-1.021,1.02-2.28,1.78-3.65,2.23
	c-0.17,0.06-0.319,0.15-0.46,0.28c-0.06,0.07-0.1,0.16-0.1,0.26c0.43,0.32,0.899,0.59,1.39,0.81c0.45,0.17,0.74-0.32,1.11-0.5
	c0.21-0.1,0.439-0.17,0.67-0.21c0.36-0.07,0.729-0.05,1.07-0.15c0.52-0.12,1.069-0.11,1.58,0.03c1.069,0.2,2.069,0.64,3.13,0.8
	c0.91,0.09,1.76,0.49,2.399,1.13c0.32,0.28,0.73,0.44,1.15,0.44c0.83,0.1,1.649,0.28,2.46,0.45c0.07,0.02,0.14,0.05,0.189,0.09
	c0.181,0.15,0.211,0.41,0.061,0.59c-0.6,0.76-1.33,1.4-2.17,1.89c-0.43,0.24-0.46,0.39-0.13,0.66c0.97,0.74,1.55,1.89,1.56,3.12
	c0.07,0.47,0.22,0.93,0.43,1.36c0.091,0.24,0.57,0.53,0.73,0.4c0.33-0.29,0.81-0.29,1.14,0c0.351,0.23,0.75,0.37,1.16,0.42
	c0.561,0.01,0.71-0.58,1.021-0.93c0.069-0.08,0.22-0.1,0.31-0.18c0-0.01,0.01-0.01,0.021-0.02c0.29-0.22,0.34-0.64,0.109-0.93
	c-0.59-0.83-1.2-1.66-1.79-2.49c-0.93-1.4-1.51-3.01-1.7-4.69c-0.06-0.48,0-0.97,0.171-1.42c0.579-1.58,1.47-3.03,2.619-4.26
	c0.29-0.32,0.601-0.3,0.931,0.02c0.689,0.68,1.17,1.54,1.38,2.48c0.27,1.17,0.36,2.38,0.26,3.58c-0.01,1.04-0.45,2.02-1.22,2.72
	c-0.36,0.33-0.68,0.69-1.01,1.04c-0.2,0.16-0.261,0.43-0.141,0.65c0.181,0.38,0.391,0.74,0.641,1.08c0.26,0.33,0.59,0.6,0.96,0.79
	c0.439,0.2,0.77-0.21,1.13-0.42c0.3-0.17,0.68-0.22,0.99-0.4c0.189-0.11,0.43-0.34,0.43-0.52c0.16-1.38,0.109-2.78-0.13-4.14
	c-0.19-0.7-0.21-1.44-0.07-2.15c0.31-1.4,0.75-2.78,1.3-4.11c0.83-1.77,2.44-3.05,4.36-3.45c0.06-0.02,0.12-0.02,0.18,0
	c0.24,0.02,0.48,0.07,0.54,0.36c0.05,0.35,0.141,0.7,0.25,1.03c0.48,0.91,0.78,1.89,0.891,2.91c0.01,0.01,0.01,0.03,0.01,0.04
	c0.05,0.23,0.27,0.38,0.5,0.34c0.18-0.03,0.35-0.09,0.52-0.12c0.98-0.29,1.99-0.47,3-0.56c0.61,0.05,1.21-0.05,1.771-0.28
	c0.069-0.03,0.149-0.05,0.229-0.04c0.3,0,0.54,0.25,0.54,0.55c0.01,1.69-0.439,3.35-1.31,4.79c-0.71,1.05-1.521,2.02-2.42,2.92
	c-0.66,0.85-1.54,1.51-2.561,1.88c-0.06,0.01-0.109,0.03-0.16,0.07c-0.119,0.13-0.22,0.28-0.319,0.41c0.08,0.07,0.16,0.13,0.26,0.18
	c1.38,0.46,2.55,1.41,3.28,2.68c0.54,0.86,0.699,0.85,1.279,0.11c0.471-0.62,0.98-1.22,1.521-1.79c0.57-0.64,1.39-1,2.25-0.98
	c1.08,0.05,2.17-0.21,3.21,0.32c0.35,0.11,0.71,0.14,1.08,0.1c1.02,0,2.05-0.01,3.08-0.02c0.3-0.01,0.6-0.04,0.899-0.03
	c0.36,0.01,0.591,0.29,0.57,0.73c-0.03,0.38,0.08,0.75-0.27,1.12c-0.721,0.72-1.36,1.5-1.94,2.33c-0.53,0.81-1.25,1.48-2.1,1.94
	c-0.851,0.57-1.79,0.98-2.79,1.2c-0.41,0.08-0.811,0.19-1.2,0.35c-0.061,0.02-0.13,0.2-0.11,0.24c0.55,0.71,1.12,1.41,1.69,2.11
	c0.14,0.18,0.31,0.08,0.45-0.04c0.56-0.46,1.1-0.95,1.68-1.37c0.57-0.46,1.29-0.7,2.02-0.65h0.04c0.301,0.01,0.54,0.27,0.521,0.57
	c-0.05,1.21,0.06,2.41,0.319,3.59c0.12,0.47,0.11,0.97-0.05,1.43c-0.149,0.58-0.229,1.18-0.239,1.78
	c-0.051,0.36-0.131,0.71-0.23,1.05c-0.12,0.41-0.35,0.87-0.04,1.19c0.21,0.22,0.67,0.19,1.01,0.28c0.17,0.05,0.34,0.12,0.5,0.19
	c0.92,0.29,1.82,0.63,2.69,1.03c0.04,0.02,0.09,0.03,0.13,0.04c0.26,0.04,0.5-0.13,0.55-0.38c0.03-0.12,0.04-0.24,0.07-0.35
	c0.29-1.25,1.01-2.35,2.04-3.11c1.38-1.09,3.069-1.71,4.819-1.79c1.49,0.03,2.971,0.12,4.461,0.2c0.239,0.03,0.47,0.09,0.699,0.18
	c0.221,0.1,0.351,0.35,0.301,0.59c-0.15,0.78-0.681,1.43-1.41,1.74c-0.931,0.31-1.73,0.9-2.32,1.67c-0.8,1.13-1.94,1.98-3.26,2.42
	c-0.51,0.17-1.01,0.38-1.51,0.58c-0.04,0.02-0.08,0.07-0.091,0.13c0.021,0.11,0.051,0.27,0.11,0.3c0.38,0.18,0.78,0.32,1.18,0.43
	c0.29,0.09,0.601,0.09,0.891,0c1.22-0.6,2.51-0.21,3.75-0.32c0.239,0,0.479,0.04,0.71,0.12c1.3,0.24,2.529,0.79,3.59,1.58
	c0.34,0.24,0.72,0.43,1.11,0.58c0.289,0.1,0.55,0.25,0.779,0.43c0.13,0.14,0.2,0.56,0.101,0.64c-0.551,0.54-1.181,0.99-1.87,1.35
	c-1.391,0.6-2.98,0.62-4.38,0.03c-1.54-0.56-2.891-1.52-3.931-2.78c-0.18-0.24-0.449-0.41-0.75-0.45c-0.56-0.1-1.12-0.22-1.67-0.33
	c0.05,0.14,0.12,0.27,0.2,0.39c1.23,1.65,2.18,3.47,2.83,5.41c0.02,0.1-0.01,0.2-0.08,0.28c-0.44,0.32-0.99,0.45-1.53,0.35
	c-0.739-0.22-1.479-0.48-2.239-0.64c-0.48-0.1-0.91-0.35-1.23-0.71c-0.47-0.48-0.91-0.97-1.37-1.45c-0.28-0.3-0.41-0.33-0.76-0.14
	c-0.32,0.16-0.63,0.35-0.93,0.55c-0.29,0.24-0.681,0.31-1.03,0.2c-1.05-0.28-2.15-0.37-3.23-0.25c-0.909,0.05-1.8-0.23-2.52-0.8
	c-0.18-0.15-0.41-0.26-0.61-0.39c-0.77-0.48-1.37-1.19-1.72-2.04c-0.271-0.53-0.5-1.09-0.68-1.66c-0.15-0.59-0.74-0.74-0.99-1.21
	c-0.061-0.1-0.351-0.15-0.5-0.1c-0.97,0.3-1.93,0.63-2.89,0.96c-0.12,0.04-0.211,0.12-0.261,0.23c-0.04,0.15-0.02,0.31,0.05,0.46
	c0.04,0.08,0.2,0.11,0.301,0.16c2.069,1.01,3.79,2.35,4.46,4.69c0.05,0.16,0.22,0.28,0.31,0.44c0.101,0.15,0.17,0.31,0.23,0.48
	c0.09,0.36-0.09,0.73-0.431,0.88c-1.14,0.53-2.34,0.93-3.58,1.18c-0.27,0.02-0.189,0.21-0.06,0.34c0.03,0.02,0.06,0.04,0.09,0.06
	c0.23,0.23,0.24,0.6,0.01,0.84c-0.59,0.83-1.26,1.61-2.01,2.3c0,0.01-0.01,0.01-0.01,0.01c-0.19,0.17-0.2,0.45-0.04,0.64
	c0.72,0.97,1.43,1.94,2.16,2.9c0.41,0.45,0.63,1.04,0.609,1.65c0,0.37,0.19,0.72,0.511,0.9c0.1,0.07,0.22,0.09,0.34,0.06
	c0.1-0.05,0.17-0.15,0.189-0.27c0.101-0.9,0.03-1.81-0.189-2.69c-0.141-0.52-0.11-1.07,0.08-1.58c0.45-1.5,1.24-2.88,2.31-4.03
	c0.72-0.64,1.47-1.24,2.25-1.8c0.24-0.21,0.58-0.23,0.84-0.05c0.24,0.17,0.53,0.27,0.83,0.26c0.311,0.02,0.58,0.25,0.641,0.56
	c0.46,1.18,0.62,2.46,0.47,3.71c-0.04,0.24-0.29,0.53-0.21,0.67c0.16,0.29,0.54,0.1,0.82,0.15c0.42-0.01,0.829-0.1,1.21-0.26
	c0.09-0.02,0.29,0.09,0.29,0.13c-0.051,0.63,0.659,1.15,0.199,1.85c-0.1,0.29-0.13,0.59-0.09,0.89c0.03,1.75-0.33,3.48-1.04,5.07
	c-0.189,0.39,0.05,0.65,0.53,0.67c0.6,0.04,1.2,0.07,1.8,0.13c0.43,0.04,0.561-0.02,0.53-0.34c-0.01-0.42-0.08-0.84-0.19-1.24
	c-0.199-0.58-0.239-1.19-0.109-1.79c0.199-1.18,0.71-2.3,1.47-3.23c1.14-1.34,2.52-2.42,3.76-3.64c0.28-0.23,0.59-0.42,0.91-0.59
	c0.15-0.1,0.25-0.08,0.24,0.1c-0.11,1.73,0.51,3.49-0.24,5.18c-0.07,1.03-0.44,2.01-1.05,2.83c-0.46,0.84-1.04,1.62-1.71,2.31
	c-0.03,0.05-0.061,0.1-0.07,0.15c0.11,0.04,0.23,0.12,0.33,0.1c0.23-0.04,0.46-0.11,0.67-0.23c0.82-0.49,1.62-1.02,2.45-1.51
	c0.17-0.06,0.36-0.03,0.51,0.06c0.13,0.11,0.19,0.28,0.17,0.45c-0.189,0.38-0.25,0.81-0.189,1.23c0.01,0.06,0.029,0.11,0.05,0.17
	c0.07-0.03,0.17-0.04,0.21-0.09c0.25-0.34,0.49-0.69,0.72-1.04c0.431-0.65,0.99-1.21,1.65-1.64c1.42-1.01,3.1-1.61,4.85-1.73
	c0.88-0.11,1.76-0.29,2.62-0.54c0.05-0.02,0.11-0.04,0.17-0.04c0.43-0.06,0.811,0.25,0.86,0.67c0.069,0.36,0.06,0.73-0.03,1.08
	c-0.36,1.02-0.87,1.99-1.51,2.86c-0.851,0.93-1.75,1.82-2.7,2.65c-1.05,1.17-2.38,2.05-3.86,2.56c-0.05,0.021-0.069,0.2-0.08,0.311
	c0.011,0.06,0.051,0.1,0.101,0.13c0.29,0.03,0.63,0.16,0.87,0.06c1.1-0.35,2.26-0.439,3.399-0.279c0.36,0.029,0.71,0.109,1.04,0.25
	c0.86,0.42,1.67,0.949,2.4,1.569c1.49,0.971,2.05,2.45,2.61,3.98c0.04,0.08,0.05,0.17,0.05,0.25c-0.021,0.29-0.271,0.51-0.561,0.49
	c-0.66,0-1.33,0.01-1.989-0.011c-0.601,0.061-1.21,0.03-1.801-0.069c-1.63-0.391-3.229-0.9-4.79-1.53
	c-1.55-0.69-2.83-1.88-3.619-3.39c-0.08-0.16-0.16-0.33-0.25-0.48c-0.15-0.28-0.37-0.3-0.54-0.05c-0.271,0.399-0.551,0.79-0.801,1.2
	c-0.779,1.069-1.79,1.96-2.949,2.6c-0.301,0.21-0.57-0.02-0.811,0.08c-0.26,0.13-0.46,0.4-0.72,0.54c-0.49,0.25-0.8,0.76-0.811,1.31
	c-0.029,0.641-0.029,1.29,0,1.931c0.931-0.54,1.801-1.12,2.641-1.761c1.729-1.029,3.76-1.39,5.729-1.029
	c0.12,0.01,0.29,0.239,0.3,0.38c0.04,0.3,0.021,0.59-0.069,0.88c-0.22,0.49-0.47,0.979-0.74,1.439c-0.13,0.23-0.2,0.36,0.13,0.54
	c0.61,0.28,1.28,0.391,1.94,0.32c0.859-0.04,1.689,0.311,2.26,0.95c0.76,0.7,1.38,1.53,1.85,2.439c0.24,0.66,0.341,0.66,0.88,0.311
	c0.841-0.59,1.86-0.88,2.891-0.83c0.96-0.09,1.92,0.01,2.85,0.28c0.521,0.17,1.08,0.17,1.601-0.011
	c1.01-0.17,2.029-0.239,3.05-0.189c0.06-0.01,0.13,0,0.18,0.03C314.51,163.515,314.59,163.715,314.52,163.875z"/>
</svg>
