<svg xmlns="http://www.w3.org/2000/svg" xmlns:xlink="http://www.w3.org/1999/xlink" width="109.52" height="185.5" viewBox="0 0 109.52 185.5">
  <defs>
    <clipPath id="clip-path">
      <rect id="Rectangle_316" data-name="Rectangle 316" width="109.52" height="185.5" fill="none"/>
    </clipPath>
  </defs>
  <g id="First_tree" data-name="First tree" opacity="1">
    <g id="Group_487" data-name="Group 487" transform="translate(0)" clip-path="url(#clip-path)">
      <path id="Path_4984" data-name="Path 4984" d="M145.829,291.983c-.553.092-1.212-.059-1.788,0v.447c.489-.489,1.383.4.894.894s-1.383-.4-.894-.894l-2.905.894c-.308.1-.2.432-.223.447.33-.134,1.1.1,1.564,0,.19-.039.4-.692,1.117-.447l.447,1.341.223-.894c1.225.172,1.761-.555,1.564-1.788" transform="translate(-99.327 -161.479)"/>
      <path id="Path_4985" data-name="Path 4985" d="M109.772,410.84V409.9a1.124,1.124,0,0,1,0,.938" transform="translate(-49.415 -226.704)"/>
      <path id="Path_4986" data-name="Path 4986" d="M112.4,348.251c-1.708-.885-3.823-2.712-4.007-3.352-.085-.295.1-.67,0-.894-.3-.641-1.119-1.631-1.341-2.235-.089-.241-.434-1.266-.447-1.341-.539-3.023.519-6.206-.447-9.386-.267-.88.589-1.272.447-1.788a19.186,19.186,0,0,1,0-8.045c.564-3.392-.748-7.591.447-10.726l-1.341-1.788.894-.67.447,1.341v-3.128l-1.788,1.788-.447-1.341.447-.447a4.446,4.446,0,0,1,2.011-.894c1-.289,1.909-3.3,2.458-4.246.9-1.557,2.215-3.023,3.129-4.469a1.575,1.575,0,0,1,1.788-.67c.543.512-1.869,2.451-2.235,2.905-1.212,1.5-1.419,3.125-2.235,4.469-.192.316-.718.585-.894.894-1.2,2.1-.839,4.45-1.341,6.7-.539,2.42.279,3.123,0,5.363a82.69,82.69,0,0,0-.447,15.643c.19,2.282-.274,4.937,0,7.151.02.164.417.276.447.447.194,1.1-.1,2.657,1.117,3.352.511.291.554-.251,1.117,1.117.295.717.469.881,0,1.564l.541-.811.8,1.035c.074.261.655.56.894,1.074v1.385Z" transform="translate(-52.063 -163.668)"/>
      <path id="Path_4987" data-name="Path 4987" d="M151.981,296.447c.618-.163.417-.435.447-.447-.084.063-.365-.145-.447.447" transform="translate(-110.841 -163.708)"/>
      <path id="Path_4988" data-name="Path 4988" d="M174.235,279.447,172.894,279c.062.785.145,1.035-.67.894-.306.111-.178.344-.223.447,1.964.265,1.562-.454,2.235-.894" transform="translate(-141.587 -154.306)"/>
      <path id="Path_4989" data-name="Path 4989" d="M120.021,258.894c.347,1.161.119.994,0,1.564-.071.341.07.777,0,1.117l1.341-1.564L120.915,258h-.447Z" transform="translate(-65.474 -142.692)"/>
      <path id="Path_4990" data-name="Path 4990" d="M152,298.341l2.235-.447L152,300.352l1.341.223c-.328-1.1,2.648-3.076,3.129-2.682-.008.457-1.76,1.544-.447,1.788l.894-1.564a.956.956,0,0,1-.447-1.117,9.522,9.522,0,0,1-3.8.447c-.39.107-.62.869-.67.894" transform="translate(-115.33 -164.262)"/>
      <path id="Path_4991" data-name="Path 4991" d="M163,299.989l.223.447.67-.447c-.154.075-.615-.04-.894,0" transform="translate(-127.224 -165.91)"/>
      <path id="Path_4992" data-name="Path 4992" d="M136,215.447c.13.062.386-.072.447,0l-.223-.447c-.295,0-.174.336-.223.447" transform="translate(-87.71 -118.91)"/>
      <path id="Path_4993" data-name="Path 4993" d="M118.964,307v1.341h.447c.069-.4-.115-1.079,0-1.341Z" transform="translate(-63.076 -169.792)"/>
      <path id="Path_4994" data-name="Path 4994" d="M172.749,258c-1.943.285-2.805.035-4.693.894-2.086.949-3.825,3.108-5.81,4.469H158c.636,1.635,1.995.638,3.129.447-.352,1.131-2.056.859-1.788,2.235l-.894.894c.822.173,1.062-.45,1.564-.894,1.072-.947,1.849-2.506,3.352-2.235v-.894a16.35,16.35,0,0,0,5.14-3.575l3.129-.447v.894l2.458-1.341h-1.117c-.3-.079-.177-.34-.223-.447" transform="translate(-135.185 -142.692)"/>
      <path id="Path_4995" data-name="Path 4995" d="M145.055,202.022l.447.223v1.117l.894-1.564-.894-.223.447-2.235,1.341.223L145.948,198c.22.727-.813,1.645-.894,2.011a9.906,9.906,0,0,0,0,2.011" transform="translate(-102.575 -109.508)"/>
      <path id="Path_4996" data-name="Path 4996" d="M216.435,197.447c-.03-.012.157-.185-.447-.447a1.418,1.418,0,0,0,.447.447" transform="translate(-203.452 -108.955)"/>
      <path id="Path_4997" data-name="Path 4997" d="M180.447,121.437c-.029-.012.07-.526-.447-.447.029.031-.061.529.447.447" transform="translate(-151.375 -66.911)"/>
      <path id="Path_4998" data-name="Path 4998" d="M123.447,252c-.128,1.262.332,2.508-.447,3.575h1.341a1.782,1.782,0,0,0-.447-.67c-.12-.826.083-1.82,0-2.682-.072-.3-.338-.176-.447-.223" transform="translate(-69.794 -139.373)"/>
      <path id="Path_4999" data-name="Path 4999" d="M130.244,366.894,130,366.65l.244-.65Z" transform="translate(-78.825 -202.424)"/>
      <path id="Path_5000" data-name="Path 5000" d="M123.462,413.447A1.883,1.883,0,0,1,123,413h2.026Z" transform="translate(-70.479 -228.418)"/>
      <path id="Path_5001" data-name="Path 5001" d="M89,97.821c.636-1.073,1.606-.484,2.458-.67.17-.037,1.144-.84,1.341-.894a50.511,50.511,0,0,1,7.6-1.341,18.844,18.844,0,0,1,3.575,0c.166.03.265.4.447.447.29.082.652-.1.894,0,1.6.637,4.846,3.665,6.034,5.14,1.3,1.614,2.294,3.929,3.575,5.81a5.712,5.712,0,0,0,1.564,2.011c1.968.562,3.175,2.444,4.693.223l-.447-1.117c-.737.236-.854-.352-1.117-.447a12.913,12.913,0,0,1-2.682-.894,20.175,20.175,0,0,1-2.458-2.458c-.142-.214-.795-1.541-.894-1.788-.914-2.274-.932-4.854-1.341-7.151-.03-.172-.426-.283-.447-.447a14.289,14.289,0,0,1,0-2.235c.045-.858-.216-1.427.67-2.011,1.185,1.009.3,2.771,1.564,3.8-.753.546-.374,1.559-.447,2.458.084.084.459-.118.67,0,1.594.888,2.962,3.757,3.8,5.14a6.191,6.191,0,0,0,1.117,1.564c.543-.291.253-1.286-.223-1.564l1.341-1.117-.894,4.022,1.117-.447,1.117.447c-.14-1.18.2-2.685,0-3.8-.033-.184-.824-1.53-.894-1.788-.1-.382.1-.963,0-1.341-.084-.306-1.44-1.295-1.788-1.788-.06-.086-.111-.957-.67-1.117-1.713-.492-2.253-1.528-3.8-2.011-.584-.182-.431.194-.894.223V90.894c.735-.238.86.358,1.117.447a10.15,10.15,0,0,1,3.129,1.341,44.246,44.246,0,0,1,3.8,3.8c.132.478-.11,1.256,0,1.788.48,2.324,1.8,4.856,1.341,7.6-.045.272-.59.293,0,1.341l-1.341.67-.447,1.564,1.341,1.117.447-1.788c-.271,1.081.552,1.721.894,2.458.1.224-.084.6,0,.894.076.263,1.056.937,1.341,1.341.065.093-.072.334,0,.447.613.959,1.96.555,2.905,1.117a6.954,6.954,0,0,1,1.117,1.117c.067.112.365.706.447.894.2.469.117,1.738.894,2.235l-.447,1.564c.954-.329,2.682,1.211,3.129,2.011.589,1.057.859.587,1.341,1.341a11.654,11.654,0,0,0,2.458,2.905l2.458.894-.894-2.458a9.064,9.064,0,0,0-1.341-5.363c-.2-.271-1.206-1.276-1.341-1.117l.894,2.011v1.564l-1.341-4.022h-.894a3.168,3.168,0,0,0-.894-2.458l-.447-2.905.894,1.341h.894c.173.615.28,1.429.447,2.011.143.5,2.465,2.205,2.905,2.905l.67-.223-.447.447.894,3.352c1.511.325.479-.985,1.341-1.564l-.447-.67h.894l-.447-1.788h-.894l-.447-2.011h.447c.144,1.233,1.361,2.1,1.788,3.129.1.24-.078.585,0,.67.051.055.975-.126,1.341.67.4.87-1.12.654-1.341,1.341.7,1.158,1.678.489,2.235-.447a9.448,9.448,0,0,0,.447-1.788c.1-.258.859-1.178.894-1.341.185-.859-.109-2.16,0-3.129.018-.164.429-.283.447-.447.1-.925-.071-1.961,0-2.905l1.341.447c-.078.787.115,1.7,0,2.458-.026.171-.33,1.321-.447,1.788-.062.248-.786.749-.447,1.564l.894-.223v.67H146.2a5.487,5.487,0,0,1-1.788,4.246l-.447,2.458,1.788-.894c-.416-.888,1.784-2.1,1.788-2.458,0-.112-.668-.489-.447-.67,1.538-.141,2.527-2.2,3.8-3.129l2.458-.894-1.564,1.788-1.564.447c.263,1.091-1.647,2.863-1.788,3.352-.518,1.805-1.192,1.48-2.235,3.129-.511.809-1.385.392-1.341,1.117.647.063,1.393-.1,2.011,0,.764.119,1.69.316,2.682.447.715.094,1.14.678,2.011.447L150,127.542h-1.341l-1.564-.894,1.788.223c.666-.758,1.412.2,1.564.223.551.092,1.311-.127,1.788,0,.117.031.89.67.447.894l-1.117,1.117,4.916,6.7c-.295.755.38,1.121.447,1.341a1.261,1.261,0,0,1-.447,1.341,7.874,7.874,0,0,1,.447,2.682c-.079.855-.36,1.248-.447,2.011l.894-1.564.223-2.458,1.117,2.011c.137.484-1.084,2.158-1.341,2.682-.395.8-.949,2.141-1.341,3.129-.658,1.658-.391,1.262,0,2.682a19.916,19.916,0,0,1-.894,2.682c-.092.459.059,1.064,0,1.564-.7-.118-.874.353-1.564.447-1.444.2-.084-1.119-.223-1.788h.894c.177-.177-.162-2.292,0-2.905.1-.371,1.362-.873.894-2.011l-2.235,2.905c.762.463-.271,1,0,2.011l-.447-.894a3.052,3.052,0,0,0-3.129,2.011c0,.547,3.084,1.622,3.8,1.564l1.341,1.788.67-.223-.67.67.67,1.341-2.905-2.682a14.8,14.8,0,0,0-2.682-.894c-.182-.052-.281-.417-.447-.447-1.027-.183-3.049.016-3.352,1.117-.134.487.134,1.3,0,1.788-.049.179-.512.419-.67.67-.424.674.13,1.438-.67,1.341l-.223-1.788,1.117-2.458c-1.1-.96-1.259,1.035-1.341,1.117-.057.057-1.063-.042-1.341.67.07.72-.1,1.546,0,2.235a6.864,6.864,0,0,1,0,2.905c-.325-.141-.8-.556-.894-.447l-.447,1.341v-8.045l-3.575-.447c.2,1.393-.281,3.417,0,4.693.246,1.117,2.156,3.043,2.235,4.246h.894l.447,2.682h.894v1.341c1.235-.482.647.9,1.341.894a6.61,6.61,0,0,0-.447,2.682h-.894c.389.88-.423,1.836-.447,2.011-.106.765.072,1.666,0,2.458l-.894-.223c.64.48.64.861,0,1.341l.67-.223.67,1.341h1.341c.164.164-.14,2.28,0,2.905.062.276,1.033.6,0,1.341l.894.223-.447,3.129a13.932,13.932,0,0,0,2.682-2.458,22.7,22.7,0,0,0,1.788-2.682c.108-.246-.1-.633,0-.894s.859-1.178.894-1.341a9.535,9.535,0,0,0,0-2.235c-.036-.168-.84-1.145-.894-1.341-.995-3.647-1.536-7.081-3.129-10.726a5.937,5.937,0,0,0-1.341-1.788l.447-2.011.894,1.117.447,2.011.67-.447,1.341.447c.491-.67,1.082-1.354,1.564-2.011.072-.1-.071-.352,0-.447.581-.784,1.882-1.322,1.788-2.458l.894.67v1.564l-1.117-.447-2.458,3.8.894.67.894-2.682,1.341-.447-.223,1.341h-1.117c-.143,1.415-.678,2.656-.447,4.246l-1.341.223.67.894c.22-.346,1.044-.861,1.117-1.117.085-.3-.1-.671,0-.894a16.3,16.3,0,0,0,.894-1.788c.109-.313.935-.343,1.341-.67l-1.341,5.81H149.78c.908,1.087.083,1.209,0,1.564-.258,1.112.61,1.795.447,2.905l1.341-.894c.279,1.815-.627,3.151-.447,4.916h-.894a3.168,3.168,0,0,1-.894,2.458l.447.894a1.576,1.576,0,0,1-1.788.67l.447,1.117c0,.18-1.5,1.355-1.788,1.788-.072.108.067.352,0,.447-.337.476-1.3,1.47-1.341,1.564l-.223-.447-.223.447-1.341-.447.894,3.129h-.894v.894l-1.788.447.894-1.564c-1.214-1,.885-2.452-.447-3.575,1.061-.711,1.491-2.3,0-2.905-.118.733.174,1.827,0,2.458-.067.245-.826.648-.894.894-.37,1.345.268,4.041,0,5.587l.894.447c-.424.293-.422.427-.447.447-.182.146-.751.31-.894.67v.67h1.341v1.341h-.894c.274,1.279-.659,2.117-.447,3.352.03.172.447.3.447.447s-.442.293-.447.447c0,.13,1.144,1.406.894,2.011l-1.341-1.788v3.129l.894.223-1.341.67c-.135.779.7,1.172.447,2.011-.667,2.195.428,2.817,0,4.469,1.246.967,1.037,2.987,1.341,4.469.031.152.67.487.447.67h-1.341l.894,1.788-.894.894-1.341-1.341.447,4.022.67-.894,2.011,1.788-1.341.67,1.341,1.564-1.788-.894v1.341l-.894-.223,1.788,3.129c-.513,1.25-.887,2.173.447,3.129l1.341,3.8H141.5a1.781,1.781,0,0,1-.209-1.341h-.894l.894-.894h-1.341l-.447-.894c.35.781-.452,1.483-.447,1.564.008.13.6.3.447.894-.042.162-.412.3-.488.67H138.5l-.559-.447c-.242.151-.135.3,0,.447h-2.453v-1.341h-.894c-.033.438.056.908,0,1.341a2.327,2.327,0,0,0-.606,0H132.35c1.752-.564,3.065-2.914,3.575-4.693a23.013,23.013,0,0,0,1.788-2.682c.1-.373-.089-.935,0-1.341.038-.176.423-.282.447-.447.122-.832-.122-1.849,0-2.682a2.108,2.108,0,0,0,.447-1.788c-.893-3.822.081-8.3-.894-12.067-.362-1.4-1.217-2.743-.894-4.469l-.193-.611.281-1.063.806-1.007c.8-4.457,1.155-9.068,2.235-13.408.283-1.138,1.044-2.9,0-4.022l.447-2.458a3.388,3.388,0,0,0-1.341,1.117c-1.584,2.162-1.476,2.433-3.8,4.246-.684.534-1.429,1.565-2.235,1.788-.37.1-.935-.089-1.341,0-.176.038-.282.423-.447.447a18.628,18.628,0,0,1-3.575,0c-.916-.113-2.964-1.133-4.022-.894-.223.051-.756.79-1.564.447l1.341-6.034c1.842-2.5,3.243-5.106,6.034-6.48.861-.225,1.831-.277,2.682-.447.173-.035.281-.423.447-.447.909-.133,4.957.181,5.14,0l-.447-2.682,3.129,2.682a4.705,4.705,0,0,1-.894-3.352c.046-.2.7-.411.447-.894-.5-.225-.368-.763-.447-.894-.777-1.288-2.429-1.463-1.788-3.8,1.329-.31,1.144.964.447,1.564.347.579.708.528,1.117.67.519.181-.056.9.447.894a1.79,1.79,0,0,0,.67-2.011c-.053-.186-.447-.3-.447-.447a1.263,1.263,0,0,0,.447-1.341c-.029-.1-.837-1.7-.894-1.788-.313-.469-1.068-.887-1.341-1.341-.418-.7-.475-1.993-.894-2.682-.188-.309-.834-.676-.894-.894a4.194,4.194,0,0,1,.447-2.682c.282-.926-.521-1.406-1.117-2.011l-.223.223-1.341-.223,1.117-.447.223-1.788-1.117,1.341-1.564-.447.894.894v.894h.894v.894a1.125,1.125,0,0,1,1.341,1.341h-.894c-.245.678.447,1.024.447,1.117s-.86,1.6-.894,1.788a7.8,7.8,0,0,0,.894,5.363,8.836,8.836,0,0,0,.894,1.341l-.894,1.117V166.2c-.593-.535-.937-1.289-1.788-1.117v-1.341H132.8v-1.788l.894.894c-.218-1.524.3-3.74,0-5.14-.4-1.829-3.736-4.672-2.235-6.7-.519-.632-1.488-1.044-1.341-2.011l-.894.67.894,1.564c-1.642-.336-2.271,1.281-2.235,2.682h-.894c.935,1.192.139,2.872.447,4.246.125.556.366,1.316.447,1.788.072.422-.1.976,0,1.341.131.479,1.129,1.3.894,2.011l1.788.447-.447.894c1.149-.336,2.493,1.673,2.905,1.788.591.164,2.068-.459,2.011.447a1.126,1.126,0,0,0-1.341,1.341c-.87.26-1.036-.593-1.564-.894-.251-.143-1.015-.318-1.341-.447-.361-.143-.686-.74-1.564-.447v.894l-2.235.894v.894h-.894a19.069,19.069,0,0,1-1.788,3.8c-.638,1.374-.536.793-1.117,1.117-.3.17-.575.694-.894.894-.192.121-.548-.08-.67,0a5.464,5.464,0,0,0,.447-1.117,62.229,62.229,0,0,1,4.022-5.81l-.447-.447c.712-1.124,1.97-.216,2.682-1.341.217-.707-.433-.633-.447-.67a7.606,7.606,0,0,1,0-.894c-.7-.209-.848.375-1.341.447-.047-.107.081-.368-.223-.447H125.2v-.894l-1.341.447.447-.894h-2.682l-.447,1.117.894.67a5.541,5.541,0,0,1-2.235-.223c-.4-.129-1.4.416-2.458.223a1.286,1.286,0,0,0-1.341-.447c-.368.67-.9.321-1.341.447-.209.06-.589.686-.894.894-.107.072-.354-.067-.447,0a12.992,12.992,0,0,0-2.905,3.352c-.105.379.1.961,0,1.341-.22.8-2.063,2.081-.894,3.575l-.894,1.341.447.894-.894-.223V177.6c.716.246.944-.417,1.117-.447,1.559-.266,2.591.326,4.022-.894,1.128.509,4.379.274,5.363-.894.219.247.321.4.67.447a7.468,7.468,0,0,1-1.564,1.788c-1.577.135-3.384-.189-4.916,0-1.251.154-3.256,1.091-4.469,1.341-.456.094-1.065-.059-1.564,0-.33-.845.39-1.338.447-1.564.747-2.959,1.182-6.038,2.682-8.939.157-.3.827-.66.894-.894.079-.275-.079-.619,0-.894a41.64,41.64,0,0,1,5.587-3.8c.417-.166,2.824-.849,3.129-.894,1.558-.228,3.346.45,4.693-.447l.894.894c-.543-1.018-1.363-1.046-.447-2.235-1.281.557-1.915-1.191-2.458-1.341-.815-.225-2.311-.224-3.129-.447-.2-.054-1.133-.833-1.341-.894-1.217-.356-1.814,1.212-2.682,1.788a59.3,59.3,0,0,1-6.257,3.575,6.21,6.21,0,0,1-1.341.447c-.182.052-.281.417-.447.447a15.733,15.733,0,0,1-3.129,0c-3.418-.367-7.294-.958-10.726-1.341-.924-.1-1.962.071-2.905,0-.445-1.78,1.219-1.567,1.788-2.458a28.8,28.8,0,0,1,8.268-7.821c.359-.215,1.258-.871,1.341-.894.373-.1.941.093,1.341,0,.177-.041.282-.423.447-.447a23.736,23.736,0,0,1,4.469,0c.194.034,1.491.8,1.788.894.358.113.957-.105,1.341,0,.484.132,2.107,1.074,2.682,1.341,1.659.769,3.638,2.559,5.363,3.575.462.272,2.1,1.651,2.458,1.341-.117-.669-1.061-1.062-1.341-1.564-.666-1.2-2.188-1.9-3.352-2.905-1.543-1.332-2.73-3.131-4.469-4.022l-2.905-.447c-.1-.793,1.006-.417,1.564-.447.72-.038,1.285-.372.67-.894l-5.81-1.341h3.352c.708-1,1.083.1,2.011,0,.008-.369-.015-.745,0-1.117.023-.553-.341-1.665.447-1.564v3.575c.733-.241.888.381,1.117.447.587.169.733-.762,1.564,0,.231-.729-.608-1-.447-1.564.331-1.151-.012-.676-.447-1.788a19.871,19.871,0,0,0-1.341-3.575,12.629,12.629,0,0,0-3.352-2.905c-.214-.108-.6.085-.894,0-.249-.072-.643-.82-.894-.894-.855-.253-4.208-1.415-4.469-1.341-1.279.367-1.081-.285-1.788-.447-.3-.068-1.455-.169-1.564.223a17.245,17.245,0,0,1,2.235,2.458c-.356-.154-2.143-.8-2.235-.894s.118-.459,0-.67a6,6,0,0,0-1.788-1.564l.447,2.011,2.011,2.905h2.458c.109-.552-.2-.914-.447-1.341a7.6,7.6,0,0,0,.894,0v.894l1.341-.447c.082.1-.117.461,0,.67.9,1.609,3.809,2.957,4.693,4.693l1.564,1.117-1.564-.223c-.925-.731-1.763-2.033-2.682-2.682-1.3-.917-.931-1.155-1.117-1.341-.084-.084-.459.118-.67,0-.308-.172-.669-.832-.894-.894-.841-.232-2.382.163-3.352,0-.255,1.8.24,1.077.67,1.341.657.4,1.357,3.467,3.129,4.916,1.44,1.179,3.25,1.487,4.022,3.129l2.011.447c.153.721-1.206.524-1.564.447a30.767,30.767,0,0,1-3.129-1.341c-4.991-3.313-5.793-8.386-8.715-13.184-.07-.114.065-.349,0-.447-.65-.983-1.8-1.14-1.341-2.905.691-.112.878.341,1.564.447,1.71.262,3.721.5,5.363.894,2.7.655,5.509,2.4,8.045,3.575a16.209,16.209,0,0,1,1.788.894,5.567,5.567,0,0,1,2.011,2.905c.067.185.4.276.447.447.19.7.248,1.881.447,2.682.407,1.637.853,3.322,1.341,4.916.567,1.852.306,2.406,2.011,3.8,1.647,1.346,3.771,3.068,5.363,4.469.943.83,1.752,1.833,2.682,2.682.386-.289.3-1.585.223-2.011-.014-.075-.379-1.17-.447-1.341-.589-1.476-2.479-2.108-2.235-3.8l2.682,2.682-.447-2.011a20.016,20.016,0,0,0,2.235-10.5h-.894v-3.575c-.808.341-1.477-.447-1.564-.447-.152,0-.466.745-.894.447l-2.235-1.788-3.352-1.341.894,1.117h.447a1.986,1.986,0,0,0-.894,2.235l2.682,4.022c-.274.646-1.065-.018-1.341-.447-.126-.195-.319-1.13-.447-1.341-1.245-2.046-2.308-2.91-1.788-5.81l-1.788-2.011-.447,2.905c1.006,1.719.482,4.8.894,6.7.073.34,1.128,2.662,1.341,3.129a16.245,16.245,0,0,0,1.341,2.235,20.938,20.938,0,0,0,1.564,2.011c.31.354,1.176.9.447,1.341-.93-1.259-3.028-2.577-3.8-3.8-.251-.4-.523-1.155,0-1.341-2.017-2.168-1.744-5.731-2.235-8.492-.03-.172-.427-.283-.447-.447-.2-1.6.142-3.5,0-5.14l2.458.447c1.715,1.342,6.463,2.72,7.374,4.246.2.337-.4.91.894.67.065-.495-.1-1.126,0-1.564a15.953,15.953,0,0,1,1.341-2.682,30.75,30.75,0,0,0,2.235-4.246c1.226.263,1.667-.552,2.458-1.341.356.683.977.307,1.341.447.659.253,1.251,1.041,1.788,1.341.211.118.584-.083.67,0,.051.049.067.961.447,1.341h-.67l-1.788-1.788c-1.057.991-1.882,1.541-1.564,3.129H131.9l-.67,1.788-.67-1.341-.894,1.788.223-2.235-2.011,3.352,1.564,1.564,1.117-.447c-.389.943-1.219.8-.447,1.788l-.894.67,1.341.67-.223,2.235,1.117-.894c.065,1.189.277.979.447,1.341.116.246-.07.944,0,1.341l.894-.447v.894h.894l-.894,1.788c.461.446,2.166-1.161,1.788-1.788.892-.156,1.034.82,1.564,0a3.177,3.177,0,0,0,1.117.894c-.327.742-.73.21-.894.67a2.911,2.911,0,0,1-1.117,1.564l.67-1.564c-.8-1.163-1.1-.166-1.788.447l.223,2.011,1.564-.447-.894.447v1.341l1.117.447-.223.894,1.341-.67-.67-1.117-1.117-.447.894-.223c.35-1.178,1.613-1.935,1.341-3.352,1.453.671-.843,3.179-.447,3.575h.894l-.894,3.129c.924-.5,1.6-.948.894-1.788h.894l.223-1.341-.223.223-.894-.894.67.223.67-.67-.894-2.011c.663-.245,1.042.45,1.117.447s.763-.788,1.564-.447l-.447-.67c-.235-.887.531-1.665,1.341-2.011.141,1.117-.118,3.007-1.117,3.575-.209.119-.587-.084-.67,0s.1.429,0,.67c-.08.194-.419.29-.447.447-.129.734.088,1.68,0,2.458l1.564-2.235.223,1.341,1.341.447-2.235,1.564,2.235-.67.447,1.341h-2.011l-1.117.894a5.442,5.442,0,0,0,2.235-.223,8.169,8.169,0,0,0,1.117-.67,7.551,7.551,0,0,1,1.564,0c-.022.293.01.6,0,.894h.894v-.894c-.3-.006-.6.013-.894,0,.06-.813.484-1.052.447-1.788l-1.564,1.341a1.409,1.409,0,0,1-.67-1.117l-.447-2.011h.67l.223-1.788v2.235l.894.223.223.67c1.354-.829.059-1.441.223-2.011l1.341-1.788.894-1.564a3.448,3.448,0,0,1-1.341,2.905c1.036.763.021,1.47,0,2.458l2.682-1.117-2.235,3.575c.52.8,1.1-.352,1.564-.67a23.935,23.935,0,0,0,3.352-2.458c.945-1.479,2.222-2.542,3.129-4.022.463-2.038,1.247-3.861.894-6.257-.019-.131-.788-.754-.447-1.564h-.894c.164-.609-1.215-2.072,0-2.235l.894,1.341c-.06-2.247-1.918-4.066-3.352-5.81l-2.458-.894.223,1.341-.67-1.341-2.011-.894-.67,1.341a.95.95,0,0,0-.447-1.117,12.8,12.8,0,0,0-1.117-.67c-.151,0-.3.447-.447.447-.088,0-.756-.788-1.564-.447v.894h-.67l-.223,1.341a1.825,1.825,0,0,0,2.011-.894c.368.67.9.321,1.341.447.506.145,1.078,1.7,2.011,1.341l-.223,2.235-.894-1.788-.447.894c-.531-.75-.467-.2-1.117,0v-2.235h-1.341v.894l-2.682.447c.079-1.146-1.309-1.791-2.011-2.682l-.894.447c-.67-.571-1.085-1.5-2.011-1.341.375-2.032-2.014-2.236-3.352-2.682-.181-.06-.273-.4-.447-.447-.593-.17-1.377.312-1.788-.447H129l-1.564,1.341,3.575-.447c-.295,1.253-1.305.7-2.011.894-1.187.323-3.575,2.09-4.916,2.682-.32.141-.841.435-.894.447a9.008,9.008,0,0,1-3.575-.447c-1.445-.359-2.409-.195-3.575-.447-.152-.033-1.188-.861-1.341-.894-1.469-.318-2.809.343-4.246.447.079-.412-.257-1.167.223-1.341,1.643-.6,2.986-2.868,4.469-4.022a29.668,29.668,0,0,1,6.257-3.129c.251-.093.608.082.894,0,.377-.108.694-.7,1.788-.447.172.04.267.4.447.447.286.082.642-.093.894,0a28.23,28.23,0,0,1,5.363,3.129l2.011.447-4.022-3.8a1.975,1.975,0,0,0,.894-2.235c-.059-.214-2.116-2.4-2.458-2.905-2.374-.55-3.073-1.066-4.246-2.905-.88-1.38-4.522-1.857-6.034-2.458-2.941-1.169-3.374-2.143-7.151-1.788-.162.015-.288.435-.447.447a40.917,40.917,0,0,1-6.7,0c-.145-.031-1.053-.724-1.341-.894a15.035,15.035,0,0,1-2.235-1.788c-2.651-2.156-5.284-4.82-8.492-6.257-.358-.16-1.141.191-1.564-.67.875-.553-.182-.69,0-1.341m25.7,4.246a.224.224,0,0,0,0-.447.224.224,0,0,0,0,.447m3.352,2.235c.187.075.937.144.894-.223-.276-.677-1-1.214-1.341-1.788-.572-.971-1.187-2.7-1.788-3.575a6.045,6.045,0,0,0-1.788-1.564l.894,2.905a10.024,10.024,0,0,0,2.682,3.8l-1.788-.894.67,1.341,3.352,2.235Zm24.358,66.593a.224.224,0,0,0,0-.447.224.224,0,0,0,0,.447m5.14-6.7H147.1v.894h.447Zm1.788,1.788v-.447l-1.117-.447-.223.223Zm-6.034,23.24a.224.224,0,0,0,0-.447.224.224,0,0,0,0,.447m-2.682,33.52a.224.224,0,0,0,0-.447.224.224,0,0,0,0,.447m1.117,11.173h.894l-.447-1.788h-.447Zm-1.341-22.347h-.447v.894h.447Zm-.894,4.916h.894v-.447H139.5Zm-.223,10.726a.224.224,0,0,0,0-.447.224.224,0,0,0,0,.447m-1.117,3.129h.894v-.447h-.894ZM139.5,202.18h-.447v.894h.447Zm.223,12.961.427-1.138.244.244v-.894l-.244.65-.65-.65Zm2.011-46.928v-.894h-.894Zm-.223,10.726a.224.224,0,0,0,0,.447.224.224,0,0,0,0-.447m.447,2.235c.425.673-.131,1.438.67,1.341l-.447-2.011-1.341.223a.95.95,0,0,1,1.117.447m-1.564,11.62h.447V191.9h-.447Zm-2.011-16.536a.224.224,0,0,0,0,.447.224.224,0,0,0,0-.447m.223,3.129-1.341.447v.894h-.67l.223-.894c-.672-.21-.852.366-1.341.447-.105-.661-2.405-.559-2.905-.447-.277.062-.6,1.033-1.341,0a1.82,1.82,0,0,1-2.011.894v.67l-1.788.223a20.668,20.668,0,0,1,2.458-2.235c.473-.131,1.244.1,1.788,0,.172-.031.283-.427.447-.447.937-.116,2.356.206,3.129,0,.117-.031.89-.669.447-.894l-.894-.894,2.011.447-.447,1.341,2.235-.67c-.439-.277-1.249-1.478-1.564-1.564a15.759,15.759,0,0,0-3.129,0c-.171.028-.3.447-.447.447s-.262-.4-.447-.447c-.623-.172-3.005,1.2-3.8,1.341v.894c-1.473-.3-2.1,1.137-3.129,2.011l.894.67c-.771-.1-1.851.983-2.235,1.564-.115.174.069.5,0,.67-.009.023-.372-.082-.447.223-.149.612.116,1.557,0,2.235-.029.173-.693.4-.447,1.117,1.221.1,2.609-.147,3.8,0,.348.043,1.519.319,2.235.447a2.147,2.147,0,0,0,1.788.447L135.7,185.2l.447.447,2.458-4.246-.223-.67Zm.67-3.575a.224.224,0,0,0,0,.447.224.224,0,0,0,0-.447m-.223,1.341v.894l1.117.447.223-.223Zm1.341-4.916c.14.529.633.666.447,1.341h.447v-1.341Zm-22.57-8.045a.224.224,0,0,0,0,.447.224.224,0,0,0,0-.447m2.011-.447h-1.341v.447h1.341Zm-7.374-10.279c-1-.07-.8.1-.223.67a3.424,3.424,0,0,0,1.788.67c.152.668-.766.555-1.117.447-.158-.049-2.247-1.513-2.682-1.788-.7-.441-.641-1.33-1.341-1.788-1.295.11-2.765-.156-4.022,0-.164.02-.276.417-.447.447-.547.1-1.262-.109-1.788,0-.169.035-.266.4-.447.447-.289.083-.652-.1-.894,0-1.327.529-2.416,2.113-3.575,3.129a20.26,20.26,0,0,0-4.246,4.246c-.354.518-1.114.7-.894,1.564.208.186,4.614-.12,5.587,0,.346.043,2.335.851,2.682.894a29.894,29.894,0,0,0,5.363,0c.295-.049.32-.863.894,0l7.821-4.469c-.6-1.673-3-.55-4.246-.894-.245-.067-.642-.82-.894-.894-2.151-.635-3.713-1.614-5.81-1.788l-1.564-.894c.786.08,1.707-.118,2.458,0,.166.026.272.408.447.447.405.089.97-.1,1.341,0,.8.221,1.956,1.708,2.235,1.788.5.143,1.264.447,1.341.447.145,0,.261-.394.447-.447.725-.208,2.017.838,3.129.447l1.564-.67Zm3.129,4.022a.224.224,0,0,0,0,.447.224.224,0,0,0,0-.447m-2.011-9.386h-.894v.447h.894Zm1.341,0h-.447v.894h.447Zm10.726,15.643h.894V163.3h-.894Zm-.223-3.129.223,2.235h1.341v.67l1.341.67-.894-.894.447-.894c-1.653.346-1.554-.9-2.458-1.788m6.257-27.71a.224.224,0,0,0,0-.447.224.224,0,0,0,0,.447m.67-.894v-.894l-.894.894Zm-4.022,6.257h-.447v.894h.447Zm0,2.235h-.447v.894h.447Zm2.235,4.022c-.289.559.716,1.562.894,1.341.289-.559-.716-1.562-.894-1.341m2.458,3.129H132.8v1.788h.894a1.576,1.576,0,0,0-.67-1.788m6.927,4.022-.894.894h.894Zm3.352,4.469a.224.224,0,0,0,0-.447.224.224,0,0,0,0,.447m1.341-2.682c-.383.591-.9.47-1.564.447l.67.894,1.117-1.117Zm2.235-1.341a.224.224,0,0,0,0-.447.224.224,0,0,0,0,.447m-5.363-23.24,1.117-.447c-.273-1.52.6-2.564.447-4.022l-1.788-.894c-1.228.107-.022,1.44,0,1.564a3.336,3.336,0,0,1-.447,2.458h.894Zm-.894-3.129a.224.224,0,0,0,0-.447.224.224,0,0,0,0,.447m-7.151-.894a.224.224,0,0,0,0-.447.224.224,0,0,0,0,.447m-5.363-.894c-1.109-1.068-2.336-1.071-3.575-1.341-.175-.038-.282-.422-.447-.447a10.207,10.207,0,0,0-2.235,0c-.165.025-.271.408-.447.447-.405.088-.968-.1-1.341,0-1.632.445-3.992,2.6-5.363,3.575-.1.072-.352-.07-.447,0a3.388,3.388,0,0,0-1.117,1.341c.852-.18.952.754,1.788.223a3.448,3.448,0,0,1,1.341-.67c-.027.311-.167.912.223.894.3.06.648-.086.894,0,1.071.373,1.737.946,3.129,1.341.182.051.281.417.447.447,2.052.366,4.922-.939,5.587-2.905l3.129-2.682Zm3.8,1.341h.894v-.447H131.9Zm-10.279-19.665c-.672-.143-.92.2-1.341.67l.894.67c-.186-.675.307-.812.447-1.341m-9.386-2.682h-.894c-1.121-3.032-3.159-4.34-6.034-5.81-.3-.156-.659-.826-.894-.894-.28-.08-.629.085-.894,0-.18-.058-.27-.393-.447-.447a1.261,1.261,0,0,0-1.341.447c-.145,0-.261-.393-.447-.447-.9-.26-2.976,1.543-4.469.894l-2.905.894,1.117.894c2.862,1.837,5.442,1.715,8.492,2.235.144.025.726,1,1.117.223-.346-.546-.745-1.047-1.117-1.564-.261-.362-1.206-.872-.447-1.341a6.346,6.346,0,0,1,2.011,3.575c1.487-.405,1.722,1.188,2.905,1.341l4.693,1.788ZM92.126,98.939v.894l2.682.447c0,1.7,2.193,1.913,3.575,1.788l-.894,1.341a1.125,1.125,0,0,1,1.341,1.341c.64-.073,1.414.111,2.011,0,.165-.031,1.628-.866,1.788-.894.86-.153,1.993.106,2.905,0,.088.847-1,.337-1.564.447-.34.065-1.22.308-1.788.447-.646.158-.923.522-1.564.447-.262,1.17.79,1.108,1.117,1.341.3.214.691.836.894.894a16.825,16.825,0,0,0,5.363.447l2.235-1.341,2.011-.447-2.011.894v.894c.5-.78,2.169-.121,2.458-1.117.5-1.733-1.248-1.386-2.011-1.564-.5-.117-1.446-1.107-2.235,0V104.3l-3.129-2.235c-1.473.379-3.428-1.116-4.469-1.341-1.234-.267-2.124.194-3.575-.447-1.79-.789-3.232-1.907-5.14-2.011l-1.788.223Z" transform="translate(-88.976 -49.776)"/>
      <path id="Path_5002" data-name="Path 5002" d="M144.357,413h.287a1.87,1.87,0,0,1-.287,0" transform="translate(-99.642 -228.418)"/>
      <path id="Path_5003" data-name="Path 5003" d="M160.117,168.858c.191-.088.283-.4.447-.447.369-.1.929.083,1.341,0,.172-.035.305-.609.894-.447,1.889.52,3.295.137,5.14.223l2.235-.223-1.117.894a9.71,9.71,0,0,0-4.916.894c-.3.131-.38.675-1.117.447.433-.755.556-.7-.223-1.341-.414.755-1.184.282-1.788.447-.408.111-1.247.652-2.011.894.107-1.239.332-.981,1.117-1.341" transform="translate(-131.716 -92.88)"/>
      <path id="Path_5004" data-name="Path 5004" d="M133.559,413.447,133,413h.518a.848.848,0,0,0,.041.447" transform="translate(-83.481 -228.418)"/>
      <path id="Path_5005" data-name="Path 5005" d="M70.37,49.609l-.894-1.117V47.375h-.894V45.587h-.894c.193-1.134-1.285-1.613-1.788-2.458-.463-.778-.265-1.684-.447-2.235a18.736,18.736,0,0,0-2.682-4.916c-1.09-1.359-2.625-2.1-3.8-3.352-.483.256-.689-.4-.894-.447-.628-.141-1.544.1-2.235,0-.168-.025-.285-.43-.447-.447a45.729,45.729,0,0,0-7.6,0,2.4,2.4,0,0,1-1.788,0c-.346-.132-1.657-1.255-2.011-.894a1.574,1.574,0,0,0,.67,1.788c.575.459,1.2.886,1.788,1.341a24.451,24.451,0,0,1,6.034,6.48c.575.9,2.493,1.167,3.352,2.011.72.07,1.546-.1,2.235,0,1.89.282,1.788.7,4.022,0,.821-.256,1.375.676,2.235.447.784.551,3.411,2.472,3.8,3.352.086.194.109.739-.223.67-.568-.358-1.833-2.124-2.235-2.235a12.857,12.857,0,0,1-1.788-.447c-.807-.3-1.38-.008-1.117.894l2.011.447C66,47.269,68.712,48,69.029,50.056h.894c.011,2.359,1.59,4.633,2.682,6.48.666,1.127,1.381,2.041.67,3.352l.223,1.788c.793.1.417-1.006.447-1.564.038-.719.366-1.281.894-.67-.237.848.181,1.062.447,1.564.751,1.421,1.722,2.5,1.341,4.246l.447-1.341c1.291.371,1.259-1.261,1.341-1.341a16.1,16.1,0,0,1,2.235-.894v-.894h.894c.64-1.5,1.826-2.732,2.682-4.246.691-1.221,1.621-2.322,1.341-3.8l.67.447a9.941,9.941,0,0,1,1.341-.894c1.573-.557,3.111-.152,4.469-.447.419-.091,2.962-1.5,3.575-1.788a11.954,11.954,0,0,0,6.48-6.48c.116-.234-.112-.638,0-.894.906-2.076,2.89-3.266,1.788-5.81.832-1.665,2.906-2.675,2.682-4.693-1.152,1.31-2.143.623-3.352.894-1.41.316-4.028.97-5.81,0l-4.693,2.235V36.2c-1.533.649-4.222,1.689-4.469,3.575h-.894c.387,1.079-1.67,2.477-1.788,2.905-.131.473.1,1.244,0,1.788-.031.172-.427.283-.447.447-.269,2.178.366,5.1,0,7.151-.03.166-.4.265-.447.447a10.01,10.01,0,0,1-.894,2.682,66.631,66.631,0,0,1-4.693,5.14c-.194.086-.739.109-.67-.223l1.341-3.129A10.193,10.193,0,0,0,81.99,54.3c.206-.3.838-.689.894-.894.1-.373-.093-.941,0-1.341.041-.176.416-.278.447-.447.329-1.8-.848-2.838-1.341-4.469-.65-.977-2.329-1.655-2.235-2.905L77.968,43.8c.237.736-.352.853-.447,1.117-.37,1.025-.533,2.538-.894,3.575-.081.233-.859,1.179-.894,1.341a12.92,12.92,0,0,0,.447,5.14h.894l-.447,1.117a12.586,12.586,0,0,1,.894,1.341c.294,1.358-.657,2.419-.447,3.8a3.251,3.251,0,0,1-1.788-2.682h-.894l.447-1.564c-.278-.712-1.284-.613-1.341-.67-.078-.078.1-.43,0-.67-.42-1.005-2.061-3.22-2.235-4.022a21.7,21.7,0,0,1,0-4.022c.013-.16.432-.285.447-.447.108-1.133-.176-2.518,0-3.575.029-.171.447-.3.447-.447,0-.64-1.181-2.543-1.341-3.129-.278-1.017-.232-2.58-.447-3.575-.081-.373-1.26-1.861-1.341-2.235a12.334,12.334,0,0,1,0-2.682c.024-.166.412-.274.447-.447A47.1,47.1,0,0,1,73.5,20.335l-.447-1.788a4.664,4.664,0,0,0,1.788-3.8h.894c.224-.743-.6-1-.447-1.564.511-1.856.2-1.282,0-2.682-.385-2.644-.206-5.549-.894-8.045-.1-.365.821-1.556.447-2.458L71.487,1.341c-1.338.889-1.711,2.392-2.458,3.352-1.717,2.2-2.262,1.86-3.129,4.916-.051.181-.412.278-.447.447-.109.524.092,1.235,0,1.788-.21,1.26-.189,3.142-.447,4.916-.024.166-.416.275-.447.447-.295,1.615.96,6.749,1.341,8.492.719,3.3,1.691,6.283,2.682,9.386,1.221,3.823,3.039,7.82,2.011,12.291ZM68.582,7.151V6.48L72.6,1.788a3.936,3.936,0,0,0,.447,1.564c1.031,2.285.641,2.144.894,4.469.018.164.434.287.447.447.176,2.166-.128,4.512,0,6.7a19.21,19.21,0,0,0-2.235,2.682c-.533.719-1.24,1.984-1.788,2.682-.5.64-1.487,1.019-1.341,2.011-.723.149-.52-1.187-.447-1.564.034-.173.784-.737.447-1.564h.894a7,7,0,0,1,2.235-3.352l.447-2.458-1.341,1.564-.447,1.341L69.476,17.43l.894-2.011-.894-5.81-.894-1.117.447,3.352c1.242,1.533-.332,3.348,0,5.14l-1.788-1.341,1.341,3.352-.894.447-1.341-2.235c1.239-2.177-.411-4.4,0-6.7.029-.166.4-.265.447-.447.081-.286-.093-.644,0-.894.209-.565,1.09-1.27.894-2.011Zm.223,10.279a.224.224,0,0,1,0,.447.224.224,0,0,1,0-.447M65.9,19.218h.447v.894H65.9Zm4.916,1.788c.139-.615,1.357-1.693,1.788-1.341-.14.529-.633.666-.447,1.341Zm-3.129,2.682c-1.079-.2-.723-1.072-.894-1.564-.089-.257-.684-.381-.447-1.117.82.091,1.67,2.274,1.341,2.682m.894-.894,2.682-1.341.447,1.564-.67.223.223-.894-2.235,1.564,1.788.447c-.484.934-1.5,1.621-1.341,2.682L68.135,29.5Zm-1.341,2.235v-.894l.894.67v.223Zm1.117,5.81a.224.224,0,0,1,0,.447.224.224,0,0,1,0-.447M48.023,32.626c.645.067,1.4-.1,2.011,0,1.691.278,2.7.118,4.469.447,1.1.2,2.448.235,3.575.447l5.14,5.14.894,2.458-.447-1.341a3.169,3.169,0,0,1-1.788-.223,10.037,10.037,0,0,1-2.235-2.682,22.406,22.406,0,0,0-2.011-2.458l.67,2.235c-.618.012-1.176.165-1.564-.447a1.294,1.294,0,0,1-.223-.67c-.426-.666-1.111-.581-1.564-1.117L56.068,36.2l-1.341.894c.777.089,1.726-.131,2.458,0,.164.029.261.388.447.447.266.085.614-.08.894,0,.442.127,1.84,2.07,2.458,2.458l-.447.447.67.67,1.564.223c-.048.875-3.131.754-3.8.67-.164-.021-.275-.417-.447-.447-.547-.1-1.262.109-1.788,0-.169-.035-.266-.4-.447-.447-.289-.083-.652.1-.894,0-1.587-.633-3.2-2.884-4.246-4.246a13.493,13.493,0,0,1-1.341-2.235Zm53.185,2.682-.223.894a4.36,4.36,0,0,1,2.905-1.788A1.819,1.819,0,0,1,103,36.425c.848.581.091.555,0,.894-.713,2.674-1.914,4.929-2.682,7.6A20.241,20.241,0,0,1,98.3,47.375,46.784,46.784,0,0,1,92.94,50.5c-1.135.25-2.259.265-3.129.447-.328.068-.754-.039-1.117,0V49.386L87.8,48.269c.331,1.494-.288,1.6-.894,2.458-.235.332-.171,1.378-1.341,1.117a2.382,2.382,0,0,0,.447-1.564c.1-1.461-.27-3.668,0-4.916.035-.163.79-1.082.894-1.341s-.108-.647,0-.894a10.865,10.865,0,0,1,2.905-3.8c.211-.118.587.084.67,0s-.118-.459,0-.67c.581-1.044,3.424-2.4,4.693-2.905.361-.143.686-.74,1.564-.447l.447,1.341c.067-.892-.494-1.277.67-1.341,1.112-.06,2.243.042,3.352,0M78.415,45.587a1.577,1.577,0,0,1,1.788.67,34.4,34.4,0,0,1,1.788,3.129c.192.867-.134,2.176,0,3.129l-3.352,3.8-2.011-4.246c.8-.5.281-1.469.447-2.235.1-.485.644-1.74.894-2.682.069-.262.783-.745.447-1.564" transform="translate(-16.717)"/>
      <path id="Path_5006" data-name="Path 5006" d="M17.307,243.726c-.025,1.335.018,2.686,0,4.022H18.2l-2.458,4.916-.67-.223a1.16,1.16,0,0,1,.447,1.341c-.092.3-.846,1.557-.894,1.788-.186.9.4,1.827-.67,2.458l-.67-.447c.264,1.226-.552,1.667-1.341,2.458l2.235-1.117-.894,1.788.894-.894c.42-.32,1.554.68,2.011.894.223.1.6-.085.894,0,.443.127,4.009,4.16,4.916,4.916.4.333,1.769,1.007,2.235,1.341.76.544,1.282,1.412,2.235,1.788,1.586-.563,4.292-.847,5.81,0l2.011-.894c.237-.736-.357-.859-.447-1.117-.887-2.541-2.119-4.743-3.129-7.151-.107-.256.109-.647,0-.894a5.227,5.227,0,0,0-1.117-1.564c-.114-.072-.356.065-.447,0-.321-.228-.59-.717-.894-.894-.769-.448-2.046-.646-2.682-1.341H21.106l-1.564.894,1.564-1.341h1.117v-1.341c.849.328,1.323-.383,1.564-.447.826-.221,2.311-.222,3.129-.447.475-.131.87-1.393,2.682-.894.245.067.648.826.894.894a19.23,19.23,0,0,0,4.469.894l2.458.894c.106-.649-1.167-.667-1.564-.894-.309-.176-.667-.829-.894-.894-1.314-.377-2.708-.517-4.022-.894-.249-.072-.648-.826-.894-.894a13.439,13.439,0,0,0-2.682,0c-.364.1-.7,1.2-1.564.894.276-.874,1.494-1.3,2.235-1.341v-.894l-1.341-.223c1.151-1.063,1.627-3.194,3.575-2.905l-.223-1.341.447.447c.76-.327,1.309-2.1,1.788-2.235s1.261.114,1.788,0c.469-.1,2.511-1.341,3.129-1.341.149,0,.276.418.447.447,1.811.3,3.394-.118,5.363.447.235.067.59.738.894.894a31.8,31.8,0,0,1,5.81,3.575,31.023,31.023,0,0,1,2.905,2.905c.24.51-.168.916-.67.67-.2-.1-.3-.423-.447-.447a27.17,27.17,0,0,1-3.575-.447c-.249-.072-.648-.826-.894-.894-3.2-.882-6.266.282-9.386-.447a2.122,2.122,0,0,0-1.788.447c-.863.155-1.634-.258-2.458.447l-.447-.894c.167,1.284-.165.7-.67.894-.194.074-.307.447-.447.447-.093,0-.44-.692-1.117-.447l-.447,1.341,4.246-.447c3.726-1.386,8.008-.611,12.067-.447l2.905.894c-.3,1.247-1.3.715-2.011.894-.226.057-.72.777-1.564.447v.894c-.879-.269-2.376,1.642-2.905,1.788-.474.13-1.244-.1-1.788,0-.172.031-.283.427-.447.447a16.6,16.6,0,0,1-10.279-1.788l-2.905-.894.894.67-.67,1.117c.467-.726.658-.326,1.117-.223,2.027.452,4.4,1.773,6.034,2.011a45.089,45.089,0,0,0,7.151,0c.314-.068,2.206-1.121,2.682-1.341,1.234-.571,4.371-2.459,5.363-2.682,1.821-.408,5.034,1.113,4.693-1.788a1.251,1.251,0,0,1-1.341-.67c-2.082-3.259-5.862-4.828-8.715-7.374-2.827-.681-4.983-1.63-8.045-1.341-.161.015-.282.426-.447.447-.81.1-2.022-.182-2.682,0-.228.063-.587.729-.894.894-.552.3-1.77.585-2.235.894-1.752,1.165-3.692,4.553-4.246,6.48-.322,1.121-3.689,2.374-4.693,2.905-1.084.574-2.747,1.263-3.575,1.788-.748.474-.615,1.578-1.564,1.788l.894-3.352-.447-.447.894.223c-.217-1.016.414-1.646.894-2.458.911-1.541,2.164-2.955,3.129-4.469a19.731,19.731,0,0,1,3.352-2.011c.57-.126,1.382.083,2.011,0l-1.788-1.117,3.8-2.458a22.1,22.1,0,0,0,4.469-5.363c.255-.412.437-.908.67-1.341l-1.788.447a11.07,11.07,0,0,1,0,1.117,35.719,35.719,0,0,1-3.352,3.8c-1.069.8-3.324,1.127-3.352,2.682l-2.682.447,1.341.447-.894.447v1.341c-.846-.327-1.172.781-1.564.894-2.21.634-1.158.925-1.564,1.341-.08.082-1.712.05-1.341,1.341-1.358-.025-1.474-.663-1.117-1.788a9.878,9.878,0,0,0-.223-1.788c-.139-.047-.328.052-.447,0m6.48,8.045a.224.224,0,0,1,0,.447.224.224,0,0,1,0-.447m-2.458,5.363,1.564-1.341c.591.851,1.793.255,2.682.447.16.034,1.062.765,1.341.894.224.1.6-.085.894,0a8.693,8.693,0,0,1,2.011,2.458,18.407,18.407,0,0,1,.894,3.129c.2.718,1.309,2.193,1.788,3.575.089.258.685.382.447,1.117-.5-.059-1.108.094-1.564,0-.175-.036-.284-.426-.447-.447a12.96,12.96,0,0,0-4.469.447l-4.693-3.352,1.788-.223-.894-.447V262.5h-.447v.894c-1.1.013-3.449-1.876-4.022-2.905-.118-.211.084-.587,0-.67l-3.129-.447.894-.447-.447-1.117.447-1.117,2.682-.447-2.682,2.235,1.788-.223v-.67l1.564-.894c.4.565,1.357.649,1.788.894,1.6.908,2.824,2.9,4.469,4.022l3.352,1.341c.139-.117-.931-1.288-1.117-1.341-.275-.079-.619.079-.894,0a14.466,14.466,0,0,1-1.564-1.564c-.482-.943,1.292-.891,1.564-.223v-.894c-1.815.1-2.923.237-4.022-1.341Z" transform="translate(49.307 -128.865)"/>
      <path id="Path_5007" data-name="Path 5007" d="M83,241.285c.491-.046.929-.1.894.447a9.214,9.214,0,0,0,1.341-1.788c-.851-.237-1.016.528-1.564.894-.238.159-.372.225-.67.447" transform="translate(-12.81 -132.681)"/>
      <path id="Path_5008" data-name="Path 5008" d="M57.927,187.352c.075-.075.367.074.447,0,.8-.746,1.415-2.353,2.682-2.235a4.357,4.357,0,0,1,.894-3.352,16.045,16.045,0,0,1,2.682-3.575l-.67-1.117a6.928,6.928,0,0,0-2.458,4.022c-1.2-.122-.091-1.308,0-1.564s-.081-.61,0-.894c.29-1.01,2.794-2.979,3.575-4.022a24.82,24.82,0,0,0,2.682-5.81c.108-.528-.1-1.241,0-1.788.03-.171.427-.283.447-.447.289-2.337-.526-4.2-.894-6.257-.689-.568-1.313-3.148-2.011-3.352-.945-.277-2.345,1.31-2.905,2.011a39.194,39.194,0,0,0-2.682,4.022,33.65,33.65,0,0,0-1.788,3.575c.142,2.181-.2,4.555,0,6.7a47.058,47.058,0,0,0,1.341,5.81c.044.178.417.279.447.447a27.163,27.163,0,0,1,0,4.916c-.029.164-.388.261-.447.447-.085.266.08.614,0,.894a16.2,16.2,0,0,1-1.341,1.564M62.4,161.43c-.139-1.217,1.172-1.6,2.011-2.235.934-.1.92.694,1.117,1.117a12.222,12.222,0,0,1,.894,2.682c.044.178.417.279.447.447.217,1.217.186,2.895-.894,3.575l.894-.223c-.064.5.1,1.121,0,1.564-.074.324-2.079,5.1-2.235,5.363-.223.375-.829.725-1.117,1.117l-.67-1.788-.447,2.458-1.788,2.458,1.341-3.352-1.341.67.447-1.341H59.715c.324-.855-.373-1.306-.447-1.564a2.643,2.643,0,0,1,0-1.788,5.935,5.935,0,0,0-.447-2.682c0-.146.4-.264.447-.447A56.418,56.418,0,0,1,61.5,161.43Zm-2.011,14.749a.224.224,0,0,1,0,.447.224.224,0,0,1,0-.447" transform="translate(15.391 -86.792)"/>
      <path id="Path_5009" data-name="Path 5009" d="M13.549,220.23a5.22,5.22,0,0,0-1.788,2.905c-.176.481-.928.144-1.341.223.518-.543.311-1.24.447-1.564,1.405-3.348,4.245-5.69,6.927-7.821,1.7-1.35,3.089-3.111,5.587-2.682V210.4c.116-.139,1.292.782,1.564.894a54.275,54.275,0,0,0,7.151,2.235,29.973,29.973,0,0,0,4.916,0c.113-.031,1.233-1.013,1.788-1.341,2.48-1.466,5.137-2.151,7.6-3.129a4.6,4.6,0,0,0,2.458-1.564c0-.2-1.264-.956-1.564-1.117-2.924-1.578-6-3.148-8.939-4.469-1.691.171-3.738-.238-5.363,0-.165.024-.271.408-.447.447a8.107,8.107,0,0,0-3.129.894c-.412.274-1.066,1.262-1.341,1.341-4.164,1.2-4.821,3.932-8.268,5.81v.894l-2.682.894-.223.447-.223-.447c-.259.115-.941-.069-1.341,0l.447,1.117h-.894A2.622,2.622,0,0,0,14,214.643c-1.1,1.3-2.89,2.242-2.682,4.246l-.894-2.682c.077.9-.552.791-.223,1.788a2.217,2.217,0,0,0,.67,1.117c-.75.582-.7,1.569-.894,2.235-.072.249-.826.648-.894.894-.245.891.173,2.545,0,3.575a2,2,0,0,0,.894.67c.008-.444,0-.9,0-1.341h.447c.026.441-.043.9,0,1.341.369.125.78.581.894.447-.122-1.228-.046-2.328,1.341-2.235-.363-2.336.573-2.808,1.788-4.022-.491.046-.929.1-.894-.447m13.408-13.855c.543-.4,2.724-2.182,2.905-2.235.295-.085.67.1.894,0,.278-.129,1.181-.859,1.341-.894.764-.165,1.878.143,2.682,0a1.284,1.284,0,0,1,1.341-.447c.184.056.282.417.447.447.675.121,1.559-.121,2.235,0,.252.045,4.191,1.622,4.469,1.788.683.407,1.023,1.585,2.011,1.341v1.788L42.376,209.5l-.894-.894-2.905-.447,1.117.894,1.564.67c-.553.991-1.33.484-2.011.67-.853.232-2.62,2.024-3.575,2.235a9.7,9.7,0,0,1-2.235,0c-.168-.025-.282-.427-.447-.447-3.134-.384-4.558-.293-7.374-2.011a3.174,3.174,0,0,0-1.788-.223l.67-.894c1,.365,1.821-.35,2.235-.447,3.721-.867,7.3-.436,11.173-1.341a2.108,2.108,0,0,1,1.788.447c.756.114,1.67-.077,2.458,0l-.67-.894c-1.1.393-2.424-.661-3.129-.447-2.136.649-3.939.091-5.81.894l-.894-.894-1.564.894,1.117-2.682c-.861.4-1.84,2.569-2.235,2.682-.464.133-1.229.424-1.341.447-.531.11-1.3-.129-1.788,0-.371.1-.873,1.362-2.011.894.505-1.13,1.719-1.52,2.682-2.235.02-.015-.061-.447.223-.447Zm-15.419,17.43a.224.224,0,0,1,0,.447.224.224,0,0,1,0-.447" transform="translate(56.641 -111.625)"/>
      <path id="Path_5010" data-name="Path 5010" d="M58.447,212H58l.223.447c.285,0,.2-.432.223-.447" transform="translate(25.151 -117.251)"/>
      <path id="Path_5011" data-name="Path 5011" d="M126.054,16.907c-.307.865.789,1.193.894,1.564.686,2.434,1.888,4.86,2.682,7.151.638,1.842,1.49,4.669,2.682,6.257a20.126,20.126,0,0,0,5.587,4.693,30.336,30.336,0,0,0,8.045,3.129,14.531,14.531,0,0,1,1.564,1.564,10.2,10.2,0,0,1,.447,1.788c.859,1.842,4.2,8.444,4.022,9.832-.045.36-.907.712.447,1.117l.447-2.458c-1.094-.782-.9-1.957-1.341-3.129-1.061-2.79-2.744-6.01-3.575-8.939-1.411-4.971-1.145-9.927-4.022-14.749-.985-1.65-2.359-2.468-3.8-3.8-1.9.169-3.926-1.843-5.363-2.235-1.375-.375-3.049-.486-4.469-.894-.249-.072-.648-.826-.894-.894-.841-.232-2.382.163-3.352,0m3.575,2.682c-.125-.2-.521-.831-.447-.894.64.073,1.413-.11,2.011,0,1.516.279,4,1.713,5.81,2.235.249.072.645.822.894.894.448.129.909-.242,1.341.447l.223,1.341c.8.206.085-1.368,1.117-.894a12.481,12.481,0,0,1,1.564,1.564c.528.646,1.169,1.983,1.788,2.682l1.341,4.916.447,4.693-.894-1.564L144.378,33l-.894,1.341-.447-2.458A4.069,4.069,0,0,1,141.25,29.2c-.1-.371-1.2-.7-.894-1.564-.806-.206-.083,1.366-1.117.894a3.307,3.307,0,0,1-1.117-2.235c-1.8.221-1.742-1.139-2.905-1.788-1.8-1-3.388-4.433-5.587-4.916a8.5,8.5,0,0,0,2.458,2.682,13.486,13.486,0,0,1,2.458,2.682c-.928-.091-2.013.132-2.905,0-.131-.019-.754-.788-1.564-.447.313-.866-.347-1.263-.447-1.564a13.385,13.385,0,0,0-.894-2.682c-.333-.582-2.006-1.6,0-1.564l.223.894c.23.047.476-.043.67,0m13.855,16.983,1.117.447-.447.894c-.463-.766-1.225-.295-1.788-.447-4.581-1.239-9.519-6.059-11.4-10.5a3.685,3.685,0,0,1-.447-2.011c.724.63,1.342.3,2.011.447.174.037.28.42.447.447,1.751.286,1.748-.208,3.575.894.229.138,1.084.113,1.117.894l-2.905-.447-1.564.447c1.668-.127,3.124-.045,4.246,1.341,2.112-.265,3.251,1.528,4.693,2.905l.447,1.564-2.905-.894-2.458.223c.669,1.064,1.579.512,2.458.67.171.031.278.419.447.447,1.281.212,2.943-.584,2.905,1.341h.894Zm2.011.894a.224.224,0,0,1,0,.447.224.224,0,0,1,0-.447" transform="translate(-99.664 -9.309)"/>
      <path id="Path_5012" data-name="Path 5012" d="M156.976,145.211l1.564.447c.187-.244.518-.433.67-.67.122-.189.329-1.171.447-1.341a10.727,10.727,0,0,1,2.905-2.458l3.352-.894c.025-.965-.954-.3-1.341-.223a4.106,4.106,0,0,1-1.788.223,6.026,6.026,0,0,1,1.564-1.788c.214-.142,3.38-1.735,3.575-1.788.373-.1.935.088,1.341,0,.175-.038.282-.423.447-.447,1.945-.285,5.646-.287,7.151.894l2.235.447,1.564.894c-1.345-.088-2.368-.662-3.8-.447-.232.035-2.1.894-2.235.894-.149,0-.3-.447-.447-.447-.076,0-.674.768-1.341.447-.432.646-1.18,1.418-1.564,2.011-.251.387-.7,1-.894,1.341-.118.211.084.587,0,.67s-1.722.281-2.011.894l-1.341-.447v1.341c.462-.767,1.23-.293,1.788-.447.171-.047.262-.379.447-.447a13.894,13.894,0,0,0,1.341-.447c.869-.56,1.239-2.717,2.682-3.575.1-.057.308.063.447,0,.194-.088.288-.411.447-.447.516-.115,1.247.1,1.788,0,.173-.033.281-.422.447-.447.422-.062,2.145-.3,2.011.447l-1.788.447c.27,1.531-1.607.943-1.341,2.011l-2.011,2.011c1.262-.885,3.265-1.413,3.352-3.129h.894v-.894l4.246-.894c.761.628.8.689,0,1.341l-.447-.447a17.756,17.756,0,0,1-4.916,4.022c-.31.184-.667.827-.894.894-.623.184-1.587.286-2.235.447-.178.044-.279.417-.447.447a24.709,24.709,0,0,1-4.469,0c-1.12-.1-3.178-.66-4.469-.894-.762-.138-1.425.293-2.011-.67l3.352-2.011a16.185,16.185,0,0,0,4.916-1.341c.353-.158,1.044-.126,1.117-.894h-4.022l.894.894c-.825-.33-1.277.364-1.564.447-.371.107-.96-.1-1.341,0-1.03.282-2.092,1.362-3.575,1.788-.392.113-.718,1.221-1.564.894l-.447,1.788c1.035-.918,1.29-.038,1.564,0,1.685.237,3.682.169,5.363.447,1.836.3,2.78,1.171,5.363.894.163-.017.284-.43.447-.447,1-.105,2.168.141,3.129,0,.165-.024.271-.408.447-.447a9.984,9.984,0,0,0,1.788-.447,41.007,41.007,0,0,0,4.469-2.235c.484-.259,1.133-1.093,1.788-1.341,1.094-.243,1.364.312,1.788.447.266.085.614-.08.894,0,.082.024,1,.687,1.341.894.625.381,2.634,2.572,2.458.447-.7.181-.735-.177-1.117-.447a11.927,11.927,0,0,0-4.022-2.235c-.663-.19-1.354-2.124-2.235-2.682a29.085,29.085,0,0,0-7.6-3.129c-.578-.145-1-.672-2.235-.447-1.671.305-2.8.241-4.469.447-.164.02-.276.417-.447.447-.548.1-1.272-.114-1.788,0-.148.033-2.434,1.176-2.682,1.341a55.286,55.286,0,0,0-5.14,5.14c-.121.182-.326,1.159-.447,1.341-.347.522-1.19.893-1.341,1.564m25.922-3.575c-1-.2-1.36.921-2.011,1.341-.629.405-1.748.436-2.235,1.341l-2.011.67c1.162-.745,2.3-2.208,3.352-2.905.187-.124,1.112-.317,1.341-.447.581-.332,1.6-2.007,1.564,0" transform="translate(-151.144 -74.596)"/>
      <path id="Path_5013" data-name="Path 5013" d="M55,125.99c.045.046-.043.622.67.447l.223-.447c-.281-.036-.817.064-.894,0" transform="translate(29.044 -69.677)"/>
      <path id="Path_5014" data-name="Path 5014" d="M46.575,130.491v.894c-.615.173-1.429.28-2.011.447-.612.176-1.113,1.551-1.564,2.011a1.234,1.234,0,0,0,2.235,0c1.544-2.424,1.89-2.1,4.246-3.352.306-.163.661-.827.894-.894.295-.085.671.1.894,0,.279-.131,1.181-.859,1.341-.894a15.12,15.12,0,0,1,3.129,0c.288.042,1.85.794,2.235.894a13.089,13.089,0,0,0,4.916.447c.166-.029.265-.4.447-.447.286-.082.643.093.894,0,1.68-.619,3.049-2.282,4.469-3.129a19.316,19.316,0,0,1,4.916-1.788c.47-.094,1.384.276,1.564-.223-.842-.642-1.632-1.91-2.458-2.458a29.641,29.641,0,0,0-4.469-2.235,12.3,12.3,0,0,0-6.257-.894c-.166.024-.274.412-.447.447-.413.083-.978-.1-1.341,0a23.392,23.392,0,0,0-3.129,1.341c-.462.308-.869.974-1.341,1.341-.1.075-.362-.07-.447,0-1.8,1.468-2.586,4.733-3.575,5.363a44.043,44.043,0,0,1-5.14,3.129m22.347-8.939c.469.208.614.3.894.447.486.254,1.569.007,1.341,1.341.968-.015,1.567-.336,1.341.894l-2.905.447c-.379.581-.9.484-1.564.447a9.237,9.237,0,0,1-2.011,2.235c-.188.125-1.1.316-1.341.447-.306.164-.666.831-.894.894a22.541,22.541,0,0,1-4.022,0c-.165-.024-.272-.409-.447-.447-1.253-.272-2.36-.544-3.575-.894-.184-.053-.43-.517-.67-.67l.447-1.117c.495-.065,1.125.1,1.564,0,.172-.04.266-.394.447-.447.435-.127.973.224,1.341-.447h.447c1.28.75,2.722,1.8,4.246,1.788l-3.129-2.011,1.117-.67c.847.1,1.887-.142,2.682,0a27.709,27.709,0,0,0,2.905.894c-.045-.1.082-.333-.223-.447h-.67v-.447h2.235v-.447H60.654c-.147,0-.266.4-.447.447-1.234.307-2.386.514-3.575.894a4.577,4.577,0,0,1-2.458.447c.435-.98,1.566-1.064,2.235-2.011.5-.714.04-.518,1.117-1.117a25.6,25.6,0,0,1,2.235-1.341c.887-.192,2.251.2,3.129,0,.18-.04.305-.609.894-.447a19.276,19.276,0,0,0,3.129.447c.165.024.27.406.447.447.4.091.952-.1,1.341,0,.305.075.2.437.223.447" transform="translate(15.122 -65.686)"/>
      <path id="Path_5015" data-name="Path 5015" d="M57.4,125.447c-.075-.062.074-.373,0-.447l-.447.223c0,.284.427.2.447.223" transform="translate(26.645 -69.134)"/>
      <path id="Path_5016" data-name="Path 5016" d="M59,131.969c.045.1-.082.333.223.447.225.014.451-.012.67,0l-.223-.447c-.195-.071-.45.032-.67,0" transform="translate(23.257 -72.974)"/>
      <path id="Path_5017" data-name="Path 5017" d="M155,125.447h.447l-.223-.447Z" transform="translate(-115.202 -69.134)"/>
      <path id="Path_5018" data-name="Path 5018" d="M156.847,141.894l.894.447c.347-.923-.729-1.1-.894-1.341Z" transform="translate(-118.389 -77.983)"/>
      <path id="Path_5019" data-name="Path 5019" d="M145.05,113.188c-1.058.627-.314,1.965.447,2.458v2.011c-.8.1-.246-.667-.67-1.341-.63-1-2.458-1.729-2.458-3.129-.716-.166-.53,1.268-.447,1.564.073.26,1.057.938,1.341,1.341.493.7,1.368,2.987,2.011,3.352.209.119.587-.084.67,0a2.819,2.819,0,0,1,0,2.458c1.165.749,1.294,1.781,1.788,2.682.821,1.5,2.049,3.4,2.682,4.916.1.241-.078.592,0,.67l1.788-.223c.171-.65-1.17-1.791-1.788-1.564l.447-2.235h-.894v-1.341h-.894c-.164-.645-.285-1.369-.447-2.011-.045-.178-.417-.279-.447-.447a12.452,12.452,0,0,1,0-2.682c.024-.166.326-1.266.447-1.788.253-1.091,1.192-3.007,1.341-4.022a12.449,12.449,0,0,0,0-2.682c-.029-.166-.4-.265-.447-.447-.082-.29.1-.652,0-.894a9.888,9.888,0,0,0-1.341-1.788,5.535,5.535,0,0,0-2.011-2.011c-.984-.742-1.314-2.134-2.235-2.682-.1-.058-.311.064-.447,0-.424-.2-.68-.711-1.564-.447-.078.078.1.43,0,.67-.3.711-1.658,2.077-1.788,2.682a60.085,60.085,0,0,0,0,8.939c.024.164.406.27.447.447.093.4-.1.968,0,1.341a6.925,6.925,0,0,1,.894,1.788c.107.373,1.666,1.557,1.341,2.458l.894-.447-.447-.223v-.447l.447-.223a9.349,9.349,0,0,1-.894-2.458c-.742-1.7-2.173-2.6-1.788-4.916a10.1,10.1,0,0,0,0-3.129c-.04-.18-.609-.305-.447-.894.05-.18.413-.278.447-.447.2-1.008,0-2.1,1.117-2.905l.447.894.447-.894.67.67v2.458l-.894-1.341c-.545-.149-1.226,0-.894.67.318.646,1.8,1.523,2.235,2.235.079.129-.056.67.447.894l-.447,2.458.447-.894h.894c-.059-.5.094-1.108,0-1.564-.035-.171-.406-.271-.447-.447l-.894-3.8c1.6.1,2.513,1.432,3.575,2.458-.4,1,.79,1.409.894,1.788a18.939,18.939,0,0,1,0,3.575c-.057.46-.7,2.1-.894,2.682a3.8,3.8,0,0,0-.447,2.011c-.518.606-.858.054-.894-.67a11.053,11.053,0,0,1,0-1.788c.092-.691.567-.864.447-1.564l-.894.223-.447-2.011c.007.586-.454.586-.447,0" transform="translate(-105.252 -56.874)"/>
      <path id="Path_5020" data-name="Path 5020" d="M4.5,165.469c-.084.084.118.459,0,.67a17.886,17.886,0,0,0-1.341,1.788c-.991,2.268-.981,4.957-1.788,7.151-.2.542-1.214,1.763-1.341,2.235-.082.3.046.757,0,1.117.64-.073,1.414.111,2.011,0,.167-.031.265-.4.447-.447,2.427-.688,4.867-1.058,7.151-1.788.834-.266,2.386-.571,3.129-.894,1.974-.858,4.091-3,5.587-4.693s5.353-7.213,7.374-7.821c.52-.156,1.1.172,1.564-.67L25.28,161H12.319a13.19,13.19,0,0,1-3.575,1.341c-.979.282-2.706,2.644-3.575,3.129-.211.118-.587-.084-.67,0m11.173.447,6.48-3.129,2.458-.67c-.851.673-1.614,1.862-2.458,2.458-1.737,1.226-4.257,4.734-5.587,6.7h-.894c.011,1.358-1.542,2.02-2.458,2.682-.939-.139-1.95.669-2.682.894a2.565,2.565,0,0,1-1.788,0c-.928-.154-2.086.378-2.682-.447l-.894.894c-.591.171-.74-.61-1.341-.447-.222.06-.387.69-1.117.447.962-1.35.13-3.224.447-4.693.035-.163.791-1.083.894-1.341s-.108-.647,0-.894c.984-2.254,3.637-4.27,6.034-5.14a20.729,20.729,0,0,1,3.575-.894c.173-.034.281-.422.447-.447a27.161,27.161,0,0,1,4.916,0c.164.02.275.415.447.447,1.3.24,2.135-.479,3.352-.447l-1.117.894c-.8-.261-1.016.3-1.341.447-1.66.745-5.066,2.8-6.257,3.129-.912.253-1.674-.217-2.458,1.117.405.772.9-.155,1.117-.223a9.16,9.16,0,0,1,2.905-.447Zm-9.832,9.832L8.52,175.3v.447l-2.682.447Zm-.67,0a.224.224,0,0,1,0,.447.224.224,0,0,1,0-.447m-3.352.894H2.71v.447H1.816Z" transform="translate(82.229 -89.044)"/>
      <path id="Path_5021" data-name="Path 5021" d="M72,57.852l.894-2.682c-.067.8.1,1.685,0,2.458-.021.165-.422.279-.447.447-.059.4-.307,2.125.447,2.011l.894-4.469c.737.236.854-.352,1.117-.447.248-.09.6.075.894,0,1.751-.447,3.662-1.17,5.363-1.788,1.251-.455,5.68-3.057,6.034-4.246a11.066,11.066,0,0,0,0-1.117h.894a36.61,36.61,0,0,0,3.129-8.268c.151-.525,2.663-2.388,3.129-3.129l-1.117-.67c-.711.081-1.569-.119-2.235,0-.168.03-.269.4-.447.447-3.141.781-5.8.817-8.939,2.235a15.425,15.425,0,0,0-7.821,6.927A22.189,22.189,0,0,0,72.447,47.8c-.1.373.088.935,0,1.341-.038.177-.447.3-.447.447ZM84.961,38.634c.733.241.884-.378,1.117-.447.361-.107.939.093,1.341,0,.357-.082,1.03-1.095,1.788,0a3.2,3.2,0,0,1,2.458-.894l-2.458,3.129a15.056,15.056,0,0,1-2.682.894,5.967,5.967,0,0,0-1.564,1.117l2.011-.223,3.352-2.235a3.965,3.965,0,0,1-.447,1.564A29.6,29.6,0,0,1,86.749,47.8a18.741,18.741,0,0,1-5.587,4.693c-.465.187-1.707.278-2.235.447-1.094.349-1.05.787-2.235.447-1.136-.326-1.408.789-1.788.894-.524.144-1.4-.1-2.011,0-.38-1.364.709-2.678.447-3.8-.04-.17-.706-.453-.447-1.341,2.157-3.866,3.934-6.719,7.821-9.162l3.129-1.341.67.67-1.341,2.235L83.4,43.1c1-.571.491-1.349.67-2.011.064-.238.33-1.018.447-1.341.1-.264.683-.381.447-1.117" transform="translate(-17.006 -19.862)"/>
      <path id="Path_5022" data-name="Path 5022" d="M76.828,150.478a1.575,1.575,0,0,0,1.788-.67c.566-.9.847-1.527,2.235-1.564v-.894c.5.059,1.108-.094,1.564,0a18.855,18.855,0,0,1,2.682,1.341c.223.1.6-.084.894,0s1.478,1.467,1.117,1.788l-2.905.447a13.27,13.27,0,0,1-5.81.447c-.171-.038-.268-.4-.447-.447l-1.117.894,3.352.447,1.564.894c-.782-.084-1.715.123-2.458,0-.171-.029-.3-.447-.447-.447s-.276.418-.447.447c-.684.114-1.55-.113-2.235,0-.167.028-.272.408-.447.447a6.147,6.147,0,0,0-2.235.447c-.445.265-.876,1-1.341,1.341-.443.224.33.863.447.894,1.41.377,2.861-.387,4.246-.447l-3.575-.894,3.352-.894c1.519-.222,4.1.347,5.363,0,.245-.067.648-.826.894-.894.461-.127,1.346-.1,2.011-.223a6.256,6.256,0,0,1,2.235-.223l-2.682-.894,2.905-.894c.584.48,1.411,1.232,2.011.223-.5-.624-1.35-1.167-1.788-1.788-.065-.092.072-.334,0-.447-.575-.9-2.493-1.167-3.352-2.011-1.207.173-2.922-.243-4.022,0-.163.036-.257.371-.447.447a4.041,4.041,0,0,0-2.235,1.341c-.334.537-.193,1.187-.67,1.788" transform="translate(-12.002 -81.204)"/>
      <path id="Path_5023" data-name="Path 5023" d="M122.575,127.851l1.341,1.341c.073-.9-.306-1.912.447-2.458a1.986,1.986,0,0,1-.894-2.235l1.117-2.011.223,2.458.894.223c.429-2.255-.67-2.806-1.788-4.246-.076-.1.07-.362,0-.447-.379-.463-1.784-1.977-2.235-1.564l-.447.894c.112.5.638.659.447,1.341l.447-1.341.894,1.117v2.011c-.722-.077-.722-.654-.894-1.117-.117-.315-.932-.342-1.341-.67.023,2.108,2.67,2.64,2.235,4.693l-.894-.223Z" transform="translate(-70.263 -65.728)"/>
      <path id="Path_5024" data-name="Path 5024" d="M131.649,114.911c-.1-.463.118-1.138,0-1.564-.087-.314-1.254-1.027-1.341-1.341-.228-.828.375-2.094-1.341-2.011-.072.64.109,1.411,0,2.011-.052.287-.856,1.98-.894,2.235-.344,2.312.6,2.746,1.341,4.469a11.511,11.511,0,0,0,.447,1.341c.284.6.578,1.733.894,2.235.379.6,1.725,1.835,2.235.67l-1.341-1.117c-1.281-2.424-1.469-4.472-1.788-7.151-.083-.693-.573-.859-.447-1.564,1.189-.388,1.761,1.788,2.235,1.788" transform="translate(-80.677 -60.833)"/>
      <path id="Path_5025" data-name="Path 5025" d="M123.67,188.575l1.117-1.341.67.894-.894.223,1.564,1.117v-.894l.447-.447c.428-.3.742.447.894.447.223,0,.339-.874.894,0l.223-.223c-.793-.7-.556-2.025,0-2.905-1.043-.106-1.5.646-1.341,1.564-.087.7-2.188.058-1.788-1.117l-1.341.67.223-1.564L123,187.682Z" transform="translate(-74.04 -102.318)"/>
      <path id="Path_5026" data-name="Path 5026" d="M134.447,136.935c.646.881.21.914-.447,1.564,0,.264,2.117,1.825,2.235,2.235.286.994.609,1.687.894,2.682a3.551,3.551,0,0,0,1.341,1.117l-.447-3.129h-.894c-.323-1.244-1.286-2.023-1.788-3.352-.233-.618.532-1.378-.894-1.117" transform="translate(-88.839 -75.705)"/>
      <path id="Path_5027" data-name="Path 5027" d="M123.285,149.469c-.133-.775.7-1.187.447-2.011-.058-.185-.417-.282-.447-.447-.108-.585.289-1.65-.223-2.011-1.294.774-.205,1.487-.223,1.564-.041.173-.834,1.136-.894,1.341a1.194,1.194,0,0,0,1.341,1.564" transform="translate(-68.738 -80.195)"/>
      <path id="Path_5028" data-name="Path 5028" d="M160.947,218.906c.512.611.858.056.894-.67.041-.837-.2-1.84.223-2.458l-.223-1.788c-.8-.1-.246.667-.67,1.341-.149.236-.485.426-.67.67.8.644.341,1.889.447,2.905" transform="translate(-124.277 -118.346)"/>
      <path id="Path_5029" data-name="Path 5029" d="M39,270.982l1.564,1.341,4.246,1.564c-.617-.386-1.478-1.256-2.011-1.564-.11-.063-.332.065-.447,0-1.033-.581-2.055-1.479-3.352-1.341" transform="translate(47.279 -149.864)"/>
      <path id="Path_5030" data-name="Path 5030" d="M141.442,203c-.106,1.016.355,2.261-.447,2.905v.447l1.341.67v-1.341l.894-.894-1.341.223c.058-.3-.082-.642,0-.894.328-1.011,1.857-.241,1.788-1.117Z" transform="translate(-97.174 -112.273)"/>
      <path id="Path_5031" data-name="Path 5031" d="M63,235.841l.223.894,3.129-.894,1.564-.894c-.777.089-1.726-.131-2.458,0-.168.03-.269.4-.447.447-.294.074-.646-.089-.894,0-.263.1-.381.683-1.117.447" transform="translate(13.447 -129.919)"/>
      <path id="Path_5032" data-name="Path 5032" d="M141.847,187.914l-.894,2.682,2.682-2.011c.164-1.063-.677-.835-1.117-.223Z" transform="translate(-97.132 -103.891)"/>
      <path id="Path_5033" data-name="Path 5033" d="M133.841,208.568l-1.341-.67,1.788,1.564.223-1.341-.223-3.129c-.79-.1-.422,1.01-.447,1.564-.03.669.02,1.346,0,2.011" transform="translate(-84.21 -113.371)"/>
      <path id="Path_5034" data-name="Path 5034" d="M202,211l1.117.894h1.788l2.458.67-1.564-1.117Z" transform="translate(-188.124 -116.698)"/>
      <path id="Path_5035" data-name="Path 5035" d="M167.276,225.469c.2-.852-.494-1.047-.894-1.564A19.778,19.778,0,0,0,163.924,221l1.117,2.458Z" transform="translate(-131.053 -122.228)"/>
      <path id="Path_5036" data-name="Path 5036" d="M162.337,206.682c-.036-1,.331-1.992-.67-2.682-1.288.9-.333,1.589-.223,2.682a8.89,8.89,0,0,0,.894,0c.011.3,0,.6,0,.894h.223l.67-1.341c-.375-.007-.448.341-.894.447" transform="translate(-125.667 -112.826)"/>
      <path id="Path_5037" data-name="Path 5037" d="M79.013,249.341c-.166.716,1.269.53,1.564.447.384-.108.789-1.3,1.788-.894L83.483,248Z" transform="translate(-9.271 -137.161)"/>
      <path id="Path_5038" data-name="Path 5038" d="M145,101l1.788,2.235-.447-2.011Z" transform="translate(-102.073 -55.86)"/>
      <path id="Path_5039" data-name="Path 5039" d="M146,248.129l.67-.894h.67L146.894,245,146,246.118Z" transform="translate(-103.073 -135.502)"/>
      <path id="Path_5040" data-name="Path 5040" d="M74,278.447l3.129.447L76.011,278Z" transform="translate(-0.682 -153.753)"/>
      <path id="Path_5041" data-name="Path 5041" d="M170,215l1.341,2.235.447-2.011Z" transform="translate(-138.246 -118.91)"/>
      <path id="Path_5042" data-name="Path 5042" d="M122,401l1.117,1.564.447,2.011-1.117-1.788Z" transform="translate(-68.57 -221.781)"/>
      <path id="Path_5043" data-name="Path 5043" d="M137,188v1.788h.894l.447-1.117Z" transform="translate(-90.051 -103.977)"/>
      <path id="Path_5044" data-name="Path 5044" d="M127,148.682h.447l.447-1.564-.67-1.117Z" transform="translate(-75.135 -80.748)"/>
      <path id="Path_5045" data-name="Path 5045" d="M78.5,238c.331,1.348-.686,1.6-1.341,2.458-.073.1.071.355,0,.447-.328.422-1.4.98-1.117,1.564a3.173,3.173,0,0,0,2.011-2.458l1.788-1.564Z" transform="translate(-4.292 -131.63)"/>
      <path id="Path_5046" data-name="Path 5046" d="M72,244.788l2.011-.894L75.129,243H73.564Z" transform="translate(2.212 -134.396)"/>
      <path id="Path_5047" data-name="Path 5047" d="M140.278,265.965l-.894,1.341,2.905.894c.236-.465-.395-1.216-.67-1.564-.372-.47-.687-.8-1.341-.67" transform="translate(-95.116 -147.081)"/>
      <path id="Path_5048" data-name="Path 5048" d="M135.342,203.682l1.341-1.341c.56.041.465.652.894.223.736-.736-.16-.655,0-1.564Z" transform="translate(-88.84 -111.167)"/>
      <path id="Path_5049" data-name="Path 5049" d="M170.861,200l.447-1.117c-1.015-1.4-2.119.536-.447,1.117" transform="translate(-137.767 -109.72)"/>
      <path id="Path_5050" data-name="Path 5050" d="M113,81.447v.894a2.3,2.3,0,0,1,1.788-.447V81Z" transform="translate(-55.771 -44.799)"/>
      <path id="Path_5051" data-name="Path 5051" d="M98.921,266.894h.894v.894h.447a1.576,1.576,0,0,0-.67-1.788Z" transform="translate(-34.988 -147.116)"/>
      <path id="Path_5052" data-name="Path 5052" d="M120.447,192.576l.447-1.564L120,189Z" transform="translate(-65.006 -104.53)"/>
      <path id="Path_5053" data-name="Path 5053" d="M106,186c.28.978,1.467.893,2.011,1.788l.223-.223-.447-1.117Z" transform="translate(-46.09 -102.871)"/>
      <path id="Path_5054" data-name="Path 5054" d="M139.017,211.32l1.341-.447v-.894a1.125,1.125,0,0,0-1.341,1.341" transform="translate(-92.962 -116.124)"/>
      <path id="Path_5055" data-name="Path 5055" d="M105.209,231.512v-.67c-.875-1.333-1.836.2-.67.67Z" transform="translate(-42.17 -127.378)"/>
      <path id="Path_5056" data-name="Path 5056" d="M103,169v.894h1.788v-.447Z" transform="translate(-41.302 -93.469)"/>
      <path id="Path_5057" data-name="Path 5057" d="M107,222.788h.447l.447-1.788-.894.67Z" transform="translate(-46.196 -122.228)"/>
      <path id="Path_5058" data-name="Path 5058" d="M99.823,207h-.447c-.073.9.306,1.912-.447,2.458l.223.223c.971-.64.643-1.608.67-2.682" transform="translate(-34.549 -114.485)"/>
      <path id="Path_5059" data-name="Path 5059" d="M155.894,247.788,155.447,246H155v1.117Z" transform="translate(-115.649 -136.055)"/>
      <path id="Path_5060" data-name="Path 5060" d="M112.573,413l.782.894c-.835.139-1.076-.358-1.355-.894Z" transform="translate(-53.891 -228.418)"/>
      <path id="Path_5061" data-name="Path 5061" d="M113.75,411.223l.223-.223.782.894h-.573a2.923,2.923,0,0,0-.433-.67" transform="translate(-56.074 -227.311)"/>
      <rect id="Rectangle_246" data-name="Rectangle 246" width="0.447" height="2.235" transform="translate(19.239 88.492)"/>
      <path id="Path_5062" data-name="Path 5062" d="M149,194.341h.894V193h-.447c.186.675-.307.812-.447,1.341" transform="translate(-106.967 -106.742)"/>
      <rect id="Rectangle_247" data-name="Rectangle 247" width="0.447" height="1.788" transform="translate(62.145 89.386)"/>
      <path id="Path_5063" data-name="Path 5063" d="M97.961,173.83c.559.289,1.562-.716,1.341-.894-.559-.289-1.562.716-1.341.894" transform="translate(-33.582 -95.617)"/>
      <path id="Path_5064" data-name="Path 5064" d="M121.825,215.825c-.489.489.4,1.383.894.894s-.4-1.383-.894-.894" transform="translate(-67.724 -119.288)"/>
      <path id="Path_5065" data-name="Path 5065" d="M137.995,106l.894,2.235h.447c.049-.832-.689-1.265-.447-2.235Z" transform="translate(-91.492 -58.625)"/>
      <path id="Path_5066" data-name="Path 5066" d="M88.982,228.235l1.341.447c-.232-1.176,1.481-1.4,1.341-2.682l-1.341,1.564Z" transform="translate(-21.921 -124.994)"/>
      <path id="Path_5067" data-name="Path 5067" d="M120,288.341h.894c-.14-.529-.633-.666-.447-1.341H120Z" transform="translate(-65.006 -158.731)"/>
      <path id="Path_5068" data-name="Path 5068" d="M37,271.894h1.341v-.447c-.675.186-.812-.307-1.341-.447Z" transform="translate(54.642 -149.882)"/>
      <path id="Path_5069" data-name="Path 5069" d="M97.894,263.341V262H97.67l-.67.67Z" transform="translate(-31.727 -144.904)"/>
      <rect id="Rectangle_248" data-name="Rectangle 248" width="0.447" height="1.341" transform="translate(65.273 114.861)"/>
      <path id="Path_5070" data-name="Path 5070" d="M91,220.341h.894l-.447-.67.223-.67Z" transform="translate(-23.045 -121.122)"/>
      <path id="Path_5071" data-name="Path 5071" d="M141,193.894h.894V193Z" transform="translate(-95.392 -106.742)"/>
      <path id="Path_5072" data-name="Path 5072" d="M154,194l.894.894V194Z" transform="translate(-114.202 -107.296)"/>
      <path id="Path_5073" data-name="Path 5073" d="M150,198.894h.894V198Z" transform="translate(-108.414 -109.508)"/>
      <rect id="Rectangle_249" data-name="Rectangle 249" width="0.447" height="1.341" transform="translate(63.039 94.302)"/>
      <rect id="Rectangle_250" data-name="Rectangle 250" width="0.447" height="1.341" transform="translate(38.011 93.855)"/>
      <rect id="Rectangle_251" data-name="Rectangle 251" width="0.447" height="0.894" transform="translate(53.653 177.432)"/>
      <path id="Path_5074" data-name="Path 5074" d="M104,207.341h.447l.447-1.117L104.67,206Z" transform="translate(-41.855 -113.932)"/>
      <rect id="Rectangle_252" data-name="Rectangle 252" width="0.894" height="0.447" transform="translate(14.323 92.068)"/>
      <rect id="Rectangle_253" data-name="Rectangle 253" width="0.447" height="0.894" transform="translate(19.686 92.068)"/>
      <rect id="Rectangle_254" data-name="Rectangle 254" width="0.894" height="0.447" transform="translate(12.982 91.621)"/>
      <rect id="Rectangle_255" data-name="Rectangle 255" width="0.447" height="0.894" transform="translate(32.647 91.174)"/>
      <rect id="Rectangle_256" data-name="Rectangle 256" width="0.447" height="0.894" transform="translate(63.486 90.727)"/>
      <rect id="Rectangle_257" data-name="Rectangle 257" width="0.447" height="0.894" transform="translate(49.631 89.386)"/>
      <rect id="Rectangle_258" data-name="Rectangle 258" width="0.447" height="0.894" transform="translate(60.357 95.196)"/>
      <path id="Path_5075" data-name="Path 5075" d="M141.894,198h-.447L141,199.118l.223.223Z" transform="translate(-95.392 -109.508)"/>
      <rect id="Rectangle_259" data-name="Rectangle 259" width="0.447" height="0.894" transform="translate(47.843 88.045)"/>
      <rect id="Rectangle_260" data-name="Rectangle 260" width="0.447" height="0.894" transform="translate(54.994 183.689)"/>
      <rect id="Rectangle_261" data-name="Rectangle 261" width="0.447" height="0.894" transform="translate(57.229 86.258)"/>
      <path id="Path_5076" data-name="Path 5076" d="M101.894,215h-.447L101,216.118l.223.223Z" transform="translate(-37.514 -118.91)"/>
      <rect id="Rectangle_262" data-name="Rectangle 262" width="0.894" height="0.447" transform="translate(47.843 83.129)"/>
      <rect id="Rectangle_263" data-name="Rectangle 263" width="0.447" height="0.894" transform="translate(61.698 97.431)"/>
      <rect id="Rectangle_264" data-name="Rectangle 264" width="0.447" height="0.894" transform="translate(51.419 168.94)"/>
      <rect id="Rectangle_265" data-name="Rectangle 265" width="0.894" height="0.447" transform="translate(52.759 162.236)"/>
      <rect id="Rectangle_266" data-name="Rectangle 266" width="0.447" height="0.894" transform="translate(67.955 99.666)"/>
      <rect id="Rectangle_267" data-name="Rectangle 267" width="0.447" height="0.894" transform="translate(52.312 158.214)"/>
      <rect id="Rectangle_268" data-name="Rectangle 268" width="0.447" height="0.894" transform="translate(53.206 155.979)"/>
      <rect id="Rectangle_269" data-name="Rectangle 269" width="0.447" height="0.894" transform="translate(53.206 153.744)"/>
      <rect id="Rectangle_270" data-name="Rectangle 270" width="0.894" height="0.447" transform="translate(22.815 100.559)"/>
      <rect id="Rectangle_271" data-name="Rectangle 271" width="0.447" height="0.894" transform="translate(56.335 146.146)"/>
      <rect id="Rectangle_272" data-name="Rectangle 272" width="0.447" height="0.894" transform="translate(46.502 46.034)"/>
      <rect id="Rectangle_273" data-name="Rectangle 273" width="0.894" height="0.447" transform="translate(49.631 64.805)"/>
      <rect id="Rectangle_274" data-name="Rectangle 274" width="0.894" height="0.447" transform="translate(18.346 63.911)"/>
      <path id="Path_5077" data-name="Path 5077" d="M134.447,141.341h.447l-.67-1.341-.223.223Z" transform="translate(-85.263 -77.43)"/>
      <rect id="Rectangle_275" data-name="Rectangle 275" width="0.447" height="0.894" transform="translate(47.396 113.967)"/>
      <rect id="Rectangle_276" data-name="Rectangle 276" width="0.948" height="0.316" transform="translate(37.787 55.866) rotate(-135)"/>
      <path id="Path_5078" data-name="Path 5078" d="M121.231,137a.224.224,0,0,0,0,.447.224.224,0,0,0,0-.447" transform="translate(-66.013 -75.77)"/>
      <path id="Path_5079" data-name="Path 5079" d="M126.231,144a.224.224,0,0,0,0,.447.224.224,0,0,0,0-.447" transform="translate(-73.248 -79.642)"/>
      <path id="Path_5080" data-name="Path 5080" d="M83.231,152a.224.224,0,0,0,0,.447.224.224,0,0,0,0-.447" transform="translate(-11.03 -84.067)"/>
      <path id="Path_5081" data-name="Path 5081" d="M86.231,153a.224.224,0,0,0,0,.447.224.224,0,0,0,0-.447" transform="translate(-15.371 -84.62)"/>
      <path id="Path_5082" data-name="Path 5082" d="M125.231,156a.224.224,0,0,0,0,.447.224.224,0,0,0,0-.447" transform="translate(-71.801 -86.279)"/>
      <path id="Path_5083" data-name="Path 5083" d="M143.231,100a.224.224,0,0,0,0,.447.224.224,0,0,0,0-.447" transform="translate(-97.846 -55.307)"/>
      <rect id="Rectangle_277" data-name="Rectangle 277" width="0.316" height="0.948" transform="translate(62.368 71.509) rotate(-135)"/>
      <rect id="Rectangle_278" data-name="Rectangle 278" width="0.316" height="0.948" transform="translate(56.558 74.191) rotate(-135)"/>
      <path id="Path_5084" data-name="Path 5084" d="M137.231,169a.224.224,0,0,0,0,.447.224.224,0,0,0,0-.447" transform="translate(-89.164 -93.469)"/>
      <path id="Path_5085" data-name="Path 5085" d="M151.231,178a.224.224,0,0,0,0,.447.224.224,0,0,0,0-.447" transform="translate(-109.421 -98.446)"/>
      <path id="Path_5086" data-name="Path 5086" d="M134.231,182a.224.224,0,0,0,0,.447.224.224,0,0,0,0-.447" transform="translate(-84.823 -100.659)"/>
      <rect id="Rectangle_279" data-name="Rectangle 279" width="0.948" height="0.316" transform="translate(59.24 83.129) rotate(-135)"/>
      <rect id="Rectangle_280" data-name="Rectangle 280" width="0.948" height="0.316" transform="translate(62.815 83.576) rotate(-135)"/>
      <path id="Path_5087" data-name="Path 5087" d="M104.231,189a.224.224,0,0,0,0,.447.224.224,0,0,0,0-.447" transform="translate(-41.416 -104.53)"/>
      <path id="Path_5088" data-name="Path 5088" d="M100.231,190a.224.224,0,0,0,0,.447.224.224,0,0,0,0-.447" transform="translate(-35.628 -105.083)"/>
      <path id="Path_5089" data-name="Path 5089" d="M110.231,191a.224.224,0,0,0,0,.447.224.224,0,0,0,0-.447" transform="translate(-50.097 -105.636)"/>
      <path id="Path_5090" data-name="Path 5090" d="M148.231,191a.224.224,0,0,0,0,.447.224.224,0,0,0,0-.447" transform="translate(-105.081 -105.636)"/>
      <path id="Path_5091" data-name="Path 5091" d="M109.231,193a.224.224,0,0,0,0,.447.224.224,0,0,0,0-.447" transform="translate(-48.65 -106.742)"/>
      <path id="Path_5092" data-name="Path 5092" d="M101.231,197a.224.224,0,0,0,0,.447.224.224,0,0,0,0-.447" transform="translate(-37.075 -108.955)"/>
      <path id="Path_5093" data-name="Path 5093" d="M212.231,197a.224.224,0,0,0,0,.447.224.224,0,0,0,0-.447" transform="translate(-197.684 -108.955)"/>
      <path id="Path_5094" data-name="Path 5094" d="M98.231,199a.224.224,0,0,0,0,.447.224.224,0,0,0,0-.447" transform="translate(-32.734 -110.061)"/>
      <path id="Path_5095" data-name="Path 5095" d="M62.231,200a.224.224,0,0,0,0,.447.224.224,0,0,0,0-.447" transform="translate(19.356 -110.614)"/>
      <path id="Path_5096" data-name="Path 5096" d="M120.231,201a.224.224,0,0,0,0,.447.224.224,0,0,0,0-.447" transform="translate(-64.566 -111.167)"/>
      <path id="Path_5097" data-name="Path 5097" d="M137.231,207a.224.224,0,0,0,0,.447.224.224,0,0,0,0-.447" transform="translate(-89.164 -114.485)"/>
      <path id="Path_5098" data-name="Path 5098" d="M194.231,208a.224.224,0,0,0,0,.447.224.224,0,0,0,0-.447" transform="translate(-171.639 -115.038)"/>
      <path id="Path_5099" data-name="Path 5099" d="M175.231,211a.224.224,0,0,0,0,.447.224.224,0,0,0,0-.447" transform="translate(-144.148 -116.698)"/>
      <path id="Path_5100" data-name="Path 5100" d="M121.231,213a.224.224,0,0,0,0,.447.224.224,0,0,0,0-.447" transform="translate(-66.013 -117.804)"/>
      <path id="Path_5101" data-name="Path 5101" d="M104.231,215a.224.224,0,0,0,0,.447.224.224,0,0,0,0-.447" transform="translate(-41.416 -118.91)"/>
      <path id="Path_5102" data-name="Path 5102" d="M110.231,220a.224.224,0,0,0,0,.447.224.224,0,0,0,0-.447" transform="translate(-50.097 -121.675)"/>
      <path id="Path_5103" data-name="Path 5103" d="M165.231,220a.224.224,0,0,0,0,.447.224.224,0,0,0,0-.447" transform="translate(-129.678 -121.675)"/>
      <path id="Path_5104" data-name="Path 5104" d="M202.231,220a.224.224,0,0,0,0,.447.224.224,0,0,0,0-.447" transform="translate(-183.215 -121.675)"/>
      <rect id="Rectangle_281" data-name="Rectangle 281" width="0.316" height="0.948" transform="translate(69.966 100.56) rotate(-135)"/>
      <path id="Path_5105" data-name="Path 5105" d="M162.231,226a.224.224,0,0,0,0,.447.224.224,0,0,0,0-.447" transform="translate(-125.338 -124.994)"/>
      <path id="Path_5106" data-name="Path 5106" d="M92.231,227a.224.224,0,0,0,0,.447.224.224,0,0,0,0-.447" transform="translate(-24.052 -125.547)"/>
      <path id="Path_5107" data-name="Path 5107" d="M151.231,247a.224.224,0,0,0,0,.447.224.224,0,0,0,0-.447" transform="translate(-109.421 -136.608)"/>
      <path id="Path_5108" data-name="Path 5108" d="M151.231,249a.224.224,0,0,0,0,.447.224.224,0,0,0,0-.447" transform="translate(-109.421 -137.714)"/>
      <path id="Path_5109" data-name="Path 5109" d="M152.231,253a.224.224,0,0,0,0,.447.224.224,0,0,0,0-.447" transform="translate(-110.868 -139.926)"/>
      <path id="Path_5110" data-name="Path 5110" d="M88.231,256a.224.224,0,0,0,0,.447.224.224,0,0,0,0-.447" transform="translate(-18.265 -141.586)"/>
      <path id="Path_5111" data-name="Path 5111" d="M102.231,263a.224.224,0,0,0,0,.447.224.224,0,0,0,0-.447" transform="translate(-38.522 -145.457)"/>
      <path id="Path_5112" data-name="Path 5112" d="M132.231,264a.224.224,0,0,0,0,.447.224.224,0,0,0,0-.447" transform="translate(-81.93 -146.01)"/>
      <path id="Path_5113" data-name="Path 5113" d="M106.231,269a.224.224,0,0,0,0,.447.224.224,0,0,0,0-.447" transform="translate(-44.309 -148.776)"/>
      <path id="Path_5114" data-name="Path 5114" d="M41.231,271a.224.224,0,0,0,0,.447.224.224,0,0,0,0-.447" transform="translate(49.741 -149.882)"/>
      <path id="Path_5115" data-name="Path 5115" d="M126.231,307a.224.224,0,0,0,0,.447.224.224,0,0,0,0-.447" transform="translate(-73.248 -169.792)"/>
      <path id="Path_5116" data-name="Path 5116" d="M119.231,333a.224.224,0,0,0,0,.447.224.224,0,0,0,0-.447" transform="translate(-63.119 -184.172)"/>
      <path id="Path_5117" data-name="Path 5117" d="M125.231,333a.224.224,0,0,0,0,.447.224.224,0,0,0,0-.447" transform="translate(-71.801 -184.172)"/>
      <path id="Path_5118" data-name="Path 5118" d="M125.231,347.447a.224.224,0,0,1,0-.447.224.224,0,0,1,0,.447" transform="translate(-71.801 -191.915)"/>
      <path id="Path_5119" data-name="Path 5119" d="M126.231,359.447a.224.224,0,0,1,0-.447.224.224,0,0,1,0,.447" transform="translate(-73.248 -198.552)"/>
      <path id="Path_5120" data-name="Path 5120" d="M127.231,377.447a.224.224,0,0,1,0-.447.224.224,0,0,1,0,.447" transform="translate(-74.695 -208.507)"/>
      <path id="Path_5121" data-name="Path 5121" d="M126.231,394.447a.224.224,0,0,1,0-.447.224.224,0,0,1,0,.447" transform="translate(-73.248 -217.909)"/>
      <path id="Path_5122" data-name="Path 5122" d="M171,270.064l2.235-.447V268.5Z" transform="translate(-140.14 -148.499)"/>
      <path id="Path_5123" data-name="Path 5123" d="M178.447,272.17c-.057.058-.261,1.234-.447,1.564l.894.223,1.341-2.458Z" transform="translate(-150.269 -150.158)"/>
      <path id="Path_5124" data-name="Path 5124" d="M181,262.955v.447c1.016.106,2.261-.355,2.905.447l.223-.223c-.716-1.059-1.944-.592-3.129-.67" transform="translate(-155.503 -145.412)"/>
      <path id="Path_5125" data-name="Path 5125" d="M194,276.447v.447h1.788V276a2.3,2.3,0,0,1-1.788.447" transform="translate(-172.973 -152.647)"/>
      <path id="Path_5126" data-name="Path 5126" d="M165.447,262l.894.67L165,265.129l.67-.894h.67l.447-1.564Z" transform="translate(-131.012 -144.904)"/>
      <rect id="Rectangle_282" data-name="Rectangle 282" width="1.341" height="0.447" transform="translate(29.966 116.202)"/>
      <path id="Path_5127" data-name="Path 5127" d="M176.035,275.788h.447l.447-1.564-.223-.223a1.576,1.576,0,0,0-.67,1.788" transform="translate(-146.07 -151.541)"/>
      <rect id="Rectangle_283" data-name="Rectangle 283" width="0.894" height="0.447" transform="translate(27.731 116.202)"/>
      <path id="Path_5128" data-name="Path 5128" d="M169,265.341h.447l.447-1.117L169.67,264Z" transform="translate(-135.906 -146.01)"/>
      <path id="Path_5129" data-name="Path 5129" d="M169.231,256a.224.224,0,0,0,0,.447.224.224,0,0,0,0-.447" transform="translate(-135.466 -141.586)"/>
      <path id="Path_5130" data-name="Path 5130" d="M172.231,265a.224.224,0,0,0,0,.447.224.224,0,0,0,0-.447" transform="translate(-139.807 -146.563)"/>
      <path id="Path_5131" data-name="Path 5131" d="M184.231,276a.224.224,0,0,0,0,.447.224.224,0,0,0,0-.447" transform="translate(-157.17 -152.647)"/>
      <path id="Path_5132" data-name="Path 5132" d="M201.341,241.725v1.117l-1.341.447c1.544,2.037,2.514-.87,3.352-1.117a27.006,27.006,0,0,1,10.726-1.341l1.117-.894h-1.564c-.873,1.165-2.511.077-3.129,0-3.4-.425-5.926,1.967-9.162,1.788" transform="translate(-195.062 -132.674)"/>
      <path id="Path_5133" data-name="Path 5133" d="M204.007,236.382c-.1.78,1.02.436,1.564.447a35.285,35.285,0,0,1,3.575.447c.935.1,1.958-.066,2.905,0l-1.564-.894c-1.2.381-2.48-.349-3.129-.447a7.909,7.909,0,0,0-3.352.447" transform="translate(-193.706 -130.459)"/>
      <path id="Path_5134" data-name="Path 5134" d="M201,245.682l1.341-1.788.894.223V243c-1.641-.005-1.7,1.564-2.235,2.682" transform="translate(-183.548 -134.396)"/>
      <path id="Path_5135" data-name="Path 5135" d="M210.894,244.894H210v.447h1.341L210.67,244Z" transform="translate(-195.677 -134.949)"/>
      <path id="Path_5136" data-name="Path 5136" d="M222,239.447v.447l2.682-.447V239Z" transform="translate(-214.381 -132.184)"/>
      <path id="Path_5137" data-name="Path 5137" d="M199.235,233.617v-.447L197,232.5c0,.324,1.959,1.348,2.235,1.117" transform="translate(-177.761 -128.589)"/>
      <rect id="Rectangle_284" data-name="Rectangle 284" width="0.316" height="0.948" transform="translate(22.591 109.051) rotate(-135)"/>
      <path id="Path_5138" data-name="Path 5138" d="M207.231,246a.224.224,0,0,0,0,.447.224.224,0,0,0,0-.447" transform="translate(-190.449 -136.055)"/>
      <path id="Path_5139" data-name="Path 5139" d="M218.231,247a.224.224,0,0,0,0,.447.224.224,0,0,0,0-.447" transform="translate(-206.366 -136.608)"/>
      <path id="Path_5140" data-name="Path 5140" d="M223.231,247a.224.224,0,0,0,0,.447.224.224,0,0,0,0-.447" transform="translate(-213.6 -136.608)"/>
      <path id="Path_5141" data-name="Path 5141" d="M208.231,248a.224.224,0,0,0,0,.447.224.224,0,0,0,0-.447" transform="translate(-191.896 -137.161)"/>
      <path id="Path_5142" data-name="Path 5142" d="M165,173.958l1.788-.67,2.682-1.788-1.788.447Z" transform="translate(-133.693 -94.851)"/>
      <path id="Path_5143" data-name="Path 5143" d="M163.341,172.447V172l-1.341.67.223.223Z" transform="translate(-126.224 -95.128)"/>
      <path id="Path_5144" data-name="Path 5144" d="M176.231,174a.224.224,0,0,0,0,.447.224.224,0,0,0,0-.447" transform="translate(-145.595 -96.234)"/>
      <path id="Path_5145" data-name="Path 5145" d="M147.076,297.447c-.221.185.4.5.447.67.125.438-1.238,1.892,0,2.011l.894-.894-.447-1.341.894-.894Z" transform="translate(-105.043 -164.262)"/>
      <rect id="Rectangle_285" data-name="Rectangle 285" width="0.447" height="1.788" transform="translate(45.161 133.185)"/>
      <path id="Path_5146" data-name="Path 5146" d="M156.231,305a.224.224,0,0,0,0,.447.224.224,0,0,0,0-.447" transform="translate(-116.656 -168.686)"/>
      <path id="Path_5147" data-name="Path 5147" d="M147,286.894h1.341v-.447c-.675.186-.812-.307-1.341-.447Z" transform="translate(-104.52 -158.178)"/>
      <path id="Path_5148" data-name="Path 5148" d="M145.231,286a.224.224,0,0,0,0,.447.224.224,0,0,0,0-.447" transform="translate(-100.74 -158.178)"/>
      <path id="Path_5149" data-name="Path 5149" d="M60.621,91.832l2.458-2.682a21.068,21.068,0,0,1,2.682-1.788,28.269,28.269,0,0,1,2.458-2.011l.447-1.341c-.254-2.038-.244-.209-.447,0-.646.667-1.32,1.4-2.011,2.011-.5.444-.741,1.068-1.564.894l2.235-3.575L68.442,82a10.954,10.954,0,0,0-2.905,2.458C64.5,85.927,63.915,85.9,63.3,88.034c-.133.462-3.773,2.774-4.469,4.022-.118.211.084.587,0,.67s-.459-.118-.67,0c-.628.35-1.653,1.626-.894,2.235A6.614,6.614,0,0,1,60.4,92.726a.4.4,0,0,0,.223-.447l-.447-.223Z" transform="translate(15.379 -45.352)"/>
      <path id="Path_5150" data-name="Path 5150" d="M61,102.064v.447c.725-.338,3.557-.442,4.693-.894a6,6,0,0,0,1.564-1.117Z" transform="translate(15 -55.583)"/>
      <path id="Path_5151" data-name="Path 5151" d="M69,109.235l3.8-.894L74.363,107l-3.8.894Z" transform="translate(4.318 -59.179)"/>
      <rect id="Rectangle_286" data-name="Rectangle 286" width="0.447" height="2.235" transform="translate(75.106 41.118)"/>
      <rect id="Rectangle_287" data-name="Rectangle 287" width="0.447" height="2.235" transform="translate(73.765 40.671)"/>
      <rect id="Rectangle_288" data-name="Rectangle 288" width="0.447" height="1.341" transform="translate(72.871 45.587)"/>
      <path id="Path_5152" data-name="Path 5152" d="M77,98.894h.894V98Z" transform="translate(-2.788 -54.201)"/>
      <rect id="Rectangle_289" data-name="Rectangle 289" width="0.447" height="0.894" transform="translate(79.575 37.989)"/>
      <path id="Path_5153" data-name="Path 5153" d="M58,94.447v.447l1.341-.67L59.117,94Z" transform="translate(24.257 -51.989)"/>
      <rect id="Rectangle_290" data-name="Rectangle 290" width="0.894" height="0.447" transform="translate(80.916 42.905)"/>
      <rect id="Rectangle_291" data-name="Rectangle 291" width="0.447" height="0.894" transform="translate(71.53 45.587)"/>
      <path id="Path_5154" data-name="Path 5154" d="M84.231,105a.224.224,0,0,0,0,.447.224.224,0,0,0,0-.447" transform="translate(-12.477 -58.072)"/>
      <path id="Path_5155" data-name="Path 5155" d="M84.231,100a.224.224,0,0,0,0,.447.224.224,0,0,0,0-.447" transform="translate(-12.477 -55.307)"/>
      <path id="Path_5156" data-name="Path 5156" d="M121.465,10.117c.02-.152,1.214-.96,0-1.117l-.894,2.905v2.458l-.894-1.564v-.447l-.894-1.117.447,2.011,1.341,1.788.894,2.458c.214-2.335-.293-5.1,0-7.374" transform="translate(-65.577 -4.978)"/>
      <path id="Path_5157" data-name="Path 5157" d="M130.447,26H130l.67,1.341.223-.223Z" transform="translate(-79.475 -14.38)"/>
      <path id="Path_5158" data-name="Path 5158" d="M129.231,31a.224.224,0,0,0,0,.447.224.224,0,0,0,0-.447" transform="translate(-77.589 -17.145)"/>
      <path id="Path_5159" data-name="Path 5159" d="M102,111c.1.413,1.062,2.125,1.341,1.788L102.894,111Z" transform="translate(-39.408 -61.391)"/>
      <path id="Path_5160" data-name="Path 5160" d="M104.231,120a.224.224,0,0,0,0,.447.224.224,0,0,0,0-.447" transform="translate(-41.416 -66.368)"/>
      <path id="Path_5161" data-name="Path 5161" d="M102.231,118a.224.224,0,0,0,0,.447.224.224,0,0,0,0-.447" transform="translate(-38.522 -65.262)"/>
      <path id="Path_5162" data-name="Path 5162" d="M106.231,117a.224.224,0,0,0,0,.447.224.224,0,0,0,0-.447" transform="translate(-44.309 -64.709)"/>
      <path id="Path_5163" data-name="Path 5163" d="M105.231,108a.224.224,0,0,0,0,.447.224.224,0,0,0,0-.447" transform="translate(-42.862 -59.731)"/>
      <path id="Path_5164" data-name="Path 5164" d="M105.231,106a.224.224,0,0,0,0,.447.224.224,0,0,0,0-.447" transform="translate(-42.862 -58.625)"/>
      <path id="Path_5165" data-name="Path 5165" d="M42,256.788h1.564c.862-.884,2.868-.437,3.352-1.788l-2.011.447c-.369.669-.9.322-1.341.447-.371.1-.7,1.2-1.564.894" transform="translate(43.832 -141.033)"/>
      <path id="Path_5166" data-name="Path 5166" d="M44,263.788l1.788-.67L47.129,262c-1.032.215-2.643.764-3.129,1.788" transform="translate(42.726 -144.904)"/>
      <path id="Path_5167" data-name="Path 5167" d="M57.575,261H56.011L54,263.011l1.564-.67Z" transform="translate(27.81 -144.351)"/>
      <path id="Path_5168" data-name="Path 5168" d="M38,259.447v.447h1.117l.67-.894Z" transform="translate(52.748 -143.245)"/>
      <path id="Path_5169" data-name="Path 5169" d="M67.117,264v.894L66,265.788l2.011-1.564Z" transform="translate(12.011 -146.01)"/>
      <path id="Path_5170" data-name="Path 5170" d="M56,257.894h.894V257Z" transform="translate(27.598 -142.139)"/>
      <rect id="Rectangle_292" data-name="Rectangle 292" width="1.341" height="0.447" transform="translate(98.793 119.777)"/>
      <rect id="Rectangle_293" data-name="Rectangle 293" width="0.894" height="0.447" transform="translate(94.324 117.99)"/>
      <path id="Path_5171" data-name="Path 5171" d="M54.231,256a.224.224,0,0,0,0,.447.224.224,0,0,0,0-.447" transform="translate(30.931 -141.586)"/>
      <path id="Path_5172" data-name="Path 5172" d="M29.231,263a.224.224,0,0,0,0,.447.224.224,0,0,0,0-.447" transform="translate(67.104 -145.457)"/>
      <path id="Path_5173" data-name="Path 5173" d="M25.231,267a.224.224,0,0,0,0,.447.224.224,0,0,0,0-.447" transform="translate(72.892 -147.669)"/>
      <path id="Path_5174" data-name="Path 5174" d="M75,288v.894c.831.049,1.265-.689,2.235-.447V288Z" transform="translate(-1.235 -159.284)"/>
      <path id="Path_5175" data-name="Path 5175" d="M90,293l.894.894V293Z" transform="translate(-21.598 -162.049)"/>
      <rect id="Rectangle_294" data-name="Rectangle 294" width="0.447" height="1.341" transform="translate(71.53 131.845)"/>
      <rect id="Rectangle_295" data-name="Rectangle 295" width="0.447" height="0.894" transform="translate(74.659 134.973)"/>
      <rect id="Rectangle_296" data-name="Rectangle 296" width="0.894" height="0.447" transform="translate(70.19 130.057)"/>
      <rect id="Rectangle_297" data-name="Rectangle 297" width="0.894" height="0.447" transform="translate(68.402 129.61)"/>
      <rect id="Rectangle_298" data-name="Rectangle 298" width="0.894" height="0.447" transform="translate(72.424 127.822)"/>
      <path id="Path_5176" data-name="Path 5176" d="M86.231,293a.224.224,0,0,0,0,.447.224.224,0,0,0,0-.447" transform="translate(-15.371 -162.049)"/>
      <path id="Path_5177" data-name="Path 5177" d="M82.231,297a.224.224,0,0,0,0,.447.224.224,0,0,0,0-.447" transform="translate(-9.583 -164.262)"/>
      <path id="Path_5178" data-name="Path 5178" d="M79.231,298a.224.224,0,0,0,0,.447.224.224,0,0,0,0-.447" transform="translate(-5.242 -164.815)"/>
      <rect id="Rectangle_299" data-name="Rectangle 299" width="0.948" height="0.316" transform="translate(78.905 137.208) rotate(-135)"/>
      <path id="Path_5179" data-name="Path 5179" d="M74.231,306a.224.224,0,0,0,0,.447.224.224,0,0,0,0-.447" transform="translate(1.992 -169.239)"/>
      <path id="Path_5180" data-name="Path 5180" d="M199.993,124.894c-.114.754,1.613.506,2.011.447a8.488,8.488,0,0,1,1.788-.447c.568-.052,1.659.362,1.564-.447L203.345,124Z" transform="translate(-185.222 -68.581)"/>
      <rect id="Rectangle_300" data-name="Rectangle 300" width="1.341" height="0.447" transform="translate(6.278 50.503)"/>
      <path id="Path_5181" data-name="Path 5181" d="M203.235,113.575c-.757-1.126-.973-2.895-2.235-3.575l.894,2.458Z" transform="translate(-183.548 -60.838)"/>
      <path id="Path_5182" data-name="Path 5182" d="M221.231,109a.224.224,0,0,0,0,.447.224.224,0,0,0,0-.447" transform="translate(-210.706 -60.285)"/>
      <path id="Path_5183" data-name="Path 5183" d="M215.231,107a.224.224,0,0,0,0,.447.224.224,0,0,0,0-.447" transform="translate(-202.025 -59.178)"/>
      <path id="Path_5184" data-name="Path 5184" d="M179,107.235h.447l.447-2.235h-.447Z" transform="translate(-150.375 -58.072)"/>
      <rect id="Rectangle_301" data-name="Rectangle 301" width="0.447" height="0.894" transform="translate(27.284 46.481)"/>
      <path id="Path_5185" data-name="Path 5185" d="M182.231,107a.224.224,0,0,0,0,.447.224.224,0,0,0,0-.447" transform="translate(-154.276 -59.178)"/>
      <path id="Path_5186" data-name="Path 5186" d="M184.231,102a.224.224,0,0,0,0,.447.224.224,0,0,0,0-.447" transform="translate(-157.17 -56.413)"/>
      <rect id="Rectangle_302" data-name="Rectangle 302" width="0.447" height="1.341" transform="translate(39.798 16.536)"/>
      <rect id="Rectangle_303" data-name="Rectangle 303" width="0.447" height="0.894" transform="translate(41.586 17.877)"/>
      <path id="Path_5187" data-name="Path 5187" d="M145.231,49a.224.224,0,0,0,0,.447.224.224,0,0,0,0-.447" transform="translate(-100.74 -27.1)"/>
      <path id="Path_5188" data-name="Path 5188" d="M164.231,32a.224.224,0,0,0,0,.447.224.224,0,0,0,0-.447" transform="translate(-128.231 -17.698)"/>
      <rect id="Rectangle_304" data-name="Rectangle 304" width="2.682" height="0.447" transform="translate(36.223 22.347)"/>
      <rect id="Rectangle_305" data-name="Rectangle 305" width="1.788" height="0.447" transform="translate(33.094 19.665)"/>
      <path id="Path_5189" data-name="Path 5189" d="M163.231,44a.224.224,0,0,0,0,.447.224.224,0,0,0,0-.447" transform="translate(-126.784 -24.335)"/>
      <path id="Path_5190" data-name="Path 5190" d="M48.469,219.682c-.885-1.833-2.914-1.651-4.469-2.682l1.117,1.341Z" transform="translate(41.385 -120.016)"/>
      <path id="Path_5191" data-name="Path 5191" d="M29,208.447v.447a1.576,1.576,0,0,0,1.788-.67L30.564,208Z" transform="translate(65.771 -115.038)"/>
      <path id="Path_5192" data-name="Path 5192" d="M36,216v.447l1.117.447.223-.223Z" transform="translate(56.089 -119.463)"/>
      <rect id="Rectangle_306" data-name="Rectangle 306" width="0.894" height="0.447" transform="translate(83.598 98.325)"/>
      <path id="Path_5193" data-name="Path 5193" d="M41.231,208a.224.224,0,0,0,0,.447.224.224,0,0,0,0-.447" transform="translate(49.741 -115.038)"/>
      <rect id="Rectangle_307" data-name="Rectangle 307" width="0.948" height="0.316" transform="translate(90.525 98.325) rotate(-135)"/>
      <path id="Path_5194" data-name="Path 5194" d="M62.961,125.83c.559.289,1.562-.716,1.341-.894-.559-.289-1.562.716-1.341.894" transform="translate(17.061 -69.07)"/>
      <path id="Path_5195" data-name="Path 5195" d="M81.231,127a.224.224,0,0,0,0,.447.224.224,0,0,0,0-.447" transform="translate(-8.136 -70.24)"/>
      <path id="Path_5196" data-name="Path 5196" d="M71.927,133.973c.186.737.962.929,1.564,1.341.1.068.341-.07.447,0,.65.43.989,1.522,2.011,1.341.412-.374-3.168-2.967-4.022-2.682" transform="translate(1.392 -74.084)"/>
      <path id="Path_5197" data-name="Path 5197" d="M67.231,132a.224.224,0,0,0,0,.447.224.224,0,0,0,0-.447" transform="translate(12.121 -73.005)"/>
      <path id="Path_5198" data-name="Path 5198" d="M65.231,133a.224.224,0,0,0,0,.447.224.224,0,0,0,0-.447" transform="translate(15.015 -73.558)"/>
      <path id="Path_5199" data-name="Path 5199" d="M83.231,136a.224.224,0,0,0,0,.447.224.224,0,0,0,0-.447" transform="translate(-11.03 -75.217)"/>
      <path id="Path_5200" data-name="Path 5200" d="M68.682,168.958h-.894l-.447,2.682L66,169.852l.223,2.235,1.117,5.81.894-1.564c-.8-.7-.554-2.026,0-2.905l-.894-.223.447-1.341c1.179-1.239.758-3.108,1.788-4.469l-.447-.894Z" transform="translate(10.447 -92.086)"/>
      <path id="Path_5201" data-name="Path 5201" d="M73.788,187.575c-1.312-1.106-.4-2.551-1.564-3.575L72,186.011Z" transform="translate(3.553 -101.765)"/>
      <path id="Path_5202" data-name="Path 5202" d="M64.99,184.187c.276.343,1.557-1.693,1.341-2.235-.286-.355-1.646,1.855-1.341,2.235" transform="translate(14.139 -100.611)"/>
      <path id="Path_5203" data-name="Path 5203" d="M62.993,174.661c.631.109.4-.345.67-.894a3.538,3.538,0,0,0,.67-1.788c-.631-.109-.4.345-.67.894a3.538,3.538,0,0,0-.67,1.788" transform="translate(17.029 -95.108)"/>
      <path id="Path_5204" data-name="Path 5204" d="M63.231,181a.224.224,0,0,0,0,.447.224.224,0,0,0,0-.447" transform="translate(17.909 -100.106)"/>
      <path id="Path_5205" data-name="Path 5205" d="M37,179.7c1.289.185.8-.246.894-1.117.092-.831,1.337-2.1,2.235-2.011v-.894H42.81l-1.788-.447,1.117-1.788L41.246,173c-.181.245-.532.437-.67.67-1,1.69-1.986,2.769-2.905,4.246-.334.537-.193,1.186-.67,1.788" transform="translate(50.173 -95.681)"/>
      <path id="Path_5206" data-name="Path 5206" d="M24,181.712l.223.894c.694-.943,1.923-.684,2.682-.894.2-.055,1.172-.857,1.341-.894.766-.166,1.736.354,2.235-.447l3.352-.447c-1.343.135-2.952-.189-4.246,0-.369.054-2.611.7-3.129.894-.745.276-1.4,1.227-2.458.894" transform="translate(64.961 -99.477)"/>
      <path id="Path_5207" data-name="Path 5207" d="M32.58,169.575l.67-.894h.67l.67-2.682a4.663,4.663,0,0,0-1.341,1.788c-.334.568-.976.7-.67,1.788" transform="translate(60.403 -91.809)"/>
      <path id="Path_5208" data-name="Path 5208" d="M47.963,182.916c.8.1.246-.667.67-1.341a6.232,6.232,0,0,0,.67-1.564c.268-.584,1.033-1.227.894-2.011l-1.788,2.905Z" transform="translate(37.87 -98.446)"/>
      <path id="Path_5209" data-name="Path 5209" d="M22.129,165a3.953,3.953,0,0,0-1.564.447A3.011,3.011,0,0,0,19,166.563c.309.283.984-.306,1.341-.447.731-.288,1.552-.141,1.788-1.117" transform="translate(78.899 -91.255)"/>
      <rect id="Rectangle_308" data-name="Rectangle 308" width="1.788" height="0.447" transform="translate(87.62 84.47)"/>
      <path id="Path_5210" data-name="Path 5210" d="M30,186.447l1.564.447L33.129,186Z" transform="translate(62.983 -102.871)"/>
      <rect id="Rectangle_309" data-name="Rectangle 309" width="0.447" height="1.341" transform="translate(88.067 77.766)"/>
      <rect id="Rectangle_310" data-name="Rectangle 310" width="0.894" height="0.447" transform="translate(95.665 79.107)"/>
      <rect id="Rectangle_311" data-name="Rectangle 311" width="0.894" height="0.447" transform="translate(98.346 79.107)"/>
      <rect id="Rectangle_312" data-name="Rectangle 312" width="0.316" height="0.948" transform="translate(96.335 74.638) rotate(-135)"/>
      <path id="Path_5211" data-name="Path 5211" d="M30.231,168a.224.224,0,0,0,0,.447.224.224,0,0,0,0-.447" transform="translate(65.657 -92.916)"/>
      <path id="Path_5212" data-name="Path 5212" d="M44.231,175a.224.224,0,0,0,0,.447.224.224,0,0,0,0-.447" transform="translate(45.4 -96.787)"/>
      <path id="Path_5213" data-name="Path 5213" d="M42.231,187a.224.224,0,0,0,0,.447.224.224,0,0,0,0-.447" transform="translate(48.294 -103.424)"/>
      <path id="Path_5214" data-name="Path 5214" d="M103.415,59.843h-.894a15.969,15.969,0,0,1-.447,1.788,2.732,2.732,0,0,0-1.788,1.117c-.045.073-.438.967-.223,1.117.637-.728,1.419-.189,2.011-1.117.3-.473,1.309-1.675,1.341-1.788a32.778,32.778,0,0,1,1.341-3.352c.093-.093,1.713-.048,1.341-1.341.741-.045,1.959-.466,2.235-1.341-1.029-.2-1.15.129-1.788.67-1.306,1.111-2.975,2.685-3.129,4.246" transform="translate(-43.505 -30.346)"/>
      <path id="Path_5215" data-name="Path 5215" d="M99,65.341c-.026.922.888.361,1.341.223a8.179,8.179,0,0,1,2.458-.67L103.917,64Z" transform="translate(-38.643 -35.396)"/>
      <path id="Path_5216" data-name="Path 5216" d="M90,53.447l.223.894L93.129,53Z" transform="translate(-23.833 -29.313)"/>
      <path id="Path_5217" data-name="Path 5217" d="M99.346,45.943,98.9,49.071l1.341-2.011c.072-.985.2-1.291-.894-1.117" transform="translate(-34.966 -25.384)"/>
      <path id="Path_5218" data-name="Path 5218" d="M88.046,57.17c-.174,1.092.132.965,1.117.894L91.622,56.5l-2.235.894Z" transform="translate(-21.432 -31.248)"/>
      <path id="Path_5219" data-name="Path 5219" d="M105,70.447v.447a1.576,1.576,0,0,0,1.788-.67L106.564,70Z" transform="translate(-44.196 -38.715)"/>
      <path id="Path_5220" data-name="Path 5220" d="M111,60l.894.894V60Z" transform="translate(-51.984 -33.184)"/>
      <rect id="Rectangle_313" data-name="Rectangle 313" width="0.894" height="0.447" transform="translate(65.273 26.369)"/>
      <rect id="Rectangle_314" data-name="Rectangle 314" width="0.894" height="0.447" transform="translate(59.463 32.179)"/>
      <path id="Path_5221" data-name="Path 5221" d="M103.231,69a.224.224,0,0,0,0,.447.224.224,0,0,0,0-.447" transform="translate(-39.969 -38.162)"/>
      <path id="Path_5222" data-name="Path 5222" d="M115.231,68a.224.224,0,0,0,0,.447.224.224,0,0,0,0-.447" transform="translate(-57.332 -37.609)"/>
      <path id="Path_5223" data-name="Path 5223" d="M101.231,68a.224.224,0,0,0,0,.447.224.224,0,0,0,0-.447" transform="translate(-37.075 -37.609)"/>
      <path id="Path_5224" data-name="Path 5224" d="M114.231,66a.224.224,0,0,0,0,.447.224.224,0,0,0,0-.447" transform="translate(-55.885 -36.503)"/>
      <path id="Path_5225" data-name="Path 5225" d="M113.231,62a.224.224,0,0,0,0,.447.224.224,0,0,0,0-.447" transform="translate(-54.438 -34.29)"/>
      <path id="Path_5226" data-name="Path 5226" d="M89.231,44a.224.224,0,0,0,0,.447.224.224,0,0,0,0-.447" transform="translate(-19.712 -24.335)"/>
      <path id="Path_5227" data-name="Path 5227" d="M85.231,41a.224.224,0,0,0,0,.447.224.224,0,0,0,0-.447" transform="translate(-13.924 -22.676)"/>
      <path id="Path_5228" data-name="Path 5228" d="M162,77l1.117.894,2.011.447-1.117-.894Z" transform="translate(-128.012 -42.586)"/>
      <rect id="Rectangle_315" data-name="Rectangle 315" width="0.894" height="0.447" transform="translate(39.351 39.777)"/>
      <path id="Path_5229" data-name="Path 5229" d="M158.231,85a.224.224,0,0,0,0,.447.224.224,0,0,0,0-.447" transform="translate(-119.55 -47.011)"/>
      <path id="Path_5230" data-name="Path 5230" d="M155.231,84a.224.224,0,0,0,0,.447.224.224,0,0,0,0-.447" transform="translate(-115.209 -46.458)"/>
      <path id="Path_5231" data-name="Path 5231" d="M131.231,129a.224.224,0,0,0,0,.447.224.224,0,0,0,0-.447" transform="translate(-80.483 -71.346)"/>
    </g>
  </g>
</svg>
