<?xml version="1.0" encoding="utf-8"?>
<!-- Generator: Adobe Illustrator 16.0.0, SVG Export Plug-In . SVG Version: 6.00 Build 0)  -->
<!DOCTYPE svg PUBLIC "-//W3C//DTD SVG 1.1//EN" "http://www.w3.org/Graphics/SVG/1.1/DTD/svg11.dtd">
<svg version="1.1" id="Layer_5" xmlns="http://www.w3.org/2000/svg" xmlns:xlink="http://www.w3.org/1999/xlink" x="0px" y="0px"
	 width="612px" height="792px" viewBox="0 0 612 792" enable-background="new 0 0 612 792" xml:space="preserve">
<path  stroke="#FFFFFF" fill="#FFFFFF"  stroke-width="0.5" stroke-miterlimit="10" d="M587.959,513.911c-2.097-1.662-4.543-2.89-7.079-3.719
	c-2.509-0.888-4.978-1.833-7.312-3.064c-3.566-1.788-6.662-4.297-9.874-6.64c-5.107-3.571-10.516-6.783-16.313-9.113
	c-8.956-4.928-18.011-9.677-27.079-14.395c-5.47-3.23-10.618-6.998-15.475-11.08c-4.036-3.418-7.84-7.133-11.143-11.268
	c-2.069-2.701-3.521-4.896-5.757-7.607c-5.246-6.451-11.039-12.446-17.222-18.011c8.432,1.456,16.957,2.612,25.52,2.872
	c1.635,0.184,3.271,0.345,4.919,0.43c0.014,0,0.022,0,0.036,0c0,0.01,0,0.014,0,0.014c3.136,0.045,6.276,0.099,9.413,0.139
	c2.455,0.31,4.914,0.784,7.303,1.447c2.656,0.779,5.251,1.774,7.396,3.594c4.682,3.261,10.511,3.969,16.058,4.256
	c-5.812-0.448-12.012-1.42-16.608-5.26l-0.86-0.641c-2.599-1.622-5.488-2.63-8.459-3.347c7.545,0.063,15.09,0.022,22.625-0.354
	c1.757-0.12,3.468-0.26,5.211-0.12c3.504,0.206,6.783,1.478,10.04,2.719c3.289,1.255,6.766,2.128,10.296,2.236
	c3.513,0.125,7.025,0.071,10.52,0.305c3.521,0.161,6.917,1.313,9.848,3.274c-1.465-0.963-3.011-1.818-4.673-2.405
	c-6.729-2.195-14.028-0.543-20.847-2.24c-5.125-1.215-9.785-4.158-15.135-4.517c-3.521-0.255-7.024,0.237-10.551,0.188
	c-10.421,0.107-20.851-0.17-31.263-0.507c-0.095-0.049-0.192-0.076-0.291-0.054c-4.588-0.264-9.14-0.923-13.67-1.675
	c-7.446-1.345-15.004-2.814-21.984-5.762c-2.41-0.964-4.211-2.747-6.438-3.975c-4.489-2.558-9.387-4.211-14.302-5.689
	c-4.883-1.438-9.815-2.563-14.498-4.605c-10.47-4.458-20.398-10.443-29.014-17.89c-6.657-5.918-12.405-12.737-18.271-19.436
	c-2.858-3.208-5.703-6.559-9.131-9.193c-2.459-1.796-5.873-3.898-8.467-5.439c-6.56-3.839-13.4-7.504-20.126-11.017
	c-6.693-3.669-13.835-6.514-20.085-10.95c-10.241-7.204-19.251-16.003-27.669-25.25c18.369,6.048,37.536-3.495,51.814-14.793
	c4.256-3.566,9.498-5.775,14.924-6.833c6.541-1.254,13.283-0.686,19.883-0.193c3.849,0.385,7.733,0.766,11.479,1.766
	c0.524,0.152,1.053,0.332,1.501,0.591l0,0c0.372,0.21,0.757,0.394,1.151,0.556c6.349,2.45,13.046-0.506,18.795-3.195
	c6.711-2.589,14.081-3.575,21.263-3.615c2.706,0.018,5.417,0.179,8.051,0.793l2.671,0.623c5.336,1.196,10.797,2.504,16.316,2.28
	c5.372-0.143,11.188-0.721,16.044,2.034c-3.113-2.002-6.944-2.41-10.564-2.545c-3.646-0.116-7.294,0.188-10.909-0.372
	c-3.598-0.498-7.142-1.367-10.681-2.249c-1.596-0.395-3.772-1.017-5.39-1.219c-0.978-0.125-1.967-0.215-2.966-0.287
	c1.559-0.385,3.096-0.852,4.605-1.411c3.023-1.08,5.99-2.393,8.745-4.06c2.777-1.63,5.31-3.588,8.078-5.098
	c2.755-1.546,5.802-2.496,8.902-3.167c4.677-1.004,9.391-1.9,13.969-3.302c7.522-2.338,14.619-7.101,22.76-6.689
	c-8.122-0.457-15.286,4.207-22.831,6.443c-4.588,1.335-9.301,2.168-13.982,3.109c-3.141,0.605-6.264,1.51-9.131,3.006
	c-2.886,1.456-5.484,3.338-8.244,4.866c-2.755,1.546-5.645,2.822-8.633,3.853c-2.379,0.851-4.813,1.537-7.236,2.321
	c-7.213-0.125-14.771,1.071-21.321,3.472c-3.315,1.447-6.581,3.015-10.165,3.625c-3.405,0.6-7.2,0.703-10.287-1.048
	c0,0-0.009,0.009-0.009,0.013c-0.726-0.667-1.452-1.366-2.384-1.716c-4.207-1.658-8.821-1.64-13.262-1.922
	c-5.954-0.157-11.976-0.52-17.862,0.631c-0.542,0.108-1.08,0.242-1.617,0.381c0.255-0.157,0.506-0.318,0.757-0.488
	c4.086-2.567,6.738-6.77,10.014-10.174c1.612-1.703,3.378-3.253,5.242-4.682c3.74-2.935,7.867-5.233,11.72-8.028
	c2.89-2.133,5.099-4.991,7.576-7.522c2.732-2.276,6.326-3.033,9.619-4.216c4.471-1.573,9.162-2.71,13.248-5.188
	c10.103-6.255,18.83-14.458,27.388-22.634l-0.318-0.318c-8.835,8.405-22.262,21.729-33.714,25.475
	c-3.23,1.116-6.854,2.29-10.116,3.374c-2.24,0.784-4.588,1.595-6.416,3.163c-2.518,2.509-4.727,5.314-7.616,7.397
	c-3.861,2.697-8.109,4.942-11.886,7.809c-1.927,1.416-3.759,2.971-5.439,4.682c-3.315,3.409-5.855,7.37-9.896,9.995
	c-1.908,1.335-3.93,2.518-6.066,3.499l0.009,0.022c-0.313,0.144-0.622,0.296-0.927,0.448c-6.676,3.315-12.675,7.849-18.965,11.796
	c-8.849,5.394-19.427,8.028-29.763,6.953c-2.885-0.336-5.914-0.824-8.566-1.994c-11.411-6.263-22.818-12.589-34.35-18.656
	c-4.167-2.41-7.675-5.815-11.492-8.736c-4.673-3.705-9.503-7.298-14.821-10.036c-1.066-0.583-2.455-1.178-3.562-1.676
	c-1.313-0.479-3.405-1.259-4.74-1.703c-8.329-3.154-15.999-7.876-23.087-13.23c-2.361-1.796-4.659-3.678-6.854-5.676
	c-1.367-1.228-2.67-2.504-3.705-4.041c-3.799-5.856-4.736-13.302-4.821-20.152c-0.327-11.595-1.483-23.154-2.558-34.695
	c2.213,4.856,5.322,9.314,9.278,12.917c3.15,2.872,7.007,5.067,11.156,6.133c2.366,0.659,9.803,2.85,12.164,3.495
	c2.679,0.789,5.282,1.779,7.8,2.97c2.518,1.183,4.982,2.567,7.594,3.719c2.607,1.147,5.313,2.07,8.051,2.823
	c1.183,0.107,2.697,0.501,3.862,0.847c6.653,2.142,12.41,6.434,17.199,11.451c0.852,0.999,1.761,1.931,2.599,2.957l1.608,2.074
	l0.807,1.04l0.739,1.089c1.42,2.079,3.033,4.583,4.61,6.55c9.1,11.191,23.902,16.688,38.095,16.389
	c-14.749-0.699-29.959-6.962-38.583-19.346c-0.752-1.103-2.204-3.302-2.97-4.4l-0.753-1.111l-0.82-1.062
	c-2.115-2.813-4.597-5.6-7.177-7.975c-2.599-2.406-5.73-4.682-9.037-6.447c1.093-0.009,2.182-0.022,2.182-0.022
	c4.413-0.152,8.571,1.532,12.903,2.061c5.806,0.784,11.751,0.488,17.437-0.914c-5.694,1.281-11.626,1.452-17.383,0.547
	c-2.908-0.381-5.672-1.371-8.548-1.913c-2.29-0.471-5.461-0.444-7.984-0.466c-2.791-1.348-5.667-2.307-8.427-2.643
	c-2.697-0.726-5.332-1.617-7.885-2.72c-2.554-1.093-5.013-2.451-7.603-3.638c-3.911-1.9-9.323-3.365-13.92-4.583
	c-3.105-1.151-6.156-2.446-9.086-3.987c-2.119-1.075-4.301-2.446-6.219-3.835c-10.04-7.343-12.643-18.746-12.446-30.609
	c0.022-2.792,0.148-5.587,0.426-8.36l0.018-0.192l-0.192,0.004l-6.241,0.166h-0.161v0.166l-0.273,8.521
	c-0.13,7.065-0.488,14.211-2.836,20.927c-0.73,1.927-1.335,4.005-2.733,5.551c-3.458,3.521-7.742,6.12-11.85,8.826
	c-12.007,7.571-24.502,14.363-37.047,20.999c-1.998,1.071-4.037,2.07-6.03,3.19c-0.452,0.202-0.905,0.399-1.357,0.587
	c-2.28,0.937-4.619,1.729-6.994,2.397c-7.128,2.15-14.619,2.487-21.962,3.553c-2.456,0.368-4.919,0.86-7.281,1.689
	c-4.673,1.751-8.969,4.287-13.27,6.783c-8.625,5.107-14.745,13.252-22.361,19.57c-1.913,1.568-3.992,2.953-6.264,3.925
	c-1.12,0.52-2.298,0.932-3.423,1.456c-5.667,2.509-11.093,5.582-16.218,9.059c5.147-3.445,10.586-6.479,16.263-8.952
	c1.129-0.515,2.298-0.918,3.432-1.434c2.294-0.963,4.395-2.348,6.326-3.907c7.657-6.264,13.817-14.359,22.437-19.395
	c4.274-2.442,8.606-4.959,13.23-6.658c2.33-0.802,4.754-1.272,7.2-1.622c7.37-1.021,14.87-1.309,22.065-3.428
	c1.577-0.435,3.136-0.927,4.677-1.474c-4.09,2.769-7.755,6.191-10.645,10.201c-3.302,4.624-5.784,9.973-6.519,15.636
	c0,0.013-0.009,0.022-0.014,0.036l0,0c-0.17,0.484-0.255,0.945-0.332,1.42c-0.022,0.139-0.031,0.278-0.049,0.417
	c-0.511,2.209-1.214,4.377-2.083,6.47c-1.084,2.692-2.666,5.103-4.427,7.406c-3.463,4.605-6.931,9.328-11.331,13.091
	c-2.343,1.72-4.368,3.853-6.098,6.187c-3.566,4.588-6.097,9.87-9.408,14.61c-3.387,4.695-7.679,8.692-12.397,12.034
	c-2.061,1.479-4.274,2.719-6.393,4.117c-7.522,5.421-10.242,14.838-16.147,21.653c-5.865,6.412-12.303,12.281-18.691,18.163
	c4.301-3.884,8.539-7.836,12.679-11.891c2.056-2.039,4.144-4.055,6.057-6.232c1.909-2.191,3.477-4.642,4.973-7.119
	c2.979-4.91,5.748-10.202,10.345-13.808c1.685-1.362,3.66-2.343,5.457-3.544c5.457-3.571,10.425-7.97,14.265-13.261
	c4.117-5.928,7.177-12.644,12.24-17.881c0.999-1.057,2.115-1.944,3.271-2.832c2.245-1.859,4.185-4.037,6.058-6.25
	c2.746-3.378,5.461-6.778,7.849-10.425c1.59-2.644,2.751-5.511,3.589-8.477c-0.135,2.545,0.054,5.107,0.3,7.634
	c1.926,12.155-0.211,22.567-7.868,32.37c7.747-9.771,9.959-20.197,8.118-32.392c-0.246-3.159-0.546-6.434-0.04-9.579
	c0.134-0.569,0.255-1.143,0.367-1.711c0.999-2.76,2.15-5.475,3.49-8.083c2.348-4.489,5.121-8.965,9.148-12.124
	c2.93-2.173,6.169-3.916,9.341-5.726c10.018-5.574,20.233-10.793,30.475-15.945c-0.86,1.107-1.608,2.285-2.267,3.521
	c-0.779,1.456-1.389,3.002-1.828,4.592c-0.667,1.765-1.412,3.508-2.187,5.233c-2.352,5.17-5.072,10.197-8.396,14.812
	c4.512-6.111,8.046-12.903,10.9-19.932l0,0c0.771-1.586,2.083-2.908,3.311-4.171c1.272-1.277,2.589-2.504,3.942-3.696
	c7.832-6.743,16.949-13.929,25.287-20.063c1.353,4.095,2.074,8.387,2.527,12.661c0.443,4.341,0.699,8.746,0.412,13.1
	c-0.954,13.248-4.444,27.563-7.186,40.582c-0.287,1.591-0.766,3.15-1.402,4.642c-4.602,9.996-12.236,18.199-18.894,26.864
	c-2.75,3.423-5.022,7.213-8.387,10.098c-3.253,2.948-6.882,5.475-10.336,8.194c-11.281,8.795-21.59,19.319-28.382,32.011
	c-1.586,2.917-3.042,5.901-4.391,8.938c-0.009-0.009-0.014-0.018-0.014-0.018c-4.233,3.163-8.575,6.201-13.055,9
	c-2.245,1.389-4.529,2.729-6.917,3.84c-2.437,1.062-4.718,2.486-6.806,4.131c-4.225,3.23-7.531,7.464-11.671,10.771
	c-4.108,3.337-8.284,6.595-12.464,9.843l0.036,0.049c4.207-3.217,8.405-6.442,12.545-9.749c4.167-3.275,7.504-7.482,11.743-10.672
	c2.088-1.617,4.341-3.002,6.77-4.037c6.917-3.302,13.208-7.737,19.417-12.204c-3.374,7.773-5.99,15.891-7.895,24.135
	c-0.264,4.449-1.572,8.808-2.935,13.038c-1.492,4.467-3.244,8.857-5.39,13.051c3.078-2.173,4.911-5.573,6.357-8.951
	c6.434-15.914,6.676-33.996,16.111-48.727c6.953-11.77,15.77-22.737,26.958-30.721c1.317-0.865,3.024-1.958,4.565-3.038
	c-0.318,0.677-0.591,1.367-0.855,2.061c-2.218,5.923-3.45,13.033-5.493,18.979c-1.6,4.135-5.049,7.173-6.989,11.12
	c-0.488,0.99-0.694,2.097-0.874,3.172c-0.972,4.283-2.809,8.325-4.7,12.271c1.917-3.942,3.777-7.97,4.78-12.258
	c0.26-2.209,1.272-4.185,2.585-5.95c1.281-1.779,2.679-3.481,3.844-5.354c1.196-1.855,2.012-3.938,2.544-6.075
	c1.013-3.714,2.401-9.077,3.535-12.688c0.627-1.931,1.254-3.911,2.213-5.703c0.43-0.31,0.847-0.619,1.223-0.918l1.012-0.807
	l0.981-0.842c7.764-6.823,14.167-15.027,20.269-23.32c3.96-5.466,7.737-11.062,11.294-16.796c0.65,8.383,1.34,21.985,2.308,30.049
	c1.254,10.067,2.755,20.188,3.625,30.291c0.354,2.899-0.188,5.766-0.784,8.606c-2.128,9.938-5.224,19.677-7.267,29.637
	c-0.116,0.659-0.21,1.317-0.291,1.98c-0.009-0.004-0.014-0.009-0.014-0.009c-3.53,5.26-10.896,18.131-15.242,22.567
	c-2.065,2.208-4.279,4.292-6.568,6.272c-1.129,1.004-2.406,1.851-3.445,2.976c-3.087,3.355-5.443,7.293-8.042,11.017
	c-3.41,5.004-7.021,9.915-11.362,14.162c4.364-4.225,7.997-9.126,11.434-14.113c2.612-3.709,4.986-7.63,8.078-10.963
	c1.03-1.103,2.307-1.939,3.45-2.948c2.303-1.976,4.53-4.045,6.613-6.254c4.288-4.346,11.295-16.402,15.022-22.012
	c-0.121,1.151-0.193,2.308-0.224,3.468h-0.004c-2.083,3.177-4.211,6.322-6.384,9.436c-2.128,3.145-4.521,6.12-6.698,9.225
	c-1.922,3.307-2.925,7.038-3.705,10.753c-0.744,3.728-1.232,7.504-1.469,11.299c0.264-3.79,0.779-7.563,1.55-11.281
	c0.802-3.691,1.833-7.41,3.764-10.681c2.2-3.087,4.61-6.044,6.761-9.171c2.101-2.961,4.153-5.95,6.173-8.969
	c-0.058,3.566,0.22,7.159,0.538,10.681c0.788,7.24,2.029,14.427,3.691,21.515c1.201,2.791,2.343,5.613,3.136,8.539
	c0.807,2.926,1.174,5.95,1.46,8.974c0.314,2.957,0.811,10.883,1.326,13.638c1.407,7.509,4.713,14.557,8.633,21.058
	c1.653,2.729,3.441,5.376,5.368,7.926c0.004,0.018,0.103,0.111,0.188,0.103c0.09,0,0.157-0.04,0.206-0.112
	c0.049-0.066,0.036-0.188,0.004-0.232l-0.031-0.063l-0.067-0.126c-1.245-2.405-2.571-4.924-3.696-7.393
	c-2.639-5.828-5.457-11.805-6.322-18.189c-0.21-2.612-0.282-5.354-0.515-7.971c-0.484-6.084-1.797-12.083-3.58-17.907
	c-1.779-5.811-3.768-11.572-4.785-17.576c-0.529-2.988-0.855-6.012-1.12-9.036c-0.448-6.058-0.981-12.146-0.349-18.186
	c0.555-6.062,2.235-11.922,3.893-17.764c2.24-8.042,4.359-16.276,4.489-24.69c0.107-4.489-0.031-8.979-0.354-13.458
	c0.636,1.644,1.492,3.208,2.482,4.668c2.599,4.063,6.774,6.743,10.179,10.013c2.845,2.715,5.197,5.878,7.383,9.144
	c-0.815,5.103-1.644,10.748-2.375,15.878c-0.752,4.57-0.224,9.256,2.33,13.204c2.661,3.696,3.75,8.199,4.207,12.679
	c-0.31-3.593-0.928-7.24-2.541-10.51c-1.877-3.065-3.638-6.254-3.709-9.938c-0.211-3.141,0.811-7.54,1.277-10.676
	c0.533-3.123,1.084-6.25,1.648-9.368c0.148,0.229,0.3,0.453,0.444,0.681c1.29,1.98,2.482,4.032,3.92,5.972
	c2.119,2.907,4.982,5.147,7.504,7.621c2.263,2.715,3.024,6.259,4.216,9.543c0.749,2.249,1.505,4.498,2.294,6.738
	c0.726,2.245,1.721,4.516,2.944,6.523c6.276,10.103,14.556,18.772,22.827,27.244c-6.228-6.841-12.939-13.956-18.423-21.63
	c-2.742-3.844-5.408-7.809-6.725-12.357c-1.103-3.239-2.254-6.868-3.325-10.139c-0.779-2.258-1.59-4.65-3.19-6.492
	c-2.522-2.518-5.318-4.704-7.406-7.594c-2.706-3.844-5-8.082-7.88-11.841c-1.429-1.917-2.998-3.745-4.718-5.417
	c-3.405-3.297-7.384-5.887-10.014-9.892c-1.331-1.882-2.518-3.867-3.494-5.972c-0.646-7.796-1.828-15.56-3.249-23.23
	c-0.202-1.044-0.278-2.308-0.394-3.369c-0.336-4.924-0.309-9.866-0.17-14.798c0.229-6.057,0.623-12.159,1.626-18.145
	c0.493-2.89,1.071-5.797,2.195-8.495c0.278,0.363,1.196,1.573,1.196,1.573c0.233,0.3,0.453,0.609,0.694,0.905l0.757,0.847
	c0.511,0.564,1.008,1.138,1.523,1.693l1.635,1.586c0.273,0.26,0.542,0.533,0.825,0.789l0.865,0.739l1.729,1.479l1.806,1.384
	c9.713,7.303,20.972,12.187,32.155,16.77c8.754,3.799,16.778,10.591,24.453,16.205c2.433,1.806,4.888,3.589,7.451,5.233
	c10.183,6.496,21.863,10.659,30.528,19.301c6.644,6.16,13.096,12.549,19.207,19.238c1.972,2.253,4.086,4.426,5.592,7.034
	c2.988,5.22,5.196,10.892,7.284,16.532c3.504,9.937,6.689,20.116,7.912,30.613c0.475,3.772-0.229,7.536,0.104,11.317
	c0.394,6.818,1.773,13.544,3.437,20.152c0.591,2.195,1.106,4.426,1.957,6.536c2.393,6.376,5.081,12.675,8.226,18.714
	c0.668,1.232,1.349,2.474,2.053,3.705h-0.031c-0.152,1.272-0.171,2.545-0.18,3.817l-0.059,3.817c-0.049,2.545-0.125,5.09-0.246,7.63
	c-0.215,3.804-0.358,7.634-1.295,11.335c-0.596,3.84,0.412,7.688,0.964,11.456c1.299,7.531,2.36,15.099,2.983,22.719h0.063
	c-0.34-5.089-0.842-10.165-1.523-15.219c-0.636-5.045-1.711-10.063-2.146-15.116c-0.076-1.26-0.081-2.527,0.156-3.746
	c0.296-1.236,0.605-2.491,0.749-3.759c0.641-5.076,0.815-10.179,0.99-15.282c0.021-1.948,0.192-4.69,0.063-6.806
	c2.195,3.772,4.623,7.434,7.576,10.507c5.954,6.012,12.405,11.707,17.732,18.302c1.277,1.567,2.514,3.176,3.629,4.86
	c0.713,1.748,1.51,3.45,2.312,5.152c1.636,3.495,3.213,7.025,4.615,10.618c0.689,1.797,1.353,3.611,1.85,5.453
	c0.476,1.841,0.713,3.816,1.25,5.663c1.52,5.618,3.571,11.074,5.682,16.491l0.533,1.349c0.582,1.335,0.806,2.72,1.03,4.153
	c0.542,3.83,1.245,7.724,2.938,11.241c1.653,3.539,4.333,6.411,6.281,9.771c2.043,3.283,3.902,6.68,5.618,10.143
	c0.838,1.743,1.712,3.477,2.339,5.305c-0.6-1.841-1.451-3.589-2.263-5.34c-1.671-3.495-3.48-6.918-5.479-10.237
	c-1.878-3.37-4.539-6.286-6.147-9.804c-0.802-1.742-1.397-3.579-1.828-5.452c-0.694-2.822-0.819-5.743-1.505-8.584
	c-1.617-4.557-3.454-9.05-4.884-13.669c-0.587-1.837-1.143-3.688-1.617-5.551c-0.528-1.882-0.722-3.769-1.196-5.677
	c-0.031-0.112-0.063-0.22-0.094-0.332c1.151,2.053,2.522,4.091,4.503,5.453c3.866,2.706,7.566,5.653,11.249,8.61
	c-3.638-3.015-7.289-6.021-11.119-8.794c-1.918-1.362-3.235-3.388-4.342-5.439c-0.305-0.573-0.592-1.16-0.864-1.752
	c-0.95-2.961-2.138-5.828-3.343-8.691c-1.536-3.499-3.002-7.034-4.91-10.35c-1.823-3.785-4.261-7.356-6.778-10.653
	c-5.072-6.604-10.748-12.725-15.9-19.257c-7.299-9.032-13.409-19.216-16.452-30.492c-1.29-4.808-2.128-9.763-2.566-14.718
	c-0.296-3.311-0.444-6.64-0.556-9.964c-0.081-1.792-0.104-3.889-0.192-5.932c0.864,1.837,1.872,3.593,2.961,5.305
	c2.173,3.405,4.538,6.72,7.316,9.659c1.984,2.021,3.813,4.292,4.969,6.896c1.465,3.082,2.258,6.59,4.332,9.399
	c3.669,4.417,7.298,8.889,10.435,13.728l0.022-0.014c-3.029-4.879-6.56-9.458-10.18-13.907c-2.029-2.831-2.741-6.254-4.188-9.399
	c-0.94-2.123-2.249-4.086-3.809-5.811c-0.371-0.412-1.384-1.519-1.747-1.908c-3.996-4.512-7.025-9.75-10.067-14.924l-0.085,0.044
	c-0.063-1.093-0.147-2.155-0.286-3.123c-0.247-1.366-0.314-2.164-0.646-3.696c-3.32-15.058-8.84-29.524-14.422-43.861
	c13.723,9.624,31.11,16.416,46.236,24.69c2.563,1.394,5.111,2.813,7.571,4.373c2.45,1.568,4.614,3.553,6.604,5.676
	c6.859,7.531,12.742,16.102,20.13,23.149c-0.049,0.027-0.116,0.063-0.116,0.063c4.225,8.172,7.773,16.733,10.192,25.622
	c1.058,3.714,1.707,7.482,1.989,11.317c0.435,2.312,2.097,4.104,2.966,6.241c1.286,2.831,1.371,5.954,1.729,8.991
	c0.928,6.089,3.234,11.904,6.08,17.334c-2.81-5.443-5.081-11.268-5.968-17.352c-0.336-3.038-0.408-6.192-1.685-9.041
	c-0.847-2.133-2.496-3.925-2.912-6.215c-0.256-3.825-0.896-7.647-1.927-11.353c-2.299-8.646-5.654-16.98-9.673-24.969
	c0.591,0.552,1.196,1.089,1.81,1.622c-0.045,0.019-0.111,0.041-0.111,0.041c2.352,6.133,4.981,12.15,7.943,18.015
	c2.455,4.718,5.071,9.484,8.723,13.4c3.047,3.329,6.922,5.847,10.031,9.059c2.276,2.313,4.104,5.072,5.246,8.109
	c2.236,6.125,3.433,12.571,4.669,18.961c0.847,4.704,1.622,9.968,3.454,14.395c0.524,1.357,1.362,3.177,1.976,4.525
	c2.079,4.448,3.732,9.099,5.767,13.579c1.366,2.993,3.028,5.883,5.147,8.409c0.887,1.085,1.931,2.146,2.822,3.239
	c2.074,2.778,3.58,5.937,4.875,9.158c1.846,4.556,3.212,9.292,4.848,13.929c0.573,1.537,1.12,3.096,1.967,4.525l0.201-0.121
	c-1.581-2.854-2.45-6.062-3.508-9.145c-1.021-3.113-2.025-6.24-3.234-9.296c-1.376-3.41-2.917-6.859-5.261-9.745
	c-1.881-2.15-3.781-4.296-5.196-6.796c-1.681-2.805-2.926-5.838-4.136-8.876c-1.447-3.79-3.002-7.661-4.659-11.384
	c-0.954-2.245-1.766-4.552-2.343-6.922c-0.69-2.751-1.241-6.806-1.721-9.65c-0.833-4.866-1.779-9.723-3.092-14.485
	c-1.545-4.704-3.942-9.247-7.437-12.786c-2.316-2.37-5-4.292-7.451-6.442c-2.473-2.133-4.633-4.602-6.438-7.321
	c-5.265-8.051-9.091-16.976-12.55-25.927c1.183,0.994,2.406,1.953,3.679,2.854c13.198,9.333,29.229,13.172,44.099,18.965
	c11.017,4.086,19.87,12.227,28.189,20.265c5.197,5.094,10.104,10.506,14.87,16.039c2.24,2.559,4.65,5.748,7.016,8.302
	c-0.054,0.063-0.098,0.116-0.098,0.116c1.545,1.729,2.36,4.051,3.122,6.219c1.712,5.072,2.231,10.431,3.127,15.681
	c1.967,8.728,6.488,16.667,11.64,23.898c1.385,1.931,2.841,3.813,4.387,5.613c-1.532-1.814-2.971-3.705-4.342-5.646
	c-4.735-6.773-8.951-14.135-11.008-22.19c-0.609-2.258-0.887-4.687-1.191-7.002c-0.497-3.54-1.16-7.057-2.24-10.471
	c-0.569-1.653-1.146-3.342-2.048-4.848c4.288,4.145,9.198,7.585,14.279,10.681c9.327,5.587,19.237,10.171,29.398,14.028
	c-0.004,0.013-0.026,0.058-0.026,0.058c2.374,1.174,4.731,2.384,7.069,3.629c4.695,2.474,9.185,5.278,13.405,8.499
	c4.261,3.239,9.145,5.641,14.233,7.236c2.545,0.793,4.901,1.926,7.025,3.543c4.266,3.123,7.971,7.119,10.488,11.792
	c-2.419-4.744-6.025-8.875-10.265-12.092L587.959,513.911z"/>
</svg>
