<svg xmlns="http://www.w3.org/2000/svg" xmlns:xlink="http://www.w3.org/1999/xlink" width="178.181" height="34.42" viewBox="0 0 178.181 34.42">
  <defs>
    <clipPath id="clip-path">
      <rect id="Rectangle_136" data-name="Rectangle 136" width="100.181" height="17.21" fill="none"/>
    </clipPath>
  </defs>
  <g id="Logo" transform="translate(-34 -22)">
    <g id="Group_238" data-name="Group 238" transform="translate(34 22)">
      <path id="Path_909" data-name="Path 909" d="M82.847,40.272l-8.659-8.659-.07.073v3.981L82.847,44.4l2.062-2.062,4.4-4.4,2.123-2.12V31.687l-3.342,3.345Z" transform="translate(-52.503 -22.394)" fill="#fff"/>
      <path id="Path_910" data-name="Path 910" d="M74.119,59.768l6.967,6.967v7.1h3.376V66.881l6.967-6.968V55.787l-1.248,1.248-7.335,7.338-8.729-8.729Z" transform="translate(-52.503 -39.416)" fill="#fff"/>
      <path id="Path_911" data-name="Path 911" d="M88.536,26.352l2.3-2.3,2.794-2.794L91.645,19.12l-2.027,2.027L86.474,24.29l-3.249-3.249-2-2-1.989,2.138,7.235,7.235Z" transform="translate(-56.13 -13.49)" fill="#fff"/>
      <path id="Path_912" data-name="Path 912" d="M95.083,0,91.495,3.859l3.588,3.859,3.588-3.859Z" transform="translate(-64.812)" fill="#fff"/>
      <path id="Path_913" data-name="Path 913" d="M0,31.686v3.981L8.729,44.4l2.062-2.062,4.4-4.4,2.123-2.12V31.686l-3.342,3.345L8.729,40.272.07,31.614Z" transform="translate(0 -22.394)" fill="#fff"/>
      <path id="Path_914" data-name="Path 914" d="M0,59.768l6.967,6.967v7.1h3.376V66.881l6.968-6.968V55.787l-1.248,1.248L8.729,64.373,0,55.644Z" transform="translate(0 -39.416)" fill="#fff"/>
      <path id="Path_915" data-name="Path 915" d="M14.417,26.352l2.3-2.3,2.794-2.794L17.526,19.12,15.5,21.146,12.355,24.29,9.107,21.041l-2-2L5.12,21.181l7.235,7.235Z" transform="translate(-3.627 -13.49)" fill="#fff"/>
      <path id="Path_916" data-name="Path 916" d="M20.964,0,17.376,3.859l3.588,3.859,3.588-3.859Z" transform="translate(-12.309)" fill="#fff"/>
      <path id="Path_917" data-name="Path 917" d="M148.237,31.686v3.981l8.729,8.729,2.062-2.062,4.4-4.4,2.123-2.12V31.686l-3.342,3.345-5.241,5.241-8.659-8.659Z" transform="translate(-105.006 -22.394)" fill="#fff"/>
      <path id="Path_918" data-name="Path 918" d="M148.237,59.768l6.967,6.967v7.1h3.376V66.881l6.968-6.968V55.787L164.3,57.035l-7.335,7.338-8.729-8.729Z" transform="translate(-105.006 -39.416)" fill="#fff"/>
      <path id="Path_919" data-name="Path 919" d="M162.654,26.352l2.3-2.3,2.794-2.794-1.989-2.135-2.027,2.027-3.144,3.144-3.249-3.249-2-2-1.989,2.138,7.235,7.235Z" transform="translate(-108.633 -13.49)" fill="#fff"/>
      <path id="Path_920" data-name="Path 920" d="M169.2,0l-3.588,3.859L169.2,7.719l3.588-3.859Z" transform="translate(-117.315)" fill="#fff"/>
    </g>
    <g id="Group_241" data-name="Group 241" transform="translate(112 32.605)">
      <path id="Path_921" data-name="Path 921" d="M0,.717V2.694H2.73v7.862H4.857V2.694H7.595V.717Z" transform="translate(0 -0.505)" fill="#fff"/>
      <path id="Path_922" data-name="Path 922" d="M31.444,10.556,30.758,8.69H26.841l-.672,1.866H23.911L27.767.718h2l3.979,9.838ZM28.789,3.318,27.506,6.838h2.58Z" transform="translate(-16.831 -0.505)" fill="#fff"/>
      <path id="Path_923" data-name="Path 923" d="M66.426,10.556H64.038L62.1,7.18l-1.962,3.376H57.74L60.8,5.4,57.932.717h2.394L62.083,3.75,63.853.717h2.332L63.359,5.472Z" transform="translate(-40.643 -0.505)" fill="#fff"/>
      <g id="Group_240" data-name="Group 240" transform="translate(0 0)">
        <g id="Group_239" data-name="Group 239" clip-path="url(#clip-path)">
          <path id="Path_924" data-name="Path 924" d="M105.628,10.264a5.5,5.5,0,0,1-2.085-.395A5.094,5.094,0,0,1,101.872,8.8a4.913,4.913,0,0,1-1.1-1.633,5.185,5.185,0,0,1-.4-2.031,5.187,5.187,0,0,1,.4-2.031,4.92,4.92,0,0,1,1.1-1.633A5.108,5.108,0,0,1,103.543.394a5.706,5.706,0,0,1,4.161,0A4.848,4.848,0,0,1,110.452,3.1a5.219,5.219,0,0,1,.4,2.034,5.219,5.219,0,0,1-.4,2.035A4.848,4.848,0,0,1,107.7,9.873a5.505,5.505,0,0,1-2.076.391m-2.2-2.906a2.975,2.975,0,0,0,2.2.9,2.941,2.941,0,0,0,2.189-.9,3.061,3.061,0,0,0,.878-2.233,3.05,3.05,0,0,0-.878-2.23,2.947,2.947,0,0,0-2.189-.892,2.98,2.98,0,0,0-2.2.9,3.031,3.031,0,0,0-.892,2.223,3.043,3.043,0,0,0,.892,2.226" transform="translate(-70.652 0)" fill="#fff"/>
          <path id="Path_925" data-name="Path 925" d="M146.8,10.556,144.875,7.2H143.51v3.355h-2.127V.718h3.973a3.442,3.442,0,0,1,2.46.923,3.074,3.074,0,0,1,.978,2.336,3.1,3.1,0,0,1-.48,1.7A3.171,3.171,0,0,1,147,6.838l2.175,3.718ZM143.51,2.687V5.232h1.7a1.481,1.481,0,0,0,1.043-.354,1.186,1.186,0,0,0,.384-.916,1.2,1.2,0,0,0-.384-.919,1.472,1.472,0,0,0-1.043-.357Z" transform="translate(-99.519 -0.505)" fill="#fff"/>
          <path id="Path_926" data-name="Path 926" d="M175.609,10.28a5.15,5.15,0,0,1-2.007-.394,4.91,4.91,0,0,1-1.616-1.074,4.979,4.979,0,0,1-1.064-1.629,5.26,5.26,0,0,1-.391-2.02,5.319,5.319,0,0,1,.391-2.038,4.977,4.977,0,0,1,1.064-1.633A4.915,4.915,0,0,1,173.6.417a5.15,5.15,0,0,1,2.007-.394A4.753,4.753,0,0,1,180.37,3.94h-2.133a2.8,2.8,0,0,0-1.005-1.383,2.694,2.694,0,0,0-1.623-.5,2.748,2.748,0,0,0-2.085.888,3.11,3.11,0,0,0-.837,2.22,3.076,3.076,0,0,0,.837,2.205,2.758,2.758,0,0,0,2.085.882,2.661,2.661,0,0,0,1.674-.545,2.778,2.778,0,0,0,.974-1.486H180.4a4.894,4.894,0,0,1-1.653,2.944,4.7,4.7,0,0,1-3.143,1.118" transform="translate(-120.037 -0.016)" fill="#fff"/>
          <path id="Path_927" data-name="Path 927" d="M214.873.718H217v9.839h-2.127V6.488h-3.7v4.069h-2.127V.718h2.127V4.512h3.7Z" transform="translate(-147.144 -0.505)" fill="#fff"/>
          <path id="Path_928" data-name="Path 928" d="M247.668,10.556l-.686-1.866h-3.917l-.672,1.866h-2.257L243.991.718h2l3.979,9.838Zm-2.655-7.238L243.73,6.838h2.58Z" transform="translate(-169.03 -0.505)" fill="#fff"/>
          <path id="Path_929" data-name="Path 929" d="M282.991,10.556,281.07,7.2H279.7v3.355h-2.127V.718h3.973a3.441,3.441,0,0,1,2.459.923,3.074,3.074,0,0,1,.978,2.336,3.1,3.1,0,0,1-.48,1.7A3.171,3.171,0,0,1,283.2,6.838l2.175,3.718ZM279.7,2.687V5.232h1.7a1.482,1.482,0,0,0,1.043-.354,1.187,1.187,0,0,0,.384-.916,1.2,1.2,0,0,0-.384-.919,1.473,1.473,0,0,0-1.043-.357Z" transform="translate(-195.386 -0.505)" fill="#fff"/>
          <path id="Path_930" data-name="Path 930" d="M312.646.717a5.349,5.349,0,0,1,2,.371,4.7,4.7,0,0,1,1.585,1.019,4.655,4.655,0,0,1,1.029,1.561,5.122,5.122,0,0,1,.374,1.962,5.131,5.131,0,0,1-.378,1.973,4.552,4.552,0,0,1-2.617,2.583,5.335,5.335,0,0,1-1.993.37h-3.718V.717ZM312.6,8.58a2.74,2.74,0,0,0,2.061-.827,2.927,2.927,0,0,0,.8-2.123,2.9,2.9,0,0,0-.8-2.117,2.752,2.752,0,0,0-2.061-.82h-1.544V8.58Z" transform="translate(-217.453 -0.505)" fill="#fff"/>
          <path id="Path_931" data-name="Path 931" d="M5.481,48.768l-.266-.724H3.695l-.261.724H2.558l1.5-3.818h.778l1.544,3.818Zm-1.03-2.809-.5,1.366h1Z" transform="translate(-1.801 -31.64)" fill="#fff"/>
          <path id="Path_932" data-name="Path 932" d="M21.35,44.95h.809v3.818h-.689l-1.73-2.386v2.386h-.81V44.95h.746L21.35,47.28Z" transform="translate(-13.324 -31.64)" fill="#fff"/>
          <path id="Path_933" data-name="Path 933" d="M42.131,48.655a2.136,2.136,0,0,1-.81-.153,1.982,1.982,0,0,1-.648-.417,1.908,1.908,0,0,1-.426-.634,2.075,2.075,0,0,1,0-1.576,1.908,1.908,0,0,1,.426-.634,1.982,1.982,0,0,1,.648-.417,2.215,2.215,0,0,1,1.615,0A1.881,1.881,0,0,1,44,45.874a2.092,2.092,0,0,1,0,1.579A1.881,1.881,0,0,1,42.936,48.5a2.136,2.136,0,0,1-.805.152m-.855-1.128a1.154,1.154,0,0,0,.855.35,1.142,1.142,0,0,0,.849-.348,1.271,1.271,0,0,0,0-1.732,1.144,1.144,0,0,0-.849-.346,1.157,1.157,0,0,0-.855.349,1.25,1.25,0,0,0,0,1.727" transform="translate(-28.221 -31.445)" fill="#fff"/>
          <path id="Path_934" data-name="Path 934" d="M59.949,48.768l-.746-1.3h-.53v1.3h-.825V44.95H59.39a1.336,1.336,0,0,1,.954.358,1.271,1.271,0,0,1,.193,1.568,1.227,1.227,0,0,1-.509.449l.844,1.443Zm-1.275-3.054V46.7h.66a.575.575,0,0,0,.405-.137.5.5,0,0,0,0-.712.572.572,0,0,0-.405-.138Z" transform="translate(-40.719 -31.64)" fill="#fff"/>
          <path id="Path_935" data-name="Path 935" d="M72.97,48.661a2,2,0,0,1-.779-.153,1.9,1.9,0,0,1-.627-.417,1.932,1.932,0,0,1-.413-.632A2.041,2.041,0,0,1,71,46.675a2.069,2.069,0,0,1,.152-.791,1.931,1.931,0,0,1,.413-.634,1.911,1.911,0,0,1,.627-.417,2,2,0,0,1,.779-.153,1.845,1.845,0,0,1,1.848,1.52H73.99a1.088,1.088,0,0,0-.39-.536,1.044,1.044,0,0,0-.63-.2,1.066,1.066,0,0,0-.809.345,1.206,1.206,0,0,0-.325.861,1.194,1.194,0,0,0,.325.856,1.07,1.07,0,0,0,.809.342,1.031,1.031,0,0,0,.65-.212A1.077,1.077,0,0,0,74,47.085h.833a1.9,1.9,0,0,1-.642,1.142,1.822,1.822,0,0,1-1.219.434" transform="translate(-49.977 -31.451)" fill="#fff"/>
          <path id="Path_936" data-name="Path 936" d="M90.048,44.95h.825v3.818h-.825V47.189H88.61v1.579h-.826V44.95h.826v1.473h1.438Z" transform="translate(-61.791 -31.64)" fill="#fff"/>
          <path id="Path_937" data-name="Path 937" d="M104.615,48.768l-.266-.724h-1.52l-.261.724h-.876l1.5-3.818h.778l1.544,3.818Zm-1.03-2.809-.5,1.366h1Z" transform="translate(-71.581 -31.64)" fill="#fff"/>
          <path id="Path_938" data-name="Path 938" d="M120.165,48.768l-.746-1.3h-.53v1.3h-.825V44.95h1.542a1.337,1.337,0,0,1,.955.358,1.27,1.27,0,0,1,.193,1.568,1.226,1.226,0,0,1-.508.449l.844,1.443Zm-1.276-3.054V46.7h.66a.574.574,0,0,0,.4-.137.5.5,0,0,0,0-.712.571.571,0,0,0-.4-.138Z" transform="translate(-83.105 -31.64)" fill="#fff"/>
          <path id="Path_939" data-name="Path 939" d="M133.513,44.95a2.078,2.078,0,0,1,.776.144,1.823,1.823,0,0,1,.615.4,1.8,1.8,0,0,1,.4.606,2.071,2.071,0,0,1,0,1.527,1.763,1.763,0,0,1-1.015,1,2.071,2.071,0,0,1-.774.144H132.07V44.95ZM133.494,48a1.062,1.062,0,0,0,.8-.321,1.246,1.246,0,0,0,0-1.645,1.069,1.069,0,0,0-.8-.318h-.6V48Z" transform="translate(-92.964 -31.64)" fill="#fff"/>
          <path id="Path_940" data-name="Path 940" d="M155.064,48.655a2.136,2.136,0,0,1-.81-.153,1.982,1.982,0,0,1-.648-.417,1.908,1.908,0,0,1-.426-.634,2.075,2.075,0,0,1,0-1.576,1.908,1.908,0,0,1,.426-.634,1.982,1.982,0,0,1,.648-.417,2.215,2.215,0,0,1,1.615,0,1.881,1.881,0,0,1,1.067,1.051,2.092,2.092,0,0,1,0,1.579,1.881,1.881,0,0,1-1.067,1.051,2.136,2.136,0,0,1-.805.152m-.855-1.128a1.154,1.154,0,0,0,.855.35,1.142,1.142,0,0,0,.849-.348,1.271,1.271,0,0,0,0-1.732,1.144,1.144,0,0,0-.849-.346,1.157,1.157,0,0,0-.855.349,1.25,1.25,0,0,0,0,1.727" transform="translate(-107.714 -31.445)" fill="#fff"/>
          <path id="Path_941" data-name="Path 941" d="M173.06,45.719h-1.454v.839h1.312v.748h-1.312v1.462h-.825V44.95h2.279Z" transform="translate(-120.213 -31.64)" fill="#fff"/>
          <path id="Path_942" data-name="Path 942" d="M189.558,48.655a2.136,2.136,0,0,1-.81-.153,1.982,1.982,0,0,1-.648-.417,1.908,1.908,0,0,1-.426-.634,2.075,2.075,0,0,1,0-1.576,1.908,1.908,0,0,1,.426-.634,1.982,1.982,0,0,1,.648-.417,2.215,2.215,0,0,1,1.615,0,1.881,1.881,0,0,1,1.067,1.051,2.092,2.092,0,0,1,0,1.579,1.881,1.881,0,0,1-1.067,1.051,2.136,2.136,0,0,1-.805.152m-.855-1.128a1.154,1.154,0,0,0,.855.35,1.141,1.141,0,0,0,.849-.348,1.271,1.271,0,0,0,0-1.732,1.143,1.143,0,0,0-.849-.346,1.157,1.157,0,0,0-.855.349,1.25,1.25,0,0,0,0,1.727" transform="translate(-131.994 -31.445)" fill="#fff"/>
          <path id="Path_943" data-name="Path 943" d="M206.745,44.95a1.4,1.4,0,0,1,.685.169,1.247,1.247,0,0,1,.484.471,1.3,1.3,0,0,1,.177.672,1.252,1.252,0,0,1-.386.939,1.327,1.327,0,0,1-.961.374H206.1v1.193h-.825V44.95Zm-.037,1.861a.529.529,0,0,0,.394-.154.587.587,0,0,0,0-.787.53.53,0,0,0-.4-.153H206.1v1.094Z" transform="translate(-144.492 -31.64)" fill="#fff"/>
          <path id="Path_944" data-name="Path 944" d="M220.032,44.95a1.4,1.4,0,0,1,.685.169,1.247,1.247,0,0,1,.484.471,1.3,1.3,0,0,1,.177.672,1.252,1.252,0,0,1-.386.939,1.327,1.327,0,0,1-.961.374h-.644v1.193h-.825V44.95Zm-.037,1.861a.529.529,0,0,0,.394-.154.587.587,0,0,0,0-.787.53.53,0,0,0-.4-.153h-.607v1.094Z" transform="translate(-153.845 -31.64)" fill="#fff"/>
          <path id="Path_945" data-name="Path 945" d="M233.125,48.655a2.136,2.136,0,0,1-.81-.153,1.982,1.982,0,0,1-.648-.417,1.908,1.908,0,0,1-.426-.634,2.075,2.075,0,0,1,0-1.576,1.908,1.908,0,0,1,.426-.634,1.982,1.982,0,0,1,.648-.417,2.215,2.215,0,0,1,1.615,0A1.881,1.881,0,0,1,235,45.874a2.093,2.093,0,0,1,0,1.579A1.881,1.881,0,0,1,233.93,48.5a2.136,2.136,0,0,1-.805.152m-.855-1.128a1.154,1.154,0,0,0,.855.35,1.142,1.142,0,0,0,.849-.348,1.271,1.271,0,0,0,0-1.732,1.144,1.144,0,0,0-.849-.346,1.156,1.156,0,0,0-.855.349,1.25,1.25,0,0,0,0,1.727" transform="translate(-162.661 -31.445)" fill="#fff"/>
          <path id="Path_946" data-name="Path 946" d="M250.942,48.768l-.746-1.3h-.53v1.3h-.825V44.95h1.542a1.337,1.337,0,0,1,.955.358,1.27,1.27,0,0,1,.193,1.568,1.226,1.226,0,0,1-.508.449l.844,1.443Zm-1.276-3.054V46.7h.66a.574.574,0,0,0,.4-.137.5.5,0,0,0,0-.712.571.571,0,0,0-.4-.138Z" transform="translate(-175.158 -31.64)" fill="#fff"/>
          <path id="Path_947" data-name="Path 947" d="M264.465,44.95v.767H263.4v3.051h-.825V45.717h-1.059V44.95Z" transform="translate(-184.081 -31.64)" fill="#fff"/>
          <path id="Path_948" data-name="Path 948" d="M277.754,48.424a1.707,1.707,0,0,1-2.259,0,1.443,1.443,0,0,1-.449-1.093v-2.38h.828v2.343a.776.776,0,0,0,.209.567.795.795,0,0,0,1.083,0,.779.779,0,0,0,.208-.567V44.951h.828v2.38a1.444,1.444,0,0,1-.447,1.093" transform="translate(-193.604 -31.641)" fill="#fff"/>
          <path id="Path_949" data-name="Path 949" d="M292.769,44.95h.809v3.818h-.69l-1.73-2.386v2.386h-.81V44.95h.746l1.674,2.329Z" transform="translate(-204.375 -31.64)" fill="#fff"/>
          <rect id="Rectangle_135" data-name="Rectangle 135" width="0.825" height="3.818" transform="translate(90.618 13.31)" fill="#fff"/>
          <path id="Path_950" data-name="Path 950" d="M315.491,44.95v.767h-1.062v3.051H313.6V45.717h-1.06V44.95Z" transform="translate(-219.999 -31.64)" fill="#fff"/>
          <path id="Path_951" data-name="Path 951" d="M328.571,44.95l-1.344,2.276v1.542h-.847V47.221l-1.332-2.271h.879l.881,1.528.884-1.528Z" transform="translate(-228.8 -31.64)" fill="#fff"/>
        </g>
      </g>
    </g>
  </g>
</svg>
